<?xml version="1.0" encoding="utf-8"?>
<!-- Generator: Adobe Illustrator 17.1.0, SVG Export Plug-In . SVG Version: 6.00 Build 0)  -->
<!DOCTYPE svg PUBLIC "-//W3C//DTD SVG 1.1//EN" "http://www.w3.org/Graphics/SVG/1.1/DTD/svg11.dtd">
<svg version="1.1" id="Layer_1" xmlns="http://www.w3.org/2000/svg" xmlns:xlink="http://www.w3.org/1999/xlink" x="0px" y="0px"
	 viewBox="0 0 50 50" enable-background="new 0 0 50 50" xml:space="preserve">
<g>
	<circle fill="#575347" stroke="#575347" stroke-width="0.5" stroke-miterlimit="10" cx="17.6" cy="22.7" r="0.9"/>
	<circle fill="#575347" stroke="#575347" stroke-width="0.5" stroke-miterlimit="10" cx="20.4" cy="22.7" r="0.9"/>
	<path fill="#575347" stroke="#575347" stroke-width="0.5" stroke-miterlimit="10" d="M36.5,18.1h-5.1v-4.6H18.6v4.6h-5.1
		c-0.3,0-0.5,0.2-0.5,0.5v13.8c0,0.3,0.2,0.5,0.5,0.5h5.1v3.7h12.9v-3.7h5.1c0.3,0,0.5-0.2,0.5-0.5V18.6
		C37,18.3,36.8,18.1,36.5,18.1z M19.5,14.4h11v3.7h-11V14.4z M30.5,35.6h-11v-8.3h11V35.6z M36,31.9h-4.6v-5.5H18.6v5.5H14V19h4.6
		h12.9H36V31.9z"/>
</g>
</svg>
