<?xml version="1.0" encoding="utf-8"?>
<!-- Generator: Adobe Illustrator 17.1.0, SVG Export Plug-In . SVG Version: 6.00 Build 0)  -->
<!DOCTYPE svg PUBLIC "-//W3C//DTD SVG 1.1//EN" "http://www.w3.org/Graphics/SVG/1.1/DTD/svg11.dtd">
<svg version="1.1" id="Layer_1" xmlns="http://www.w3.org/2000/svg" xmlns:xlink="http://www.w3.org/1999/xlink" x="0px" y="0px"
	 viewBox="0 0 25 25" enable-background="new 0 0 25 25" xml:space="preserve">
<path fill="#FFFFFF" d="M23.1,20.4L18,15.3c-0.1-0.1-0.2-0.1-0.2-0.2c0.9-1.4,1.4-3.1,1.4-4.8c0-4.9-4-8.9-8.9-8.9
	c-4.9,0-8.9,4-8.9,8.9c0,4.9,4,8.9,8.9,8.9c1.8,0,3.5-0.5,4.8-1.4c0.1,0.1,0.1,0.2,0.2,0.2l5.1,5.1c0.4,0.4,0.9,0.6,1.3,0.6
	c0.5,0,1-0.2,1.3-0.6C23.8,22.3,23.8,21.1,23.1,20.4z M3.9,10.3c0-3.5,2.9-6.4,6.4-6.4c3.5,0,6.4,2.9,6.4,6.4c0,3.5-2.9,6.4-6.4,6.4
	C6.8,16.6,3.9,13.8,3.9,10.3z"/>
</svg>
