<?xml version="1.0" encoding="utf-8"?>
<!-- Generator: Adobe Illustrator 17.1.0, SVG Export Plug-In . SVG Version: 6.00 Build 0)  -->
<!DOCTYPE svg PUBLIC "-//W3C//DTD SVG 1.1//EN" "http://www.w3.org/Graphics/SVG/1.1/DTD/svg11.dtd">
<svg version="1.1" xmlns="http://www.w3.org/2000/svg" xmlns:xlink="http://www.w3.org/1999/xlink" x="0px" y="0px"
	 viewBox="0 0 50 50" enable-background="new 0 0 50 50" xml:space="preserve">
<g id="Layer_1" display="none">
	<g display="inline">
		<circle fill="#B4B3AE" cx="25" cy="25" r="25"/>
		<path fill="#B50430" stroke="#B50430" stroke-miterlimit="10" d="M27.2,19.1h2.2v-2.9H27c-2,0-3.4,1.6-3.4,4.1v1.8h-2.9V25h2.9
			v8.8h2.9V25h2.9v-2.9h-2.9v-2.4C26.5,19.2,26.9,19.1,27.2,19.1z"/>
	</g>
</g>
<g id="Layer_2">
	<circle opacity="0.25" cx="25" cy="25" r="25"/>
	<path fill="#B6012C" d="M34.7,19c-0.7,0.3-1.5,0.5-2.3,0.6c0.8-0.5,1.5-1.3,1.7-2.2c-0.8,0.5-1.6,0.8-2.5,1
		c-0.7-0.8-1.8-1.3-2.9-1.3c-2.2,0-4,1.8-4,4c0,0.3,0,0.6,0.1,0.9c-3.3-0.2-6.2-1.7-8.2-4.2c-0.3,0.6-0.5,1.3-0.5,2
		c0,1.4,0.7,2.6,1.8,3.3c-0.7,0-1.3-0.2-1.8-0.5c0,0,0,0,0,0c0,1.9,1.4,3.5,3.2,3.9c-0.3,0.1-0.7,0.1-1,0.1c-0.3,0-0.5,0-0.7-0.1
		c0.5,1.6,2,2.7,3.7,2.8c-1.4,1.1-3.1,1.7-4.9,1.7c-0.3,0-0.6,0-0.9-0.1c1.8,1.1,3.8,1.8,6.1,1.8c7.3,0,11.3-6.1,11.3-11.3
		c0-0.2,0-0.3,0-0.5C33.5,20.5,34.2,19.8,34.7,19z"/>
</g>
<g id="Layer_3" display="none">
	<circle display="inline" fill="#B4B3AE" cx="25" cy="25" r="25"/>
	<g id="Lozenge_55_" display="inline">
		<g>
			<path fill="#B6012C" d="M36.3,20.3c0,0-0.2-1.6-0.9-2.3c-0.9-0.9-1.9-0.9-2.3-1c-3.2-0.2-8.1-0.2-8.1-0.2h0c0,0-4.8,0-8.1,0.2
				c-0.5,0.1-1.4,0.1-2.3,1c-0.7,0.7-0.9,2.3-0.9,2.3s-0.2,1.9-0.2,3.7v1.7c0,1.9,0.2,3.7,0.2,3.7s0.2,1.6,0.9,2.3
				c0.9,0.9,2,0.9,2.5,1C19,33,25,33.1,25,33.1v0c-0.5,0.1,3.1,0.2,8.1-0.2c0.5,0,1.4-0.1,2.3-1c0.7-0.7,0.9-2.3,0.9-2.3
				s0.2-1.9,0.2-3.7v-1.7C36.5,22.2,36.3,20.3,36.3,20.3z"/>
		</g>
	</g>
	<path display="inline" fill="#B4B3AE" d="M21.9,28.2l6.2-3.2l-6.2-3.3L21.9,28.2z"/>
</g>
</svg>
