<?xml version="1.0" encoding="utf-8"?>
<!-- Generator: Adobe Illustrator 17.1.0, SVG Export Plug-In . SVG Version: 6.00 Build 0)  -->
<!DOCTYPE svg PUBLIC "-//W3C//DTD SVG 1.1//EN" "http://www.w3.org/Graphics/SVG/1.1/DTD/svg11.dtd">
<svg version="1.1" id="Layer_1" xmlns="http://www.w3.org/2000/svg" xmlns:xlink="http://www.w3.org/1999/xlink" x="0px" y="0px"
	 viewBox="0 0 240 97" enable-background="new 0 0 240 97" xml:space="preserve">
<g>
	<g>
		<path d="M104.9,29.6c0,2,0,3.7,0.1,4.6c0.1,0.6,0.2,1.1,0.8,1.2c0.3,0,0.8,0.1,1,0.1c0.1,0,0.2,0.1,0.2,0.1c0,0.1-0.1,0.2-0.3,0.2
			c-1.2,0-2.5-0.1-2.6-0.1c-0.1,0-1.4,0.1-2.1,0.1c-0.2,0-0.3,0-0.3-0.2c0-0.1,0-0.1,0.2-0.1c0.2,0,0.4,0,0.6-0.1
			c0.4-0.1,0.5-0.6,0.6-1.2c0.1-0.9,0.1-2.6,0.1-4.6v-2.2c0-0.1-0.1-0.1-0.1-0.1h-9c-0.1,0-0.1,0-0.1,0.1v2.2c0,2,0,3.7,0.1,4.6
			c0.1,0.6,0.2,1.1,0.8,1.2c0.3,0,0.8,0.1,1,0.1c0.1,0,0.2,0.1,0.2,0.1c0,0.1-0.1,0.2-0.3,0.2c-1.2,0-2.5-0.1-2.6-0.1
			c-0.1,0-1.4,0.1-2.1,0.1c-0.2,0-0.3,0-0.3-0.2c0-0.1,0-0.1,0.2-0.1c0.2,0,0.4,0,0.6-0.1c0.4-0.1,0.5-0.6,0.6-1.2
			c0.1-0.9,0.1-2.6,0.1-4.6v-3.7c0-3.3,0-3.9,0-4.6c0-0.7-0.2-1.1-0.9-1.2c-0.2,0-0.5-0.1-0.7-0.1c-0.1,0-0.2,0-0.2-0.1
			c0-0.1,0.1-0.2,0.3-0.2c1,0,2.3,0.1,2.4,0.1c0.1,0,1.4-0.1,2.1-0.1c0.2,0,0.3,0,0.3,0.2c0,0.1-0.1,0.1-0.2,0.1
			c-0.1,0-0.3,0-0.5,0.1c-0.6,0.1-0.7,0.5-0.8,1.2c0,0.7,0,1.3,0,4.6v0.4c0,0.1,0.1,0.1,0.1,0.1h9c0.1,0,0.1,0,0.1-0.1v-0.4
			c0-3.3,0-3.9,0-4.6c0-0.7-0.2-1.1-0.9-1.2c-0.2,0-0.5-0.1-0.7-0.1c-0.1,0-0.2,0-0.2-0.1c0-0.1,0.1-0.2,0.3-0.2
			c1,0,2.3,0.1,2.4,0.1c0.1,0,1.4-0.1,2.1-0.1c0.2,0,0.3,0,0.3,0.2c0,0.1-0.1,0.1-0.2,0.1c-0.1,0-0.3,0-0.5,0.1
			c-0.6,0.1-0.7,0.5-0.8,1.2c0,0.7,0,1.3,0,4.6V29.6z"/>
		<path d="M116.9,21.9c4.2,0,7.4,2.6,7.4,6.8c0,4-3,7.4-7.5,7.4c-5.1,0-7.3-3.9-7.3-7.1C109.5,26,111.7,21.9,116.9,21.9z
			 M117.3,35.3c1.7,0,5.1-0.9,5.1-6.1c0-4.3-2.6-6.6-5.6-6.6c-3.1,0-5.4,2-5.4,5.9C111.4,32.7,113.9,35.3,117.3,35.3z"/>
		<path d="M129.9,30.6c0,2.7,0,3.7,0.4,4.1c0.3,0.3,1,0.4,2.5,0.4c1,0,1.8,0,2.3-0.6c0.2-0.3,0.4-0.7,0.4-1c0-0.1,0.1-0.2,0.2-0.2
			c0.1,0,0.1,0.1,0.1,0.3c0,0.2-0.1,1.3-0.3,1.8c-0.1,0.4-0.2,0.5-1.2,0.5c-1.3,0-2.4,0-3.3-0.1c-0.9,0-1.5,0-2,0
			c-0.1,0-0.4,0-0.8,0c-0.4,0-0.8,0-1.1,0c-0.2,0-0.3,0-0.3-0.1c0-0.1,0-0.1,0.1-0.1c0.2,0,0.4,0,0.6-0.1c0.4-0.1,0.4-0.4,0.5-1
			c0.1-0.7,0.1-2.2,0.1-3.9v-3.2c0-2.8,0-3.3,0-3.9c0-0.6-0.1-0.9-0.8-1c-0.1,0-0.5,0-0.6,0c-0.1,0-0.1-0.1-0.1-0.1
			c0-0.1,0.1-0.1,0.3-0.1c0.9,0,2,0,2.1,0c0.1,0,1.5,0,2.1,0c0.2,0,0.3,0,0.3,0.1c0,0.1-0.1,0.1-0.1,0.1c-0.1,0-0.4,0-0.6,0
			c-0.6,0.1-0.7,0.4-0.7,1c0,0.6,0,1.1,0,3.9V30.6z"/>
		<path d="M141,31.1c0-1-0.1-1.3-0.4-1.9c-0.1-0.3-2.7-4.3-3.3-5.3c-0.4-0.7-0.9-1.1-1.2-1.3c-0.3-0.2-0.6-0.3-0.8-0.3
			c-0.1,0-0.2-0.1-0.2-0.2c0-0.1,0.1-0.1,0.2-0.1c0.4,0,1.8,0,1.9,0c0.1,0,0.9,0,1.6,0c0.2,0,0.3,0,0.3,0.1c0,0.1-0.1,0.1-0.3,0.2
			c-0.1,0.1-0.2,0.1-0.2,0.3c0,0.3,0.1,0.5,0.3,0.7l3.4,5.6c0.4-0.8,2.7-4.6,3.1-5.2c0.2-0.4,0.3-0.7,0.3-0.9c0-0.3-0.1-0.4-0.3-0.5
			c-0.2,0-0.3-0.1-0.3-0.2c0-0.1,0.1-0.1,0.3-0.1c0.5,0,1.1,0,1.3,0c0.1,0,1.5,0,1.8,0c0.1,0,0.2,0,0.2,0.1c0,0.1-0.1,0.2-0.2,0.2
			c-0.2,0-0.6,0.1-0.9,0.2c-0.4,0.2-0.5,0.4-0.9,0.9c-0.6,0.7-3.3,5-3.6,5.7c-0.3,0.6-0.2,1.2-0.2,1.8v1.6c0,0.3,0,1.1,0.1,1.8
			c0,0.5,0.2,0.9,0.7,1c0.3,0,0.7,0.1,0.9,0.1c0.1,0,0.1,0.1,0.1,0.1c0,0.1-0.1,0.1-0.3,0.1c-1,0-2.3-0.1-2.4-0.1
			c-0.1,0-1.3,0.1-1.8,0.1c-0.2,0-0.3,0-0.3-0.1c0-0.1,0-0.1,0.1-0.1c0.2,0,0.4,0,0.6-0.1c0.4-0.1,0.5-0.4,0.6-1c0-0.7,0-1.5,0-1.8
			V31.1z"/>
		<path d="M157.7,32.9c0,1.7,0.3,2.3,0.8,2.5c0.4,0.1,0.9,0.1,1.1,0.1c0.1,0,0.2,0,0.2,0.1c0,0.1-0.1,0.2-0.4,0.2
			c-1.2,0-2.1-0.1-2.3-0.1c-0.2,0-1.1,0.1-2,0.1c-0.2,0,0.1,0,0.1-0.2c0-0.1-0.4-0.1-0.3-0.1c0.2,0,0.6,0,0.9-0.1
			c0.5-0.1,0.6-0.8,0.6-2.7l0-12.2c0-0.8,0.1-1.1,0.2-1.1c0.2,0,0.5,0.5,0.7,0.7c0.3,0.4,3.5,3.8,6.8,7.3c2.1,2.3,4.4,4.9,5.1,5.6
			l-0.2-10.8c0-1.4-0.2-1.9-0.8-2c-0.4-0.1-0.9-0.1-1-0.1c-0.1,0-0.2-0.1-0.2-0.1c0-0.1,0.2-0.1,0.4-0.1c1,0,2,0.1,2.2,0.1
			c0.2,0,0.9-0.1,1.8-0.1c0.2,0,0.4,0,0.4,0.1c0,0.1-0.1,0.1-0.2,0.1c-0.1,0-0.3,0-0.5,0.1c-0.7,0.1-0.8,0.6-0.8,1.9l0,12.5
			c0,1.4,0,1.5-0.2,1.5c-0.2,0-0.4-0.2-1.6-1.4c-0.2-0.2-3.3-3.3-5.6-5.8c-2.5-2.7-4.9-5.3-5.6-6.1L157.7,32.9z"/>
		<path d="M179.7,22.5c0.2-0.6,0.3-0.7,0.4-0.7c0.2,0,0.3,0.3,0.4,0.7c0.3,0.8,3.3,8.2,4.5,11c0.7,1.6,1.2,1.9,1.6,2
			c0.3,0.1,0.6,0.1,0.7,0.1c0.1,0,0.2,0,0.2,0.1c0,0.1-0.2,0.1-0.4,0.1c-0.3,0-1.7,0-3,0c-0.4,0-0.7,0-0.7-0.1c0-0.1,0-0.1,0.1-0.1
			c0.1,0,0.3-0.2,0.2-0.5l-1.7-4.2c0-0.1-0.1-0.1-0.2-0.1h-4.3c-0.1,0-0.1,0-0.2,0.1l-1.1,2.9c-0.2,0.4-0.3,0.9-0.3,1.2
			c0,0.4,0.3,0.5,0.6,0.5h0.2c0.1,0,0.2,0.1,0.2,0.1c0,0.1-0.1,0.1-0.3,0.1c-0.4,0-1.5-0.1-1.7-0.1c-0.2,0-1.1,0.1-1.9,0.1
			c-0.2,0-0.4,0-0.4-0.1c0-0.1,0.1-0.1,0.2-0.1c0.1,0,0.4,0,0.6,0c0.9-0.1,1.2-0.7,1.6-1.7L179.7,22.5z M181.7,30
			c0.1,0,0.1,0,0.1-0.1l-1.9-5c-0.1-0.3-0.2-0.3-0.3,0l-1.7,5c0,0.1,0,0.1,0.1,0.1H181.7z"/>
		<path d="M204.6,33.5c0.1,0.6,0.2,1.6,1,1.9c0.5,0.2,1,0.2,1.2,0.2c0.1,0,0.1,0,0.1,0.1c0,0.1-0.2,0.2-0.4,0.2
			c-0.4,0-2.5,0-3.2-0.1c-0.4,0-0.5-0.1-0.5-0.2c0-0.1,0-0.1,0.1-0.1c0.1,0,0.1-0.3,0.1-0.6l-0.9-9.2h0l-4.5,9.2
			c-0.4,0.8-0.5,1-0.7,1c-0.2,0-0.3-0.2-0.6-0.8c-0.5-0.9-1.7-3.2-2.2-4.2c-0.6-1.1-2.1-4.2-2.4-4.9h-0.1l-0.7,8.2
			c0,0.3,0,0.6,0,0.9c0,0.3,0.2,0.4,0.4,0.5c0.3,0.1,0.6,0.1,0.7,0.1c0.1,0,0.1,0.1,0.1,0.1c0,0.1-0.1,0.2-0.3,0.2
			c-0.7,0-1.6-0.1-1.7-0.1c-0.2,0-1.1,0.1-1.6,0.1c-0.2,0-0.3,0-0.3-0.2c0-0.1,0.1-0.1,0.2-0.1c0.1,0,0.3,0,0.6-0.1
			c0.6-0.1,0.6-0.8,0.7-1.4l1.4-11.8c0-0.2,0.1-0.3,0.2-0.3c0.1,0,0.3,0.1,0.4,0.3l5.7,11.2l5.5-11.2c0.1-0.2,0.2-0.3,0.3-0.3
			c0.1,0,0.2,0.1,0.3,0.5L204.6,33.5z"/>
		<path d="M210.2,27.4c0-2.8,0-3.3,0-3.9c0-0.6-0.1-0.9-0.8-1c-0.1,0-0.5,0-0.6,0c-0.1,0-0.1-0.1-0.1-0.1c0-0.1,0.1-0.1,0.3-0.1
			c0.9,0,2.1,0,2.2,0c0.1,0,4,0,4.5,0c0.4,0,0.7-0.1,0.9-0.1c0.1,0,0.2-0.1,0.3-0.1c0.1,0,0.1,0.1,0.1,0.2c0,0.1-0.1,0.3-0.1,0.9
			c0,0.2-0.1,1-0.1,1.2c0,0.1-0.1,0.2-0.2,0.2c-0.1,0-0.1-0.1-0.1-0.2c0-0.1,0-0.4-0.1-0.6c-0.1-0.3-0.3-0.4-1.3-0.6
			c-0.3,0-2.5-0.1-2.7-0.1c-0.1,0-0.1,0.1-0.1,0.2V28c0,0.1,0,0.2,0.1,0.2c0.2,0,2.7,0,3.1,0c0.4,0,0.7-0.1,0.9-0.3
			c0.1-0.1,0.2-0.2,0.3-0.2c0.1,0,0.1,0,0.1,0.1c0,0.1-0.1,0.4-0.1,1c0,0.4-0.1,1-0.1,1.2c0,0.1,0,0.3-0.2,0.3
			c-0.1,0-0.1-0.1-0.1-0.2c0-0.2,0-0.4-0.1-0.6c-0.1-0.3-0.2-0.5-1-0.6c-0.5-0.1-2.5-0.1-2.8-0.1c-0.1,0-0.1,0.1-0.1,0.1v1.5
			c0,0.6,0,2.7,0,3.1c0,1.2,0.4,1.4,2.2,1.4c0.5,0,1.4,0,1.9-0.2c0.5-0.2,0.7-0.5,0.9-1.3c0-0.2,0.1-0.3,0.2-0.3
			c0.1,0,0.1,0.1,0.1,0.3c0,0.1-0.1,1.4-0.3,1.7c-0.1,0.5-0.3,0.5-1,0.5c-1.4,0-2.5,0-3.3-0.1c-0.8,0-1.3,0-1.6,0c0,0-0.4,0-0.8,0
			c-0.4,0-0.8,0-1.1,0c-0.2,0-0.3,0-0.3-0.1c0-0.1,0-0.1,0.1-0.1c0.2,0,0.4-0.1,0.6-0.1c0.4-0.1,0.4-0.4,0.5-1
			c0.1-0.7,0.1-2.2,0.1-3.9V27.4z"/>
		<path d="M220.4,35.6c-0.3-0.1-0.3-0.2-0.3-0.7c0-0.9,0.1-1.6,0.1-1.9c0-0.2,0-0.3,0.1-0.3c0.1,0,0.2,0.1,0.2,0.2
			c0,0.1,0,0.4,0.1,0.7c0.3,1.3,1.7,1.8,3,1.8c1.9,0,2.8-1,2.8-2.4c0-1.3-0.7-1.9-2.4-3.2l-0.9-0.6c-2-1.5-2.7-2.6-2.7-3.9
			c0-2.1,1.7-3.4,4.2-3.4c0.7,0,1.5,0.1,1.9,0.2c0.4,0.1,0.5,0.1,0.7,0.1c0.1,0,0.2,0,0.2,0.1c0,0.1-0.1,0.7-0.1,1.9
			c0,0.3,0,0.4-0.1,0.4s-0.1-0.1-0.2-0.2c0-0.2-0.2-0.7-0.3-0.9c-0.1-0.2-0.7-0.9-2.4-0.9c-1.4,0-2.5,0.7-2.5,2
			c0,1.2,0.6,1.8,2.4,3.1l0.5,0.4c2.3,1.6,3.1,2.8,3.1,4.4c0,1.1-0.4,2.2-1.7,3.1c-0.8,0.5-2,0.6-3,0.6
			C222.2,36,221.2,35.9,220.4,35.6z"/>
	</g>
	<g>
		<path d="M92,50.9c0-3.1,0-3.6,0-4.3c0-0.6-0.2-1-0.8-1.1c-0.2,0-0.5,0-0.7,0c-0.1,0-0.2-0.1-0.2-0.2c0-0.1,0.1-0.2,0.3-0.2
			c0.9,0,2.2,0,2.4,0c0.2,0,1.5,0,2.1,0c0.2,0,0.3,0,0.3,0.2c0,0.1-0.1,0.2-0.2,0.2c-0.1,0-0.3,0-0.5,0c-0.5,0.1-0.7,0.4-0.7,1.1
			c0,0.6,0,1.2,0,4.3v2.8c0,2.9,0.6,4.1,1.5,4.9c1,0.9,1.9,1.1,3.1,1.1c1.3,0,2.5-0.6,3.2-1.4c1-1.1,1.2-2.8,1.2-4.8v-2.5
			c0-3.1,0-3.6,0-4.3c0-0.6-0.1-1-0.8-1.1c-0.2,0-0.5,0-0.7,0c-0.1,0-0.2-0.1-0.2-0.2c0-0.1,0.1-0.2,0.3-0.2c0.9,0,2.1,0,2.2,0
			c0.1,0,1.1,0,1.7,0c0.2,0,0.3,0,0.3,0.2c0,0.1-0.1,0.2-0.2,0.2c-0.1,0-0.3,0-0.5,0c-0.6,0.1-0.7,0.4-0.7,1.1c0,0.6,0,1.2,0,4.3V53
			c0,2.1-0.3,4.6-1.9,6c-1.5,1.3-3.1,1.5-4.3,1.5c-0.7,0-2.8,0-4.3-1.4c-1-0.9-1.8-2.3-1.8-5.2V50.9z"/>
		<path d="M111,57.4c0,1.6,0.2,2.1,0.8,2.3c0.4,0.1,0.8,0.1,1,0.1c0.1,0,0.2,0.1,0.2,0.2c0,0.1-0.1,0.2-0.4,0.2
			c-1.2,0-2-0.1-2.2-0.1c-0.2,0-1.1,0.1-2,0.1c-0.2,0-0.3,0-0.3-0.2c0-0.1,0.1-0.2,0.2-0.2c0.2,0,0.5,0,0.8-0.1
			c0.5-0.1,0.6-0.7,0.6-2.5V45.8c0-0.8,0.1-1,0.3-1c0.2,0,0.6,0.4,0.8,0.6c0.3,0.3,3.3,3.5,6.5,6.8c2,2.1,4.2,4.5,4.9,5.1l-0.2-9.9
			c0-1.3-0.1-1.7-0.8-1.8c-0.4-0.1-0.8-0.1-1-0.1c-0.1,0-0.2-0.1-0.2-0.2c0-0.1,0.2-0.1,0.4-0.1c0.9,0,1.9,0,2.1,0
			c0.2,0,0.9,0,1.8,0c0.2,0,0.4,0,0.4,0.1c0,0.1-0.1,0.2-0.2,0.2c-0.1,0-0.3,0-0.5,0c-0.7,0.1-0.7,0.5-0.7,1.7l0,11.6
			c0,1.3,0,1.4-0.2,1.4c-0.2,0-0.4-0.2-1.6-1.2c-0.2-0.2-3.2-3.1-5.3-5.4c-2.4-2.5-4.7-4.9-5.3-5.6L111,57.4z"/>
		<path d="M131,54.4c0,1.9,0,3.5,0.1,4.3c0.1,0.6,0.1,1,0.7,1.1c0.3,0,0.7,0.1,0.9,0.1c0.1,0,0.2,0.1,0.2,0.2c0,0.1-0.1,0.2-0.3,0.2
			c-1.1,0-2.5-0.1-2.6-0.1c-0.1,0-1.4,0.1-2,0.1c-0.2,0-0.3,0-0.3-0.2c0-0.1,0-0.2,0.2-0.2c0.2,0,0.4,0,0.6-0.1
			c0.4-0.1,0.5-0.5,0.5-1.1c0.1-0.8,0.1-2.4,0.1-4.3v-3.5c0-3.1,0-3.6,0-4.3c0-0.7-0.2-1-0.7-1.1c-0.2,0-0.5-0.1-0.6-0.1
			c-0.1,0-0.2-0.1-0.2-0.2c0-0.1,0.1-0.2,0.3-0.2c0.7,0,2,0,2.1,0c0.1,0,1.4,0,2.1,0c0.2,0,0.3,0,0.3,0.2c0,0.1-0.1,0.2-0.2,0.2
			c-0.1,0-0.3,0-0.5,0c-0.6,0.1-0.7,0.4-0.7,1.1c0,0.6,0,1.2,0,4.3V54.4z"/>
		<path d="M142.7,57.5c1.2-2.7,3.9-9.4,4.3-10.9c0.1-0.3,0.2-0.6,0.2-0.7c0-0.2-0.1-0.3-0.3-0.4c-0.2-0.1-0.5-0.1-0.7-0.1
			c-0.1,0-0.2-0.1-0.2-0.2c0-0.1,0.1-0.2,0.5-0.2c0.8,0,1.8,0,2,0c0.1,0,1,0,1.6,0c0.2,0,0.3,0,0.3,0.1c0,0.1-0.1,0.2-0.2,0.2
			c-0.1,0-0.6,0-1,0.2c-0.3,0.2-0.6,0.5-1.1,1.8c-0.2,0.6-1.2,2.9-2.3,5.4c-1.3,2.9-2.2,5-2.6,6c-0.6,1.2-0.7,1.5-0.9,1.5
			c-0.2,0-0.4-0.3-0.8-1.2l-5-12.2c-0.5-1.1-0.7-1.3-1.4-1.5c-0.3-0.1-0.7-0.1-0.8-0.1c-0.1,0-0.2-0.1-0.2-0.2
			c0-0.1,0.2-0.1,0.5-0.1c1,0,2.1,0,2.4,0c0.2,0,1.1,0,1.9,0c0.4,0,0.6,0,0.6,0.1c0,0.1-0.1,0.2-0.2,0.2c-0.2,0-0.6,0-0.7,0.1
			c-0.2,0.1-0.2,0.2-0.2,0.4c0,0.3,0.3,0.9,0.6,1.7L142.7,57.5z"/>
		<path d="M153.4,50.9c0-3.1,0-3.6,0-4.3c0-0.7-0.2-1-0.8-1.1c-0.2,0-0.5,0-0.7,0c-0.1,0-0.2-0.1-0.2-0.2c0-0.1,0.1-0.2,0.3-0.2
			c0.9,0,2.3,0,2.4,0c0.1,0,4.4,0,4.9,0c0.4,0,0.8-0.1,0.9-0.1c0.1,0,0.2-0.1,0.3-0.1c0.1,0,0.1,0.1,0.1,0.2c0,0.1-0.1,0.4-0.2,0.9
			c0,0.2-0.1,1.1-0.1,1.3c0,0.1-0.1,0.2-0.2,0.2c-0.1,0-0.2-0.1-0.2-0.3c0-0.1,0-0.5-0.1-0.7c-0.1-0.3-0.3-0.5-1.5-0.6
			c-0.4,0-2.7-0.1-3-0.1c-0.1,0-0.1,0.1-0.1,0.2v5.4c0,0.1,0,0.2,0.1,0.2c0.3,0,3,0,3.4,0c0.5,0,0.8-0.1,1-0.3
			c0.1-0.1,0.2-0.3,0.3-0.3c0.1,0,0.1,0,0.1,0.2c0,0.1-0.1,0.4-0.2,1.1c0,0.4-0.1,1.1-0.1,1.3c0,0.2,0,0.4-0.2,0.4
			c-0.1,0-0.1-0.1-0.1-0.2c0-0.2,0-0.4-0.1-0.7c-0.1-0.3-0.3-0.5-1.1-0.6c-0.6-0.1-2.8-0.1-3.1-0.1c-0.1,0-0.1,0.1-0.1,0.1v1.7
			c0,0.7,0,3,0,3.4c0,1.3,0.4,1.6,2.5,1.6c0.5,0,1.5,0,2.1-0.2c0.5-0.2,0.8-0.6,0.9-1.4c0-0.2,0.1-0.3,0.2-0.3
			c0.1,0,0.1,0.2,0.1,0.3c0,0.1-0.2,1.5-0.3,1.9c-0.1,0.5-0.4,0.5-1.1,0.5c-1.5,0-2.7,0-3.6-0.1c-0.9,0-1.4,0-1.7,0c0,0-0.4,0-0.9,0
			c-0.4,0-0.9,0-1.2,0c-0.2,0-0.3,0-0.3-0.2c0-0.1,0-0.2,0.2-0.2c0.2,0,0.4-0.1,0.6-0.1c0.4-0.1,0.4-0.5,0.5-1.1
			c0.1-0.8,0.1-2.4,0.1-4.3V50.9z"/>
		<path d="M166.3,50.9c0-3.1,0-3.6,0-4.3c0-0.7-0.2-1-0.8-1.1c-0.2,0-0.5,0-0.7,0c-0.1,0-0.2-0.1-0.2-0.2c0-0.1,0.1-0.2,0.3-0.2
			c0.9,0,2.3,0,2.4,0c0.2,0,1.9,0,2.6,0c1.3,0,2.8,0.1,3.8,0.9c0.5,0.4,1.4,1.3,1.4,2.7c0,1.5-0.6,2.9-2.5,4.5
			c1.7,2.1,3.1,3.9,4.3,5.1c1.1,1.1,1.8,1.3,2.3,1.4c0.4,0.1,0.6,0.1,0.7,0.1c0.1,0,0.2,0.1,0.2,0.2c0,0.1-0.1,0.2-0.5,0.2h-1.3
			c-1.2,0-1.7-0.1-2.2-0.4c-0.9-0.5-1.6-1.4-2.8-2.9c-0.9-1.1-1.8-2.4-2.2-2.9c-0.1-0.1-0.1-0.1-0.3-0.1l-2.6,0
			c-0.1,0-0.1,0-0.1,0.2v0.5c0,1.9,0,3.5,0.1,4.3c0.1,0.6,0.2,1,0.8,1.1c0.3,0,0.7,0.1,0.9,0.1c0.1,0,0.2,0.1,0.2,0.2
			c0,0.1-0.1,0.2-0.3,0.2c-1.1,0-2.4-0.1-2.5-0.1c0,0-1.4,0.1-2,0.1c-0.2,0-0.3,0-0.3-0.2c0-0.1,0-0.2,0.2-0.2c0.2,0,0.4,0,0.6-0.1
			c0.4-0.1,0.4-0.5,0.5-1.1c0.1-0.8,0.1-2.4,0.1-4.3V50.9z M168.1,52.5c0,0.1,0,0.2,0.1,0.3c0.3,0.2,1.4,0.3,2.3,0.3
			c0.5,0,1.1,0,1.5-0.3c0.7-0.5,1.2-1.5,1.2-3c0-2.5-1.4-3.9-3.5-3.9c-0.6,0-1.3,0.1-1.5,0.1c-0.1,0-0.2,0.1-0.2,0.2V52.5z"/>
		<path d="M180.1,59.9c-0.3-0.1-0.3-0.2-0.3-0.7c0-1,0.1-1.8,0.1-2.1c0-0.2,0-0.3,0.2-0.3c0.1,0,0.2,0.1,0.2,0.2
			c0,0.2,0,0.4,0.1,0.7c0.3,1.4,1.9,2,3.2,2c2,0,3.1-1.1,3.1-2.6c0-1.4-0.8-2.1-2.6-3.5l-0.9-0.7c-2.2-1.7-2.9-2.9-2.9-4.2
			c0-2.3,1.8-3.7,4.6-3.7c0.8,0,1.6,0.1,2.1,0.2c0.4,0.1,0.6,0.1,0.7,0.1c0.2,0,0.2,0,0.2,0.1c0,0.1-0.1,0.7-0.1,2.1
			c0,0.3,0,0.4-0.2,0.4c-0.1,0-0.2-0.1-0.2-0.3c0-0.2-0.2-0.8-0.3-1c-0.1-0.2-0.8-1-2.7-1c-1.5,0-2.7,0.7-2.7,2.1
			c0,1.3,0.6,2,2.7,3.4l0.6,0.4c2.5,1.7,3.4,3.1,3.4,4.8c0,1.2-0.4,2.4-1.9,3.4c-0.9,0.6-2.1,0.7-3.3,0.7
			C182.1,60.4,180.9,60.3,180.1,59.9z"/>
		<path d="M195.4,54.4c0,1.9,0,3.5,0.1,4.3c0.1,0.6,0.1,1,0.7,1.1c0.3,0,0.7,0.1,0.9,0.1c0.1,0,0.2,0.1,0.2,0.2
			c0,0.1-0.1,0.2-0.3,0.2c-1.1,0-2.5-0.1-2.6-0.1c-0.1,0-1.4,0.1-2,0.1c-0.2,0-0.3,0-0.3-0.2c0-0.1,0-0.2,0.2-0.2
			c0.2,0,0.4,0,0.6-0.1c0.4-0.1,0.5-0.5,0.5-1.1c0.1-0.8,0.1-2.4,0.1-4.3v-3.5c0-3.1,0-3.6,0-4.3c0-0.7-0.2-1-0.7-1.1
			c-0.2,0-0.5-0.1-0.6-0.1c-0.1,0-0.2-0.1-0.2-0.2c0-0.1,0.1-0.2,0.3-0.2c0.7,0,2,0,2.1,0c0.1,0,1.4,0,2.1,0c0.2,0,0.3,0,0.3,0.2
			c0,0.1-0.1,0.2-0.2,0.2c-0.1,0-0.3,0-0.5,0c-0.6,0.1-0.7,0.4-0.7,1.1c0,0.6,0,1.2,0,4.3V54.4z"/>
		<path d="M207.1,54.4c0,1.9,0,3.5,0.1,4.3c0.1,0.6,0.2,1,0.8,1.1c0.3,0,0.7,0.1,0.9,0.1c0.1,0,0.2,0.1,0.2,0.2
			c0,0.1-0.1,0.2-0.3,0.2c-1.1,0-2.4-0.1-2.5-0.1c-0.1,0-1.5,0.1-2.1,0.1c-0.2,0-0.3,0-0.3-0.2c0-0.1,0-0.1,0.2-0.1
			c0.2,0,0.4,0,0.6-0.1c0.4-0.1,0.5-0.5,0.6-1.1c0.1-0.8,0.1-2.4,0.1-4.3V46l-3,0c-1.3,0-1.8,0.2-2.1,0.6c-0.2,0.3-0.3,0.5-0.3,0.6
			c0,0.2-0.1,0.2-0.2,0.2c0,0-0.1,0-0.1-0.2c0-0.2,0.4-2,0.4-2.1c0-0.1,0.1-0.4,0.2-0.4c0.1,0,0.4,0.2,0.9,0.2
			c0.6,0.1,1.4,0.1,1.6,0.1h7.8c0.7,0,1.1,0,1.5-0.1c0.3,0,0.5-0.1,0.6-0.1c0.1,0,0.1,0.1,0.1,0.2c0,0.6-0.1,2-0.1,2.3
			c0,0.2-0.1,0.3-0.2,0.3c-0.1,0-0.1-0.1-0.2-0.4l0-0.2c-0.1-0.6-0.5-1-2.5-1.1l-2.6,0V54.4z"/>
		<path d="M219.7,55c0-1.1-0.1-1.5-0.4-2c-0.2-0.3-2.9-4.7-3.6-5.8c-0.5-0.7-1-1.2-1.4-1.4c-0.3-0.2-0.7-0.3-0.9-0.3
			c-0.1,0-0.2-0.1-0.2-0.2c0-0.1,0.1-0.1,0.3-0.1c0.4,0,1.9,0,2,0c0.1,0,1,0,1.8,0c0.2,0,0.3,0,0.3,0.1c0,0.1-0.1,0.1-0.3,0.2
			c-0.2,0.1-0.3,0.2-0.3,0.3c0,0.3,0.1,0.5,0.3,0.8l3.7,6.2c0.4-0.8,3-5.1,3.4-5.7c0.3-0.4,0.3-0.8,0.3-1c0-0.3-0.1-0.4-0.3-0.5
			c-0.2,0-0.3-0.1-0.3-0.2c0-0.1,0.1-0.1,0.3-0.1c0.5,0,1.3,0,1.4,0c0.1,0,1.6,0,2,0c0.1,0,0.3,0,0.3,0.1c0,0.1-0.1,0.2-0.3,0.2
			c-0.2,0-0.6,0.1-1,0.3c-0.4,0.2-0.6,0.4-1,1c-0.7,0.8-3.6,5.5-4,6.3c-0.4,0.7-0.3,1.3-0.3,2v1.7c0,0.3,0,1.2,0.1,2
			c0,0.6,0.2,1,0.8,1.1c0.3,0,0.7,0.1,0.9,0.1c0.1,0,0.2,0.1,0.2,0.2c0,0.1-0.1,0.2-0.3,0.2c-1.1,0-2.5-0.1-2.6-0.1
			c-0.1,0-1.4,0.1-2,0.1c-0.2,0-0.3,0-0.3-0.2c0-0.1,0-0.2,0.2-0.2c0.2,0,0.4,0,0.6-0.1c0.4-0.1,0.6-0.5,0.6-1.1c0-0.8,0-1.7,0-2V55
			z"/>
	</g>
	<g>
		<path d="M135.7,77.1c0-0.4,0.1-1,0.2-1.3c0.1-0.1,0.2-0.1,0.2,0c0.1,1,0.5,1.7,1.6,1.7c0.7,0,1.6-0.5,1.6-1.6
			c0-0.8-0.5-1.3-1.1-1.7c-0.6-0.5-1.2-1.1-1.2-1.9c0-1.2,1-2.1,2.4-2.1c0.7,0,1.4,0.3,1.6,0.4c-0.2,0.3-0.3,0.9-0.4,1.3
			c-0.1,0.1-0.2,0.1-0.3,0c0.2-0.8-0.1-1.4-1-1.4c-1,0-1.5,0.7-1.5,1.4c0,0.7,0.7,1.3,1.1,1.6c0.7,0.5,1.2,1.1,1.2,2
			c0,1.3-1,2.3-2.6,2.3C136.9,77.9,136.1,77.7,135.7,77.1z"/>
		<path d="M142.4,74.1c0.1-0.1,0.1-0.2,0-0.2c-0.1,0-0.4,0.1-0.9,0.6c-0.1,0-0.2-0.1-0.1-0.2c0.6-0.7,1.5-1.1,1.8-1.1
			c0.1,0,0.1,0.1,0.2,0.1c0.1,0.1,0.1,0.2-0.1,0.5l-1.3,3.2c0,0.1-0.1,0.2,0,0.2c0.2,0,0.8-0.4,1.2-0.8c0.1,0,0.2,0.1,0.2,0.2
			c-0.2,0.3-1.3,1.3-2.1,1.3c-0.1,0-0.1,0-0.2-0.1c-0.1-0.1-0.1-0.2,0-0.3L142.4,74.1z M143.7,71.3c0,0.3-0.2,0.7-0.6,0.7
			c-0.3,0-0.4-0.2-0.4-0.4c0-0.2,0.2-0.7,0.6-0.7C143.6,70.9,143.7,71.1,143.7,71.3z"/>
		<path d="M145.5,75.6L145.5,75.6c0.8-1.2,1.9-2.4,2.8-2.4c0.4,0,0.6,0.2,0.6,0.6c0,0.2-0.1,0.5-0.2,0.8c-0.2,0.6-1,2.4-1,2.5
			c0,0.1-0.1,0.2,0,0.2c0.2,0,0.7-0.4,1-0.8c0.2,0,0.2,0.1,0.2,0.2c-0.4,0.7-1.3,1.2-1.9,1.2c-0.1,0-0.3-0.1-0.3-0.3
			c0-0.1,0-0.2,0.3-0.7c0.2-0.5,0.6-1.6,0.9-2.2c0.1-0.2,0.2-0.6,0.2-0.8c0-0.1,0-0.3-0.2-0.3c-0.3,0-0.9,0.6-1.5,1.3
			c-0.6,0.7-1,1.6-1.7,2.8c-0.1,0.1-0.1,0.1-0.2,0.1c-0.1,0-0.4,0-0.3-0.3c0.1-0.1,1.2-3.3,1.3-3.5c0.1-0.1,0.1-0.3,0-0.3
			c-0.3,0-0.6,0.2-1,0.6c-0.1,0-0.1-0.1-0.1-0.2c0.4-0.6,1.1-1,1.7-1c0.3,0,0.4,0.2,0.3,0.5L145.5,75.6z"/>
		<path d="M153.3,73.9c0,0.4-0.4,0.5-0.5,0.5c-0.1,0-0.2-0.1-0.2-0.2c0-0.3,0-0.6-0.4-0.6c-0.2,0-0.6,0.2-0.9,0.7
			c-0.4,0.5-0.7,1.4-0.7,2.3c0,0.6,0.2,0.7,0.5,0.7c0.4,0,0.8-0.3,1.2-0.7c0.1,0,0.2,0.1,0.1,0.2c-0.4,0.6-1.1,1-1.8,1
			c-0.4,0-0.8-0.3-0.8-1.2c0-0.7,0.4-2,1.4-2.9c0.5-0.4,0.9-0.6,1.4-0.6C153,73.2,153.3,73.5,153.3,73.9z"/>
		<path d="M157,73.9c0,0.8-1.1,1.4-2.7,1.8c-0.1,0.2-0.2,0.5-0.2,1c0,0.4,0.2,0.6,0.5,0.6c0.4,0,0.7-0.2,1.2-0.6
			c0.1,0,0.2,0.1,0.1,0.2c-0.7,0.8-1.3,1-1.8,1c-0.7,0-0.9-0.6-0.9-1.2c0-0.7,0.4-2.1,1.7-3c0.6-0.4,1-0.5,1.3-0.5
			C156.8,73.2,157,73.6,157,73.9z M155.3,74.1c-0.4,0.5-0.7,1-0.8,1.3c0.7-0.2,1.1-0.4,1.5-0.8c0.3-0.3,0.4-0.7,0.4-0.8
			c0-0.1-0.1-0.3-0.3-0.3C155.9,73.5,155.7,73.6,155.3,74.1z"/>
		<path d="M162.7,76.4c-0.3,0.9-0.2,1,0.4,1.1l0.3,0c0.1,0.1,0.1,0.2,0,0.3c-0.6,0-1,0-1.4,0c-0.4,0-0.9,0-1.4,0
			c-0.1-0.1-0.1-0.2,0-0.3l0.3,0c0.7-0.1,0.8-0.3,1.1-1.1l1.1-3.7c0.3-0.9,0.2-1-0.2-1.1l-0.5-0.1c-0.1-0.1,0-0.2,0-0.2
			c1-0.2,1.6-0.4,2-0.6c0.1,0,0.1,0,0.1,0.1c-0.1,0.4-0.3,0.9-0.5,1.3L162.7,76.4z"/>
		<path d="M165.6,76.2c0-1.3,1.2-1.7,2.1-2.2c-0.5-0.3-0.9-0.9-0.9-1.4c0-1.1,1-2,2.1-2c1.1,0,1.8,0.7,1.8,1.6
			c0,0.9-0.9,1.3-1.7,1.7c0.6,0.4,1.1,1,1.1,1.8c0,1.3-1.2,2.1-2.4,2.1C166.6,77.9,165.6,77.3,165.6,76.2z M169.3,76
			c0-0.9-0.6-1.4-1.2-1.7c-0.9,0.5-1.6,1.1-1.6,2c0,1,0.6,1.4,1.3,1.4C168.5,77.6,169.3,77,169.3,76z M169,70.9
			c-0.7,0-1.3,0.5-1.3,1.4c0,0.7,0.5,1,1.1,1.4c0.6-0.4,1.2-0.9,1.2-1.6C170,71.4,169.6,70.9,169,70.9z"/>
		<path d="M173.5,74.1c-0.1-0.1-0.1-0.2,0-0.2c0.3-0.2,0.7-0.3,1-0.3c0.9,0,1.6,0.6,1.6,1.8c0,1.2-1.1,2.5-2.7,2.5
			c-1.4,0-2.1-0.8-2.1-2.2c0-1.6,1.1-3.3,2.3-4.2c1.6-1.2,3.1-1.4,3.9-1.5c0.1,0,0.1,0.2,0,0.2c-0.8,0.2-1.8,0.4-2.9,1.2
			c-1.5,1.1-2.4,3-2.4,4.4c0,1,0.3,1.6,1.2,1.6c1,0,1.6-1.3,1.6-2.3c0-0.8-0.4-1.3-1-1.3C173.9,74,173.6,74.1,173.5,74.1z"/>
		<path d="M176.8,76.2c0-1.3,1.2-1.7,2.1-2.2c-0.5-0.3-0.9-0.9-0.9-1.4c0-1.1,1-2,2.1-2c1.1,0,1.8,0.7,1.8,1.6
			c0,0.9-0.9,1.3-1.7,1.7c0.6,0.4,1.1,1,1.1,1.8c0,1.3-1.2,2.1-2.4,2.1C177.7,77.9,176.8,77.3,176.8,76.2z M180.4,76
			c0-0.9-0.6-1.4-1.2-1.7c-0.9,0.5-1.6,1.1-1.6,2c0,1,0.6,1.4,1.3,1.4C179.7,77.6,180.4,77,180.4,76z M180.1,70.9
			c-0.7,0-1.3,0.5-1.3,1.4c0,0.7,0.5,1,1.1,1.4c0.6-0.4,1.2-0.9,1.2-1.6C181.1,71.4,180.8,70.9,180.1,70.9z"/>
	</g>
	<g>
		<g>
			<path fill="none" d="M40.7,45v8l2.8,2.9v-4.8c0-1.8,0-4.8-0.3-5.7c-0.3-0.1-1.1-0.3-2.3-0.4C40.8,45,40.8,45,40.7,45z"/>
			<path fill="none" d="M56.1,71V44.3c-0.5,0.4-1,0.6-1.6,0.7l-0.1,0l-0.1,0c-1.4,0.1-1.9,0.3-2.2,0.3c-0.3,0.8-0.3,3.3-0.3,5.7v8.1
				l0,0v4.1C51.9,67.2,54,69.6,56.1,71z"/>
			<path fill="none" d="M40.7,38c0.2,0,0.3,0,0.5,0c0.2,0,0.3,0,0.5,0c2.1,0.3,3.3,0.3,6.6,0.3c2.5,0,3.9-0.1,5.3-0.3l0.1,0l0.1,0
				c0.1,0,0.2,0,0.3,0c0.8,0,1.5,0.2,2,0.7v-4.1H40.7V38z"/>
			<path fill="none" d="M71.8,64.2V50.6c0-1.2,0-4.3-0.4-5.1c-0.2-0.1-0.8-0.3-2.5-0.5l-0.1,0l-0.1,0c-0.6-0.1-1-0.4-1.4-0.7v28.2
				C70.3,71.4,71.8,68.7,71.8,64.2z"/>
			<path fill="#C4232A" d="M82.4,41C82.4,41,82.3,41,82.4,41c-1.8,0.2-3.5,0.3-5.8,0.3c-3.4,0-4.8-0.1-7.2-0.3c0,0,0,0,0,0
				c-0.5,0-0.3,0.9,0,1c5.1,0.6,5.6,1.4,5.6,8.6v13.6c0,7.5-3.7,11.6-10.7,11.9V20.7c0-8.2-0.2-8.6,5.7-9.1c0.3,0,0.4-1,0-1
				c0,0,0,0-0.1,0C68,10.9,64.7,11,62.3,11c-3.4,0-5.5-0.1-7.9-0.3c0,0,0,0-0.1,0c-0.4,0-0.2,0.9,0.1,1c4.4,0.5,4.8,0.6,4.8,9.1v9.1
				H37.6v-9.1c0-8.1,0.1-8.7,4.8-9.1c0.2,0,0.4-1-0.1-1c0,0,0,0,0,0c-1.8,0.2-4,0.3-6.5,0.3c-3.2,0-6.4-0.1-8.9-0.3c0,0,0,0-0.1,0
				c-0.4,0-0.2,0.9,0.1,1c5.7,0.7,5.8,0.5,5.8,9.1V49L19.5,35.1c-3.3,0-5.6-0.1-8-0.4c0,0,0,0,0,0c-0.5,0-0.2,1,0,1
				c2.7,0.3,6.4,3.6,6.4,6.2v19.9c0,7.9-0.3,8.5-5.3,9c-0.2,0-0.5,1.1,0,1.1c0,0,0,0,0,0c2.4-0.3,3.7-0.3,7.1-0.3
				c2.4,0,3.9,0.1,5.7,0.3c0,0,0,0,0,0c0.5,0,0.2-1.1,0.1-1.1c-5.3-0.4-5.3-1.4-5.3-9V43l27.6,28.9c1.1,1.3,7.8,7.1,13.8,7.1
				c10.1,0,15.3-6.5,15.3-14.2V50.6c0-6.9,0.2-8.1,5.5-8.6C82.7,42,82.9,41,82.4,41z M59.2,75.6c-5.1-1.3-10.3-5.2-10.3-12.4l0,0
				c0-0.5,0-1,0-1.5V51.1c0-7.6,0-8.6,5.2-9.1c0.4-0.1,0.6-1,0-1c0,0,0,0-0.1,0c-1.7,0.2-3.3,0.3-5.7,0.3c-3.3,0-4.7-0.1-7-0.3
				c0,0,0,0-0.1,0c-0.4,0-0.2,1,0,1c5.1,0.6,5.3,1.2,5.3,9.1v12.5l-8.9-9.3V31.4h21.5V75.6z"/>
			<path fill="#B6B8BA" d="M85.2,39.2c-0.6-1-1.7-1.5-2.8-1.5h-0.2l-0.2,0l0,0l0,0c-1.8,0.2-3.3,0.3-5.4,0.3c-3.3,0-4.6-0.1-6.9-0.3
				l0,0l0,0l-0.2,0l-0.2,0c-0.8,0-1.5,0.2-2,0.7V20.4v-0.7c0-2.1,0-4.2,0.2-5c0.6-0.2,2-0.3,2.7-0.4c1.8-0.1,3.1-1.7,3.1-3.6
				c0-2-1.5-3.5-3.3-3.5c-0.2,0-0.3,0-0.5,0c-1.7,0.2-4.8,0.3-7.1,0.3c-3.1,0-5.2,0-7.5-0.3c-0.2,0-0.3,0-0.5,0c0,0,0,0,0,0
				c-1.7,0-3.1,1.3-3.3,3c-0.2,1.6,0.7,3.6,2.7,4l0.1,0l0.1,0c0.6,0.1,1.4,0.2,1.8,0.3c0.3,1.1,0.3,4.2,0.3,5.8v6.1H40.7v-6.1
				c0-2.2,0-4.8,0.2-5.8c0.3-0.1,0.9-0.1,1.7-0.2c1.7-0.1,3.1-1.7,3.1-3.6c0-1.9-1.5-3.4-3.4-3.4h-0.2l-0.2,0l0,0l0,0
				c-1.6,0.2-3.7,0.3-6.1,0.3c-2.6,0-6,0-8.4-0.3c-0.2,0-0.3,0-0.5,0h0c-1.7,0-3.1,1.3-3.3,3c-0.2,1.6,0.7,3.6,2.7,4l0.1,0l0.1,0
				l0.4,0.1c0.9,0.1,1.9,0.2,2.5,0.4c0.2,0.9,0.2,3.3,0.2,5.6v20.7l-7.9-8.3l-0.9-0.9h-1.3c-3.2,0-5.3-0.1-7.6-0.4l0,0l0,0l-0.2,0
				l-0.2,0c-1.2,0-2.3,0.6-2.9,1.6c-0.8,1.3-0.4,2.9,0.1,3.8c0.5,0.9,1.4,1.5,2.4,1.6c1.4,0.2,3.5,2.2,3.7,3.2l0,19.9
				c0,1.7,0,4.7-0.3,5.6c-0.3,0.1-1.1,0.2-2.2,0.3c-1.8,0.1-3.1,1.7-3.1,3.8c0,0.7,0.2,1.3,0.5,1.9c0.6,1,1.7,1.6,2.8,1.6h0.2l0.2,0
				l0,0l0,0c2.2-0.3,3.4-0.3,6.7-0.3c2.4,0,3.8,0.1,5.3,0.3l0,0l0,0l0.1,0l0.2,0c1.2,0,2.3-0.6,2.9-1.6c0.3-0.6,0.5-1.2,0.5-1.9
				c0-2-1.3-3.6-3.1-3.7c-1.3-0.1-1.9-0.2-2.2-0.3c-0.3-0.8-0.3-3.2-0.3-5.6V50.3l22.1,23.1c4.3,4.9,9.3,8.3,16.2,8.3
				C74.3,81.7,80,73,80,64.5V50.3c0-1.7,0-4.4,0.3-5.1c0.2-0.1,0.7-0.3,2.3-0.4c1.8-0.1,3.1-1.6,3.1-3.6
				C85.8,40.4,85.6,39.8,85.2,39.2z M76.9,50.6v14.2c0,7.7-5.2,14.2-15.3,14.2c-5.7,0-11.4-4.4-13.8-7.1L20.2,43v18.9
				c0,7.6,0,8.6,5.3,9c0.2,0,0.4,1.1-0.1,1.1c0,0,0,0,0,0c-1.8-0.2-3.3-0.3-5.7-0.3c-3.4,0-4.7,0.1-7.1,0.3c0,0,0,0,0,0
				c-0.5,0-0.2-1.1,0-1.1c5.1-0.5,5.3-1.1,5.3-9V41.9c0-2.6-3.7-5.8-6.4-6.2c-0.2,0-0.5-1,0-1c0,0,0,0,0,0c2.4,0.3,4.6,0.4,8,0.4
				L32.7,49V20.7c0-8.6-0.1-8.4-5.8-9.1c-0.3-0.1-0.4-1-0.1-1c0,0,0,0,0.1,0c2.4,0.3,5.6,0.3,8.9,0.3c2.5,0,4.8-0.1,6.5-0.3
				c0,0,0,0,0,0c0.5,0,0.2,1,0.1,1c-4.7,0.4-4.8,1-4.8,9.1v9.1h21.5v-9.1c0-8.5-0.4-8.6-4.8-9.1c-0.3-0.1-0.4-1-0.1-1c0,0,0,0,0.1,0
				c2.4,0.3,4.5,0.3,7.9,0.3c2.4,0,5.7-0.1,7.6-0.3c0,0,0,0,0.1,0c0.4,0,0.3,1,0,1c-5.9,0.5-5.7,0.9-5.7,9.1v55.4
				c7-0.4,10.7-4.5,10.7-11.9V50.6c0-7.2-0.5-8-5.6-8.6c-0.3-0.1-0.5-1,0-1c0,0,0,0,0,0c2.4,0.3,3.9,0.3,7.2,0.3
				c2.4,0,4-0.1,5.8-0.3c0,0,0,0,0,0c0.5,0,0.3,1,0.1,1C77.2,42.4,76.9,43.7,76.9,50.6z M67.2,44.3c0.4,0.3,0.9,0.6,1.4,0.7l0.1,0
				l0.1,0c1.7,0.2,2.3,0.4,2.5,0.5c0.4,0.7,0.4,3.9,0.4,5.1v13.6c0,4.5-1.4,7.2-4.5,8.3V44.3z"/>
			<path fill="#ABABAB" d="M37.6,54.2l8.9,9.3V51.1c0-7.9-0.2-8.5-5.3-9.1c-0.2,0-0.4-1,0-1c0,0,0,0,0.1,0c2.4,0.3,3.7,0.3,7,0.3
				c2.4,0,4-0.1,5.7-0.3c0,0,0,0,0.1,0c0.6,0,0.4,0.9,0,1c-5.2,0.5-5.2,1.5-5.2,9.1v10.8c0,0.4,0,0.9,0,1.5l0,0
				c0,7.1,5.2,11,10.3,12.4V31.4H37.6V54.2z M51.9,59.2v-8.1c0-2.4,0-4.9,0.3-5.7c0.2-0.1,0.8-0.2,2.2-0.3l0.1,0l0.1,0
				c0.6-0.1,1.1-0.3,1.6-0.7V71c-2.1-1.4-4.2-3.8-4.2-7.7L51.9,59.2L51.9,59.2z M56.1,38.3c-0.6-0.4-1.3-0.7-2-0.7
				c-0.1,0-0.2,0-0.3,0l-0.1,0l-0.1,0c-1.4,0.2-2.8,0.3-5.3,0.3c-3.3,0-4.4-0.1-6.6-0.3c-0.2,0-0.3,0-0.5,0c-0.2,0-0.3,0-0.5,0v-3.5
				h15.4V38.3z M43.5,51.1v4.8L40.7,53v-8c0.1,0,0.1,0,0.2,0c1.2,0.1,1.9,0.3,2.3,0.4C43.5,46.3,43.5,49.3,43.5,51.1z"/>
		</g>
		<g>
			<path fill="none" d="M44.4,50.2c0-2.5,0-5.4-0.5-6.2c-0.2-0.4-1.3-0.6-2.9-0.7c-0.4,0-0.9-0.2-1.2-0.5v9.8l4.6,4.8V50.2z"/>
			<path fill="none" d="M39.8,38.5c0.4-0.3,0.9-0.5,1.4-0.5l0,0c0.1,0,0.3,0,0.4,0c2.2,0.3,3.5,0.3,6.7,0.3c2.2,0,3.7-0.1,5.5-0.3
				l0,0l0,0c0.1,0,0.2,0,0.2,0c1.3,0,2.4,1,2.5,2.3c0.1,1.4-0.9,2.7-2.2,2.9l-0.1,0l-0.1,0c-2.3,0.2-2.7,0.5-2.9,0.7
				C51,44.8,51,47.1,51,50.2v9.1l0,0v3.2c0,5.3,3.3,8,6,9.3v-39H39.8V38.5z"/>
			<path fill="#C22033" d="M82.4,41.1c0.3,0,0.4-1-0.1-1c0,0,0,0,0,0c-1.8,0.2-3.4,0.3-5.8,0.3c-3.4,0-4.8-0.1-7.2-0.3c0,0,0,0,0,0
				c-0.5,0-0.3,0.9,0,1c5.1,0.6,5.6,1.4,5.6,8.6v13.6c0,7.5-3.7,11.3-10.7,11.6V19.9c0-8.2-0.2-8.6,5.7-9.1c0.3,0,0.4-1,0-1
				c0,0,0,0-0.1,0c-1.8,0.2-5.2,0.3-7.6,0.3c-3.4,0-5.5-0.1-7.9-0.3c0,0,0,0-0.1,0c-0.4,0-0.2,0.9,0.1,1c4.4,0.5,4.8,0.6,4.8,9.1V29
				H37.6v-9.1c0-8.1,0.1-8.7,4.8-9.1c0.2,0,0.4-1-0.1-1c0,0,0,0,0,0c-1.8,0.2-4,0.3-6.5,0.3c-3.2,0-6.4-0.1-8.9-0.3c0,0,0,0-0.1,0
				c-0.4,0-0.2,0.9,0.1,1c5.7,0.7,5.8,0.5,5.8,9.1v28.3L19.5,34.3c-3.3,0-5.6-0.1-8-0.4c0,0,0,0,0,0c-0.5,0-0.2,1,0,1
				c2.7,0.3,6.4,3.6,6.4,6.2V61c0,7.9-0.3,8.5-5.3,9c-0.2,0-0.5,1.1,0,1.1c0,0,0,0,0,0c2.4-0.3,3.7-0.3,7.1-0.3
				c2.4,0,3.9,0.1,5.7,0.3c0,0,0,0,0,0c0.5,0,0.2-1.1,0.1-1.1c-5.3-0.4-5.3-1.4-5.3-9V42.1L47.8,71c4.6,4.3,8.7,7.1,13.8,7.1
				c10.1,0,15.3-6.5,15.3-14.2V49.7C76.9,42.8,77.2,41.6,82.4,41.1z M59.2,74.8c-5.1-1.3-10.3-5.2-10.3-12.4l0,0c0-0.5,0-1,0-1.5
				V50.2c0-7.6,0-8.6,5.2-9.1c0.4-0.1,0.6-1,0-1c0,0,0,0-0.1,0c-1.7,0.2-3.3,0.3-5.7,0.3c-3.3,0-4.7-0.1-7-0.3c0,0,0,0-0.1,0
				c-0.4,0-0.2,1,0,1c5.1,0.6,5.3,1.2,5.3,9.1v12.5l-8.9-9.3V30.6h21.5V74.8z"/>
			<path fill="#DBDCD6" d="M84.4,39.1c-0.4-0.7-1.2-1.1-2-1.1h-0.1l-0.1,0l0,0l0,0c-1.8,0.2-3.4,0.3-5.5,0.3c-3.4,0-4.7-0.1-7-0.3
				l-0.1,0l-0.2,0l0,0C68,38,67,39,66.8,40.3c-0.1,1.2,0.6,2.7,2,3l0.1,0l0.1,0c2,0.2,2.9,0.5,3.1,0.8c0.5,0.8,0.5,3.3,0.5,5.6v13.6
				c0,5.5-2,8.6-6.4,9.5v-53v-0.7c0-2.8,0-5.1,0.4-5.7c0.2-0.3,2.5-0.5,3.4-0.6c1.3-0.1,2.2-1.2,2.2-2.7c0-1.5-1-2.6-2.4-2.6
				c-0.1,0-0.3,0-0.4,0C67.8,7.9,64.6,8,62.3,8c-3.2,0-5.2,0-7.6-0.3c-0.1,0-0.3,0-0.4,0c-1.2,0-2.2,0.9-2.3,2.2
				c-0.1,1.2,0.5,2.7,2,3l0.1,0l0.1,0c0.9,0.1,2.2,0.3,2.4,0.4c0.5,0.5,0.5,4.6,0.5,6.5v7H39.8v-7c0-2.9,0-5.7,0.4-6.5
				c0.1-0.3,1.7-0.4,2.4-0.5c1.3-0.1,2.2-1.2,2.2-2.7c0-1.4-1-2.5-2.4-2.5h-0.1l-0.1,0l0,0l0,0C40.4,7.9,38.2,8,35.8,8
				c-2.7,0-6.1,0-8.5-0.3c-0.1,0-0.3,0-0.4,0c-1.2,0-2.2,0.9-2.3,2.2c-0.1,1.2,0.5,2.7,2,3l0.1,0l0.1,0l0.4,0.1
				c1.3,0.2,2.8,0.3,3.1,0.6c0.4,0.5,0.4,3.5,0.4,6.4v23l-9.5-10l-0.6-0.7h-0.9c-3.2,0-5.4-0.1-7.7-0.4l-0.1,0l-0.2,0
				c-0.9,0-1.6,0.4-2.1,1.2c-0.6,1-0.3,2.2,0.1,2.9c0.4,0.7,1,1.1,1.7,1.2c1.9,0.3,4.5,2.8,4.5,4.1V61c0,2.4,0,5.4-0.5,6.2
				c-0.2,0.3-1.3,0.5-2.9,0.7c-1.5,0.1-2.2,1.5-2.2,2.8c0,1.4,1,2.5,2.4,2.5h0.1l0.1,0c2.3-0.3,3.5-0.3,6.9-0.3
				c2.4,0,3.9,0.1,5.4,0.3l0,0l0,0l0.1,0l0.1,0c0.9,0,1.6-0.4,2.1-1.2c0.2-0.4,0.4-0.9,0.4-1.4c0-1.6-0.9-2.7-2.2-2.8
				c-1.8-0.1-2.7-0.3-2.9-0.7c-0.4-0.8-0.4-3.2-0.4-6.2V47.5l23.8,24.9c4.6,4.6,8.8,7.9,15.5,7.9c12.1,0,17.5-8.2,17.5-16.3V49.7
				c0-2.2,0-4.8,0.5-5.6c0.2-0.3,0.7-0.6,3-0.8c1.3-0.1,2.3-1.2,2.3-2.7C84.8,40.1,84.7,39.6,84.4,39.1z M76.9,63.9
				c0,7.7-5.2,14.4-15.3,14.2c-6-0.1-10.7-4-13.8-7.1L20.2,42.1V61c0,7.6,0,8.6,5.3,9c0.2,0,0.4,1.1-0.1,1.1c0,0,0,0,0,0
				c-1.8-0.2-3.3-0.3-5.7-0.3c-3.4,0-4.7,0.1-7.1,0.3c0,0,0,0,0,0c-0.5,0-0.2-1.1,0-1.1c5.1-0.5,5.3-1.1,5.3-9V41.1
				c0-2.6-3.7-5.8-6.4-6.2c-0.2,0-0.5-1,0-1c0,0,0,0,0,0c2.4,0.3,4.6,0.4,8,0.4l13.2,13.9V19.9c0-8.6-0.1-8.4-5.8-9.1
				c-0.3-0.1-0.4-1-0.1-1c0,0,0,0,0.1,0c2.4,0.3,5.6,0.3,8.9,0.3c2.5,0,4.8-0.1,6.5-0.3c0,0,0,0,0,0c0.5,0,0.2,1,0.1,1
				c-4.7,0.4-4.8,1-4.8,9.1V29h21.5v-9.1c0-8.5-0.4-8.6-4.8-9.1c-0.3-0.1-0.4-1-0.1-1c0,0,0,0,0.1,0c2.4,0.3,4.5,0.3,7.9,0.3
				c2.4,0,5.7-0.1,7.6-0.3c0,0,0,0,0.1,0c0.4,0,0.3,1,0,1c-5.9,0.5-5.7,0.9-5.7,9.1V75c7-0.4,10.7-4.2,10.7-11.6V49.7
				c0-7.2-0.5-8-5.6-8.6c-0.3-0.1-0.5-1,0-1c0,0,0,0,0,0c2.4,0.3,3.9,0.3,7.2,0.3c2.4,0,4-0.1,5.8-0.3c0,0,0,0,0,0
				c0.5,0,0.3,1,0.1,1c-5.3,0.5-5.5,1.7-5.5,8.6V63.9z"/>
			<path fill="#DBDCD6" d="M37.6,53.4l8.9,9.3V50.2c0-7.9-0.2-8.5-5.3-9.1c-0.2,0-0.4-1,0-1c0,0,0,0,0.1,0c2.4,0.3,3.7,0.3,7,0.3
				c2.4,0,4-0.1,5.7-0.3c0,0,0,0,0.1,0c0.6,0,0.4,0.9,0,1c-5.2,0.5-5.2,1.5-5.2,9.1V61c0,0.4,0,0.9,0,1.5l0,0
				c0,7.1,5.2,11,10.3,12.4V30.6H37.6V53.4z M57,71.7c-2.7-1.3-6-4-6-9.3v-3.2l0,0v-9.1c0-3.1,0-5.4,0.4-6.2
				c0.1-0.2,0.6-0.5,2.9-0.7l0.1,0l0.1,0c1.3-0.2,2.3-1.5,2.2-2.9C56.5,39,55.4,38,54.1,38c-0.1,0-0.2,0-0.2,0l0,0l0,0
				c-1.7,0.2-3.3,0.3-5.5,0.3c-3.3,0-4.5-0.1-6.7-0.3c-0.1,0-0.3,0-0.4,0l0,0c-0.5,0-1,0.2-1.4,0.5v-5.8H57V71.7z M39.8,42.8
				c0.3,0.3,0.8,0.5,1.2,0.5c1.6,0.2,2.7,0.4,2.9,0.7c0.5,0.8,0.5,3.7,0.5,6.2v7.1l-4.6-4.8V42.8z"/>
		</g>
	</g>
</g>
</svg>
