<?xml version="1.0" encoding="utf-8"?>
<!-- Generator: Adobe Illustrator 17.1.0, SVG Export Plug-In . SVG Version: 6.00 Build 0)  -->
<!DOCTYPE svg PUBLIC "-//W3C//DTD SVG 1.1//EN" "http://www.w3.org/Graphics/SVG/1.1/DTD/svg11.dtd">
<svg version="1.1" id="Layer_1" xmlns="http://www.w3.org/2000/svg" xmlns:xlink="http://www.w3.org/1999/xlink" x="0px" y="0px"
	 viewBox="0 0 50 50" enable-background="new 0 0 50 50" xml:space="preserve">
<g>
	<path fill="#B60430" d="M19.6,32.6c-2.8,0-4.2-2-4.2-4.9c0-3.7,2.6-8.2,6.1-10.3l1.6,1.3c-1.5,1.5-2.6,3.6-3.1,5.5
		c1.4,1.3,3.5,2.2,3.5,4.7C23.4,30.7,22,32.6,19.6,32.6z M30.8,32.6c-2.7,0-4.2-2-4.2-4.9c0-3.7,2.6-8.2,6.1-10.3l1.5,1.3
		c-1.4,1.5-2.6,3.6-3.1,5.5c1.4,1.3,3.5,2.2,3.5,4.7C34.6,30.7,33.2,32.6,30.8,32.6z"/>
</g>
</svg>
