<?xml version="1.0" encoding="utf-8"?>
<!-- Generator: Adobe Illustrator 17.1.0, SVG Export Plug-In . SVG Version: 6.00 Build 0)  -->
<!DOCTYPE svg PUBLIC "-//W3C//DTD SVG 1.1//EN" "http://www.w3.org/Graphics/SVG/1.1/DTD/svg11.dtd">
<svg version="1.1" id="Layer_1" xmlns="http://www.w3.org/2000/svg" xmlns:xlink="http://www.w3.org/1999/xlink" x="0px" y="0px"
	 viewBox="0 0 92 119" enable-background="new 0 0 92 119" xml:space="preserve">
<g>
	<g>
		<path d="M17.7,91.7c0,1.1,0,1.9,0.1,2.4c0,0.3,0.1,0.6,0.4,0.6c0.2,0,0.4,0,0.5,0c0.1,0,0.1,0,0.1,0.1c0,0.1-0.1,0.1-0.2,0.1
			c-0.6,0-1.3,0-1.4,0c-0.1,0-0.7,0-1.1,0c-0.1,0-0.2,0-0.2-0.1c0,0,0-0.1,0.1-0.1c0.1,0,0.2,0,0.3,0c0.2,0,0.3-0.3,0.3-0.6
			c0.1-0.5,0.1-1.3,0.1-2.4v-1.2c0,0,0-0.1-0.1-0.1h-4.7c0,0-0.1,0-0.1,0.1v1.2c0,1.1,0,1.9,0.1,2.4c0,0.3,0.1,0.6,0.4,0.6
			c0.2,0,0.4,0,0.5,0c0.1,0,0.1,0,0.1,0.1c0,0.1-0.1,0.1-0.2,0.1c-0.6,0-1.3,0-1.4,0c-0.1,0-0.7,0-1.1,0c-0.1,0-0.2,0-0.2-0.1
			c0,0,0-0.1,0.1-0.1c0.1,0,0.2,0,0.3,0c0.2,0,0.3-0.3,0.3-0.6c0.1-0.5,0.1-1.3,0.1-2.4v-1.9c0-1.7,0-2,0-2.4c0-0.4-0.1-0.5-0.5-0.6
			c-0.1,0-0.3,0-0.4,0c0,0-0.1,0-0.1-0.1c0-0.1,0.1-0.1,0.2-0.1c0.5,0,1.2,0,1.2,0c0.1,0,0.7,0,1.1,0c0.1,0,0.2,0,0.2,0.1
			c0,0,0,0.1-0.1,0.1c-0.1,0-0.1,0-0.3,0C12.1,86.8,12,87,12,87.4c0,0.4,0,0.7,0,2.4V90c0,0.1,0,0.1,0.1,0.1h4.7c0,0,0.1,0,0.1-0.1
			v-0.2c0-1.7,0-2,0-2.4c0-0.4-0.1-0.5-0.5-0.6c-0.1,0-0.3,0-0.4,0c0,0-0.1,0-0.1-0.1c0-0.1,0.1-0.1,0.2-0.1c0.5,0,1.2,0,1.2,0
			c0.1,0,0.7,0,1.1,0c0.1,0,0.2,0,0.2,0.1c0,0,0,0.1-0.1,0.1c-0.1,0-0.1,0-0.3,0c-0.3,0.1-0.4,0.2-0.4,0.6c0,0.4,0,0.7,0,2.4V91.7z"
			/>
		<path d="M23.9,87.7c2.2,0,3.8,1.3,3.8,3.5c0,2.1-1.5,3.8-3.9,3.8c-2.6,0-3.8-2-3.8-3.7C20.1,89.8,21.2,87.7,23.9,87.7z M24.1,94.6
			c0.9,0,2.6-0.5,2.6-3.2c0-2.2-1.4-3.4-2.9-3.4c-1.6,0-2.8,1-2.8,3C21.1,93.2,22.4,94.6,24.1,94.6z"/>
		<path d="M30.6,92.2c0,1.4,0,1.9,0.2,2.1c0.2,0.2,0.5,0.2,1.3,0.2c0.5,0,0.9,0,1.2-0.3c0.1-0.1,0.2-0.3,0.2-0.5
			c0-0.1,0-0.1,0.1-0.1c0,0,0.1,0,0.1,0.1c0,0.1-0.1,0.7-0.1,0.9c-0.1,0.2-0.1,0.3-0.6,0.3c-0.7,0-1.2,0-1.7,0c-0.4,0-0.8,0-1.1,0
			c0,0-0.2,0-0.4,0c-0.2,0-0.4,0-0.6,0c-0.1,0-0.2,0-0.2-0.1c0,0,0-0.1,0.1-0.1c0.1,0,0.2,0,0.3,0c0.2,0,0.2-0.2,0.3-0.5
			c0.1-0.4,0.1-1.1,0.1-2v-1.6c0-1.4,0-1.7,0-2c0-0.3-0.1-0.5-0.4-0.5c-0.1,0-0.2,0-0.3,0c0,0-0.1,0-0.1-0.1c0-0.1,0-0.1,0.2-0.1
			c0.4,0,1,0,1.1,0c0,0,0.8,0,1.1,0c0.1,0,0.2,0,0.2,0.1c0,0,0,0.1-0.1,0.1c-0.1,0-0.2,0-0.3,0c-0.3,0.1-0.3,0.2-0.4,0.5
			c0,0.3,0,0.6,0,2V92.2z"/>
		<path d="M36.3,92.4c0-0.5-0.1-0.7-0.2-1c-0.1-0.1-1.4-2.2-1.7-2.7c-0.2-0.4-0.5-0.6-0.6-0.7C33.6,88,33.5,88,33.4,88
			c-0.1,0-0.1,0-0.1-0.1c0,0,0-0.1,0.1-0.1c0.2,0,0.9,0,1,0c0.1,0,0.5,0,0.8,0c0.1,0,0.1,0,0.1,0.1c0,0-0.1,0.1-0.2,0.1
			c-0.1,0-0.1,0.1-0.1,0.2c0,0.1,0.1,0.2,0.1,0.4l1.8,2.9c0.2-0.4,1.4-2.4,1.6-2.7c0.1-0.2,0.2-0.4,0.2-0.5c0-0.1,0-0.2-0.2-0.2
			c-0.1,0-0.1-0.1-0.1-0.1c0,0,0.1-0.1,0.2-0.1c0.3,0,0.6,0,0.7,0c0.1,0,0.8,0,0.9,0c0.1,0,0.1,0,0.1,0.1c0,0,0,0.1-0.1,0.1
			c-0.1,0-0.3,0-0.4,0.1c-0.2,0.1-0.3,0.2-0.5,0.5c-0.3,0.4-1.7,2.6-1.9,3c-0.2,0.3-0.1,0.6-0.1,0.9v0.8c0,0.2,0,0.5,0,0.9
			c0,0.3,0.1,0.4,0.4,0.5c0.1,0,0.4,0,0.4,0c0.1,0,0.1,0,0.1,0.1c0,0-0.1,0.1-0.2,0.1c-0.5,0-1.2,0-1.2,0c0,0-0.7,0-0.9,0
			c-0.1,0-0.2,0-0.2-0.1c0,0,0-0.1,0.1-0.1c0.1,0,0.2,0,0.3,0c0.2,0,0.3-0.2,0.3-0.5c0-0.4,0-0.8,0-0.9V92.4z"/>
		<path d="M44.9,93.4c0,0.9,0.1,1.2,0.4,1.3c0.2,0.1,0.5,0.1,0.5,0.1c0.1,0,0.1,0,0.1,0.1c0,0.1-0.1,0.1-0.2,0.1c-0.6,0-1.1,0-1.2,0
			c-0.1,0-0.6,0-1.1,0c-0.1,0,0.1,0,0.1-0.1c0,0-0.2-0.1-0.2-0.1c0.1,0,0.3,0,0.5-0.1c0.3-0.1,0.3-0.4,0.3-1.4l0-6.3
			c0-0.4,0-0.5,0.1-0.5c0.1,0,0.3,0.2,0.4,0.4c0.2,0.2,1.8,2,3.5,3.8c1.1,1.2,2.3,2.5,2.6,2.9l-0.1-5.6c0-0.7-0.1-1-0.4-1
			c-0.2,0-0.4-0.1-0.5-0.1c-0.1,0-0.1,0-0.1-0.1c0-0.1,0.1-0.1,0.2-0.1c0.5,0,1,0,1.1,0c0.1,0,0.5,0,0.9,0c0.1,0,0.2,0,0.2,0.1
			c0,0,0,0.1-0.1,0.1c-0.1,0-0.1,0-0.3,0c-0.4,0.1-0.4,0.3-0.4,1l0,6.4c0,0.7,0,0.8-0.1,0.8c-0.1,0-0.2-0.1-0.8-0.7
			c-0.1-0.1-1.7-1.7-2.9-3c-1.3-1.4-2.5-2.8-2.9-3.2L44.9,93.4z"/>
		<path d="M56.3,88c0.1-0.3,0.2-0.4,0.2-0.4c0.1,0,0.1,0.1,0.2,0.3c0.2,0.4,1.7,4.2,2.3,5.7c0.4,0.8,0.6,1,0.8,1
			c0.1,0,0.3,0.1,0.4,0.1c0.1,0,0.1,0,0.1,0.1c0,0.1-0.1,0.1-0.2,0.1c-0.1,0-0.9,0-1.5,0c-0.2,0-0.3,0-0.3-0.1c0,0,0,0,0.1-0.1
			c0.1,0,0.2-0.1,0.1-0.3l-0.9-2.1c0,0,0-0.1-0.1-0.1h-2.2c0,0-0.1,0-0.1,0.1l-0.5,1.5c-0.1,0.2-0.1,0.5-0.1,0.6
			c0,0.2,0.2,0.3,0.3,0.3h0.1c0.1,0,0.1,0,0.1,0.1c0,0.1-0.1,0.1-0.1,0.1c-0.2,0-0.8,0-0.9,0c-0.1,0-0.6,0-1,0c-0.1,0-0.2,0-0.2-0.1
			c0,0,0-0.1,0.1-0.1c0.1,0,0.2,0,0.3,0c0.4-0.1,0.6-0.4,0.8-0.9L56.3,88z M57.3,91.9C57.4,91.9,57.4,91.8,57.3,91.9l-0.9-2.6
			c-0.1-0.1-0.1-0.1-0.2,0l-0.9,2.6c0,0,0,0.1,0,0.1H57.3z"/>
		<path d="M69.1,93.6c0,0.3,0.1,0.8,0.5,1c0.3,0.1,0.5,0.1,0.6,0.1c0,0,0.1,0,0.1,0.1c0,0.1-0.1,0.1-0.2,0.1c-0.2,0-1.3,0-1.6-0.1
			c-0.2,0-0.3-0.1-0.3-0.1c0,0,0-0.1,0.1-0.1c0.1,0,0.1-0.2,0-0.3l-0.5-4.7h0l-2.3,4.8c-0.2,0.4-0.3,0.5-0.3,0.5
			c-0.1,0-0.1-0.1-0.3-0.4c-0.3-0.5-0.9-1.7-1.1-2.2c-0.3-0.6-1.1-2.2-1.2-2.5h0l-0.4,4.2c0,0.1,0,0.3,0,0.5c0,0.1,0.1,0.2,0.2,0.3
			c0.2,0,0.3,0.1,0.4,0.1c0,0,0.1,0,0.1,0.1c0,0.1-0.1,0.1-0.2,0.1c-0.4,0-0.8,0-0.9,0c-0.1,0-0.5,0-0.8,0c-0.1,0-0.2,0-0.2-0.1
			c0,0,0-0.1,0.1-0.1c0.1,0,0.1,0,0.3,0c0.3-0.1,0.3-0.4,0.4-0.7l0.7-6.1c0-0.1,0.1-0.2,0.1-0.2c0.1,0,0.1,0,0.2,0.1l2.9,5.8
			l2.8-5.8c0-0.1,0.1-0.2,0.2-0.2c0.1,0,0.1,0.1,0.1,0.3L69.1,93.6z"/>
		<path d="M72,90.5c0-1.4,0-1.7,0-2c0-0.3-0.1-0.5-0.4-0.5c-0.1,0-0.2,0-0.3,0c0,0-0.1,0-0.1-0.1c0-0.1,0-0.1,0.2-0.1
			c0.4,0,1.1,0,1.1,0c0.1,0,2.1,0,2.3,0c0.2,0,0.4,0,0.4-0.1c0,0,0.1,0,0.1,0c0,0,0,0,0,0.1c0,0.1-0.1,0.2-0.1,0.4
			c0,0.1,0,0.5-0.1,0.6c0,0,0,0.1-0.1,0.1c-0.1,0-0.1,0-0.1-0.1c0-0.1,0-0.2-0.1-0.3c-0.1-0.2-0.2-0.2-0.7-0.3c-0.2,0-1.3,0-1.4,0
			c0,0-0.1,0-0.1,0.1v2.5c0,0.1,0,0.1,0.1,0.1c0.1,0,1.4,0,1.6,0c0.2,0,0.4,0,0.5-0.1c0.1-0.1,0.1-0.1,0.1-0.1s0.1,0,0.1,0.1
			c0,0.1-0.1,0.2-0.1,0.5c0,0.2,0,0.5,0,0.6c0,0.1,0,0.2-0.1,0.2c0,0-0.1,0-0.1-0.1c0-0.1,0-0.2,0-0.3c0-0.1-0.1-0.2-0.5-0.3
			c-0.3,0-1.3,0-1.5,0c-0.1,0-0.1,0-0.1,0.1v0.8c0,0.3,0,1.4,0,1.6c0,0.6,0.2,0.7,1.2,0.7c0.3,0,0.7,0,1-0.1
			c0.3-0.1,0.4-0.3,0.4-0.6c0-0.1,0-0.1,0.1-0.1c0.1,0,0.1,0.1,0.1,0.1c0,0.1-0.1,0.7-0.1,0.9c-0.1,0.2-0.2,0.2-0.5,0.2
			c-0.7,0-1.3,0-1.7,0c-0.4,0-0.7,0-0.8,0c0,0-0.2,0-0.4,0c-0.2,0-0.4,0-0.6,0c-0.1,0-0.2,0-0.2-0.1c0,0,0-0.1,0.1-0.1
			c0.1,0,0.2,0,0.3,0c0.2,0,0.2-0.2,0.3-0.5c0.1-0.4,0.1-1.1,0.1-2V90.5z"/>
		<path d="M77.3,94.7c-0.1-0.1-0.1-0.1-0.1-0.4c0-0.5,0-0.8,0.1-1c0-0.1,0-0.2,0.1-0.2c0.1,0,0.1,0,0.1,0.1c0,0.1,0,0.2,0,0.3
			c0.2,0.7,0.9,0.9,1.5,0.9c1,0,1.4-0.5,1.4-1.2c0-0.7-0.4-1-1.2-1.6l-0.4-0.3c-1-0.8-1.4-1.4-1.4-2c0-1.1,0.9-1.8,2.1-1.8
			c0.4,0,0.8,0.1,1,0.1c0.2,0,0.3,0,0.3,0c0.1,0,0.1,0,0.1,0.1c0,0,0,0.4,0,1c0,0.1,0,0.2-0.1,0.2s-0.1,0-0.1-0.1
			c0-0.1-0.1-0.4-0.1-0.5c-0.1-0.1-0.4-0.5-1.3-0.5c-0.7,0-1.3,0.4-1.3,1c0,0.6,0.3,0.9,1.3,1.6l0.3,0.2c1.2,0.8,1.6,1.4,1.6,2.3
			c0,0.5-0.2,1.1-0.9,1.6c-0.4,0.3-1,0.3-1.5,0.3C78.2,95,77.7,94.9,77.3,94.7z"/>
	</g>
	<g>
		<path d="M20.3,101.2c0-1.1,0-1.3,0-1.6c0-0.2-0.1-0.4-0.3-0.4c-0.1,0-0.2,0-0.3,0c0,0-0.1,0-0.1-0.1c0,0,0-0.1,0.1-0.1
			c0.3,0,0.8,0,0.9,0c0.1,0,0.5,0,0.8,0c0.1,0,0.1,0,0.1,0.1c0,0,0,0.1-0.1,0.1c-0.1,0-0.1,0-0.2,0c-0.2,0-0.2,0.2-0.3,0.4
			c0,0.2,0,0.4,0,1.6v1c0,1.1,0.2,1.5,0.6,1.8c0.4,0.3,0.7,0.4,1.1,0.4c0.5,0,0.9-0.2,1.2-0.5c0.4-0.4,0.4-1,0.4-1.8v-0.9
			c0-1.1,0-1.3,0-1.6c0-0.2-0.1-0.4-0.3-0.4c-0.1,0-0.2,0-0.3,0c0,0-0.1,0-0.1-0.1c0,0,0-0.1,0.1-0.1c0.3,0,0.8,0,0.8,0
			c0.1,0,0.4,0,0.6,0c0.1,0,0.1,0,0.1,0.1c0,0,0,0.1-0.1,0.1c-0.1,0-0.1,0-0.2,0c-0.2,0-0.2,0.2-0.3,0.4c0,0.2,0,0.4,0,1.6v0.8
			c0,0.8-0.1,1.7-0.7,2.2c-0.5,0.5-1.1,0.5-1.6,0.5c-0.2,0-1,0-1.6-0.5c-0.4-0.3-0.7-0.8-0.7-1.9V101.2z"/>
		<path d="M27.3,103.6c0,0.6,0.1,0.8,0.3,0.8c0.1,0,0.3,0,0.4,0c0,0,0.1,0,0.1,0.1c0,0-0.1,0.1-0.1,0.1c-0.4,0-0.7,0-0.8,0
			c-0.1,0-0.4,0-0.7,0c-0.1,0-0.1,0-0.1-0.1c0,0,0-0.1,0.1-0.1c0.1,0,0.2,0,0.3,0c0.2-0.1,0.2-0.2,0.2-0.9v-4.2c0-0.3,0-0.4,0.1-0.4
			c0.1,0,0.2,0.1,0.3,0.2c0.1,0.1,1.2,1.3,2.4,2.5c0.7,0.8,1.5,1.6,1.8,1.9l-0.1-3.6c0-0.5-0.1-0.6-0.3-0.7c-0.1,0-0.3,0-0.4,0
			c-0.1,0-0.1,0-0.1-0.1c0,0,0.1-0.1,0.1-0.1c0.3,0,0.7,0,0.8,0c0.1,0,0.3,0,0.6,0c0.1,0,0.1,0,0.1,0.1c0,0,0,0.1-0.1,0.1
			c0,0-0.1,0-0.2,0c-0.2,0.1-0.3,0.2-0.3,0.6l0,4.3c0,0.5,0,0.5-0.1,0.5c-0.1,0-0.2-0.1-0.6-0.4c-0.1-0.1-1.2-1.1-2-2
			c-0.9-0.9-1.7-1.8-1.9-2.1L27.3,103.6z"/>
		<path d="M34.6,102.5c0,0.7,0,1.3,0,1.6c0,0.2,0.1,0.4,0.3,0.4c0.1,0,0.3,0,0.3,0c0,0,0.1,0,0.1,0.1c0,0,0,0.1-0.1,0.1
			c-0.4,0-0.9,0-0.9,0c0,0-0.5,0-0.7,0c-0.1,0-0.1,0-0.1-0.1c0,0,0-0.1,0.1-0.1c0.1,0,0.2,0,0.2,0c0.1,0,0.2-0.2,0.2-0.4
			c0-0.3,0-0.9,0-1.6v-1.3c0-1.1,0-1.3,0-1.6c0-0.2-0.1-0.4-0.2-0.4c-0.1,0-0.2,0-0.2,0c0,0-0.1,0-0.1-0.1c0,0,0-0.1,0.1-0.1
			c0.2,0,0.7,0,0.8,0c0,0,0.5,0,0.8,0c0.1,0,0.1,0,0.1,0.1c0,0,0,0.1-0.1,0.1c-0.1,0-0.1,0-0.2,0c-0.2,0-0.2,0.1-0.3,0.4
			c0,0.2,0,0.4,0,1.6V102.5z"/>
		<path d="M38.9,103.7c0.4-1,1.4-3.5,1.6-4c0-0.1,0.1-0.2,0.1-0.3c0-0.1,0-0.1-0.1-0.2c-0.1,0-0.2,0-0.3,0c0,0-0.1,0-0.1-0.1
			c0,0,0.1-0.1,0.2-0.1c0.3,0,0.6,0,0.7,0c0,0,0.4,0,0.6,0c0.1,0,0.1,0,0.1,0.1c0,0,0,0.1-0.1,0.1c-0.1,0-0.2,0-0.4,0.1
			c-0.1,0.1-0.2,0.2-0.4,0.7c-0.1,0.2-0.5,1.1-0.8,2c-0.5,1.1-0.8,1.8-1,2.2c-0.2,0.4-0.2,0.5-0.3,0.5c-0.1,0-0.1-0.1-0.3-0.4
			l-1.8-4.4c-0.2-0.4-0.3-0.5-0.5-0.5c-0.1,0-0.2,0-0.3,0c0,0-0.1,0-0.1-0.1c0,0,0.1-0.1,0.2-0.1c0.4,0,0.8,0,0.9,0
			c0.1,0,0.4,0,0.7,0c0.1,0,0.2,0,0.2,0.1c0,0,0,0.1-0.1,0.1c-0.1,0-0.2,0-0.3,0c-0.1,0-0.1,0.1-0.1,0.1c0,0.1,0.1,0.3,0.2,0.6
			L38.9,103.7z"/>
		<path d="M42.8,101.2c0-1.1,0-1.3,0-1.6c0-0.2-0.1-0.4-0.3-0.4c-0.1,0-0.2,0-0.3,0c0,0-0.1,0-0.1-0.1c0,0,0-0.1,0.1-0.1
			c0.3,0,0.8,0,0.9,0c0.1,0,1.6,0,1.8,0c0.1,0,0.3,0,0.3,0c0,0,0.1,0,0.1,0c0,0,0,0,0,0.1c0,0.1,0,0.1-0.1,0.3c0,0.1,0,0.4,0,0.5
			c0,0,0,0.1-0.1,0.1c0,0-0.1,0-0.1-0.1c0-0.1,0-0.2,0-0.3c-0.1-0.1-0.1-0.2-0.5-0.2c-0.1,0-1,0-1.1,0c0,0,0,0,0,0.1v2
			c0,0.1,0,0.1,0,0.1c0.1,0,1.1,0,1.3,0c0.2,0,0.3,0,0.4-0.1c0.1-0.1,0.1-0.1,0.1-0.1c0,0,0,0,0,0.1c0,0,0,0.2-0.1,0.4
			c0,0.1,0,0.4,0,0.5c0,0.1,0,0.1-0.1,0.1c0,0-0.1,0-0.1-0.1c0-0.1,0-0.1,0-0.2c0-0.1-0.1-0.2-0.4-0.2c-0.2,0-1,0-1.1,0
			c0,0-0.1,0-0.1,0.1v0.6c0,0.2,0,1.1,0,1.2c0,0.5,0.2,0.6,0.9,0.6c0.2,0,0.6,0,0.8-0.1c0.2-0.1,0.3-0.2,0.3-0.5
			c0-0.1,0-0.1,0.1-0.1c0,0,0.1,0.1,0.1,0.1c0,0.1-0.1,0.5-0.1,0.7c-0.1,0.2-0.1,0.2-0.4,0.2c-0.6,0-1,0-1.3,0c-0.3,0-0.5,0-0.6,0
			c0,0-0.2,0-0.3,0c-0.1,0-0.3,0-0.4,0c-0.1,0-0.1,0-0.1-0.1c0,0,0-0.1,0.1-0.1c0.1,0,0.2,0,0.2,0c0.1,0,0.2-0.2,0.2-0.4
			c0-0.3,0-0.9,0-1.6V101.2z"/>
		<path d="M47.5,101.2c0-1.1,0-1.3,0-1.6c0-0.2-0.1-0.4-0.3-0.4c-0.1,0-0.2,0-0.3,0c0,0-0.1,0-0.1-0.1c0,0,0-0.1,0.1-0.1
			c0.3,0,0.8,0,0.9,0c0.1,0,0.7,0,0.9,0c0.5,0,1,0,1.4,0.3c0.2,0.1,0.5,0.5,0.5,1c0,0.5-0.2,1.1-0.9,1.7c0.6,0.8,1.1,1.4,1.6,1.9
			c0.4,0.4,0.6,0.5,0.8,0.5c0.1,0,0.2,0,0.3,0c0,0,0.1,0,0.1,0.1c0,0,0,0.1-0.2,0.1h-0.5c-0.4,0-0.6,0-0.8-0.1
			c-0.3-0.2-0.6-0.5-1-1.1c-0.3-0.4-0.6-0.9-0.8-1.1c0,0-0.1,0-0.1,0l-1,0c0,0-0.1,0-0.1,0.1v0.2c0,0.7,0,1.3,0,1.6
			c0,0.2,0.1,0.4,0.3,0.4c0.1,0,0.3,0,0.3,0c0.1,0,0.1,0,0.1,0.1c0,0,0,0.1-0.1,0.1c-0.4,0-0.9,0-0.9,0c0,0-0.5,0-0.7,0
			c-0.1,0-0.1,0-0.1-0.1c0,0,0-0.1,0.1-0.1c0.1,0,0.2,0,0.2,0c0.1,0,0.2-0.2,0.2-0.4c0-0.3,0-0.9,0-1.6V101.2z M48.1,101.8
			C48.1,101.9,48.2,101.9,48.1,101.8c0.2,0.2,0.5,0.2,0.9,0.2c0.2,0,0.4,0,0.6-0.1c0.3-0.2,0.5-0.6,0.5-1.1c0-0.9-0.5-1.4-1.3-1.4
			c-0.2,0-0.5,0-0.5,0c0,0-0.1,0-0.1,0.1V101.8z"/>
		<path d="M52.5,104.5c-0.1-0.1-0.1-0.1-0.1-0.3c0-0.4,0-0.6,0-0.8c0-0.1,0-0.1,0.1-0.1c0,0,0.1,0,0.1,0.1c0,0.1,0,0.2,0,0.3
			c0.1,0.5,0.7,0.7,1.2,0.7c0.7,0,1.1-0.4,1.1-1c0-0.5-0.3-0.8-0.9-1.3l-0.3-0.3c-0.8-0.6-1.1-1-1.1-1.6c0-0.9,0.7-1.4,1.7-1.4
			c0.3,0,0.6,0,0.8,0.1c0.1,0,0.2,0,0.3,0c0.1,0,0.1,0,0.1,0.1c0,0,0,0.3,0,0.8c0,0.1,0,0.2-0.1,0.2s-0.1,0-0.1-0.1
			c0-0.1-0.1-0.3-0.1-0.4c-0.1-0.1-0.3-0.4-1-0.4c-0.5,0-1,0.3-1,0.8c0,0.5,0.2,0.7,1,1.2l0.2,0.1c0.9,0.6,1.2,1.1,1.2,1.8
			c0,0.4-0.2,0.9-0.7,1.2c-0.3,0.2-0.8,0.3-1.2,0.3C53.3,104.7,52.8,104.7,52.5,104.5z"/>
		<path d="M58.1,102.5c0,0.7,0,1.3,0,1.6c0,0.2,0.1,0.4,0.3,0.4c0.1,0,0.3,0,0.3,0c0,0,0.1,0,0.1,0.1c0,0,0,0.1-0.1,0.1
			c-0.4,0-0.9,0-0.9,0c0,0-0.5,0-0.7,0c-0.1,0-0.1,0-0.1-0.1c0,0,0-0.1,0.1-0.1c0.1,0,0.2,0,0.2,0c0.1,0,0.2-0.2,0.2-0.4
			c0-0.3,0-0.9,0-1.6v-1.3c0-1.1,0-1.3,0-1.6c0-0.2-0.1-0.4-0.2-0.4c-0.1,0-0.2,0-0.2,0c0,0-0.1,0-0.1-0.1c0,0,0-0.1,0.1-0.1
			c0.2,0,0.7,0,0.8,0c0,0,0.5,0,0.8,0c0.1,0,0.1,0,0.1,0.1c0,0,0,0.1-0.1,0.1c-0.1,0-0.1,0-0.2,0c-0.2,0-0.2,0.1-0.3,0.4
			c0,0.2,0,0.4,0,1.6V102.5z"/>
		<path d="M62.4,102.5c0,0.7,0,1.3,0,1.6c0,0.2,0.1,0.4,0.3,0.4c0.1,0,0.3,0,0.3,0c0.1,0,0.1,0,0.1,0.1c0,0,0,0.1-0.1,0.1
			c-0.4,0-0.9,0-0.9,0c0,0-0.6,0-0.8,0c-0.1,0-0.1,0-0.1-0.1c0,0,0-0.1,0.1-0.1c0.1,0,0.2,0,0.2,0c0.2,0,0.2-0.2,0.2-0.4
			c0-0.3,0-0.9,0-1.6v-3l-1.1,0c-0.5,0-0.6,0.1-0.8,0.2c-0.1,0.1-0.1,0.2-0.1,0.2c0,0.1,0,0.1-0.1,0.1c0,0-0.1,0-0.1-0.1
			c0-0.1,0.2-0.7,0.2-0.8c0,0,0.1-0.1,0.1-0.1c0.1,0,0.1,0.1,0.3,0.1c0.2,0,0.5,0,0.6,0h2.8c0.2,0,0.4,0,0.5,0c0.1,0,0.2,0,0.2,0
			c0,0,0,0,0,0.1c0,0.2,0,0.7,0,0.8c0,0.1,0,0.1-0.1,0.1c0,0-0.1,0-0.1-0.1l0-0.1c0-0.2-0.2-0.4-0.9-0.4l-0.9,0V102.5z"/>
		<path d="M67,102.7c0-0.4-0.1-0.5-0.2-0.7c-0.1-0.1-1.1-1.7-1.3-2.1c-0.2-0.3-0.4-0.4-0.5-0.5c-0.1-0.1-0.3-0.1-0.3-0.1
			c0,0-0.1,0-0.1-0.1c0,0,0-0.1,0.1-0.1c0.1,0,0.7,0,0.7,0c0.1,0,0.4,0,0.6,0c0.1,0,0.1,0,0.1,0.1c0,0-0.1,0.1-0.1,0.1
			c-0.1,0-0.1,0.1-0.1,0.1c0,0.1,0.1,0.2,0.1,0.3l1.4,2.3c0.2-0.3,1.1-1.9,1.2-2.1c0.1-0.2,0.1-0.3,0.1-0.4c0-0.1,0-0.2-0.1-0.2
			c-0.1,0-0.1-0.1-0.1-0.1c0,0,0,0,0.1,0c0.2,0,0.5,0,0.5,0c0.1,0,0.6,0,0.7,0c0.1,0,0.1,0,0.1,0c0,0,0,0.1-0.1,0.1
			c-0.1,0-0.2,0-0.4,0.1c-0.1,0.1-0.2,0.2-0.4,0.4c-0.2,0.3-1.3,2-1.5,2.3c-0.1,0.3-0.1,0.5-0.1,0.7v0.6c0,0.1,0,0.4,0,0.7
			c0,0.2,0.1,0.4,0.3,0.4c0.1,0,0.3,0,0.3,0c0,0,0.1,0,0.1,0.1c0,0,0,0.1-0.1,0.1c-0.4,0-0.9,0-0.9,0c0,0-0.5,0-0.7,0
			c-0.1,0-0.1,0-0.1-0.1c0,0,0-0.1,0.1-0.1c0.1,0,0.2,0,0.2,0c0.2,0,0.2-0.2,0.2-0.4c0-0.3,0-0.6,0-0.7V102.7z"/>
	</g>
	<g>
		<path d="M30.4,113.5c0-0.3,0-0.7,0.1-0.9c0,0,0.1,0,0.2,0c0.1,0.7,0.4,1.2,1.1,1.2c0.5,0,1.1-0.3,1.1-1.1c0-0.6-0.4-0.9-0.8-1.2
			c-0.4-0.3-0.8-0.8-0.8-1.3c0-0.8,0.7-1.5,1.7-1.5c0.5,0,1,0.2,1.1,0.3c-0.1,0.2-0.2,0.6-0.3,0.9c-0.1,0-0.2,0-0.2,0
			c0.1-0.5,0-1-0.7-1c-0.7,0-1,0.5-1,1c0,0.5,0.5,0.9,0.8,1.1c0.5,0.4,0.8,0.8,0.8,1.4c0,0.9-0.7,1.6-1.8,1.6
			C31.1,114,30.6,113.9,30.4,113.5z"/>
		<path d="M35,111.4c0-0.1,0-0.1,0-0.1c-0.1,0-0.3,0.1-0.6,0.4c-0.1,0-0.1-0.1-0.1-0.1c0.4-0.5,1-0.8,1.3-0.8c0.1,0,0.1,0,0.1,0.1
			c0,0,0,0.1,0,0.3l-0.9,2.2c0,0.1,0,0.2,0,0.2c0.1,0,0.5-0.3,0.8-0.6c0.1,0,0.1,0.1,0.1,0.1c-0.1,0.2-0.9,0.9-1.4,0.9
			c0,0-0.1,0-0.1-0.1c0-0.1-0.1-0.1,0-0.2L35,111.4z M35.9,109.4c0,0.2-0.2,0.5-0.4,0.5c-0.2,0-0.3-0.2-0.3-0.3
			c0-0.2,0.1-0.5,0.4-0.5C35.9,109.2,35.9,109.3,35.9,109.4z"/>
		<path d="M37.2,112.4L37.2,112.4c0.6-0.8,1.3-1.7,1.9-1.7c0.3,0,0.4,0.2,0.4,0.4c0,0.1-0.1,0.4-0.1,0.5c-0.1,0.4-0.7,1.6-0.7,1.7
			c0,0.1,0,0.1,0,0.1c0.1,0,0.5-0.3,0.7-0.5c0.1,0,0.1,0,0.1,0.1c-0.3,0.5-0.9,0.9-1.3,0.9c-0.1,0-0.2-0.1-0.2-0.2
			c0-0.1,0-0.1,0.2-0.5c0.2-0.4,0.4-1.1,0.6-1.5c0.1-0.1,0.2-0.4,0.2-0.6c0-0.1,0-0.2-0.1-0.2c-0.2,0-0.6,0.4-1.1,0.9
			c-0.4,0.5-0.7,1.1-1.2,2c0,0.1-0.1,0.1-0.1,0.1c-0.1,0-0.3,0-0.2-0.2c0-0.1,0.9-2.3,0.9-2.4c0-0.1,0-0.2,0-0.2
			c-0.2,0-0.4,0.2-0.7,0.4c-0.1,0-0.1-0.1-0.1-0.1c0.3-0.4,0.8-0.7,1.2-0.7c0.2,0,0.3,0.1,0.2,0.3L37.2,112.4z"/>
		<path d="M42.6,111.2c0,0.3-0.3,0.4-0.4,0.4c-0.1,0-0.1,0-0.2-0.1c0-0.2,0-0.4-0.3-0.4c-0.2,0-0.4,0.2-0.7,0.5
			c-0.3,0.4-0.5,1-0.5,1.6c0,0.4,0.1,0.5,0.3,0.5c0.3,0,0.5-0.2,0.8-0.5c0.1,0,0.1,0.1,0.1,0.1c-0.3,0.4-0.8,0.7-1.3,0.7
			c-0.3,0-0.6-0.2-0.6-0.8c0-0.5,0.3-1.4,1-2c0.3-0.3,0.7-0.4,1-0.4C42.4,110.7,42.6,111,42.6,111.2z"/>
		<path d="M45.2,111.2c0,0.6-0.8,1-1.9,1.3c-0.1,0.1-0.1,0.4-0.1,0.7c0,0.3,0.2,0.4,0.4,0.4c0.3,0,0.5-0.2,0.8-0.4
			c0.1,0,0.1,0.1,0.1,0.1c-0.5,0.6-0.9,0.7-1.2,0.7c-0.5,0-0.6-0.4-0.6-0.8c0-0.5,0.3-1.4,1.2-2.1c0.4-0.3,0.7-0.4,0.9-0.4
			C45,110.7,45.2,111,45.2,111.2z M44,111.4c-0.3,0.3-0.5,0.7-0.6,0.9c0.5-0.2,0.8-0.3,1-0.6c0.2-0.2,0.3-0.5,0.3-0.5
			c0-0.1,0-0.2-0.2-0.2C44.4,111,44.2,111.1,44,111.4z"/>
		<path d="M49.1,113c-0.2,0.6-0.1,0.7,0.3,0.7l0.2,0c0,0,0,0.2,0,0.2c-0.4,0-0.7,0-1,0c-0.3,0-0.6,0-0.9,0c-0.1,0-0.1-0.2,0-0.2
			l0.2,0c0.5-0.1,0.6-0.2,0.7-0.8l0.8-2.6c0.2-0.6,0.2-0.7-0.1-0.7l-0.4,0c0,0,0-0.1,0-0.2c0.7-0.1,1.1-0.3,1.4-0.4
			c0.1,0,0.1,0,0.1,0c-0.1,0.3-0.2,0.6-0.3,0.9L49.1,113z"/>
		<path d="M51.2,112.8c0-0.9,0.8-1.2,1.5-1.6c-0.3-0.2-0.6-0.6-0.6-1c0-0.8,0.7-1.4,1.5-1.4c0.8,0,1.2,0.5,1.2,1.1
			c0,0.6-0.6,0.9-1.2,1.2c0.4,0.3,0.8,0.7,0.8,1.2c0,0.9-0.8,1.5-1.7,1.5C51.8,114,51.2,113.6,51.2,112.8z M53.7,112.7
			c0-0.6-0.4-1-0.9-1.2c-0.6,0.4-1.1,0.8-1.1,1.4c0,0.7,0.4,1,0.9,1C53.2,113.8,53.7,113.4,53.7,112.7z M53.5,109.2
			c-0.5,0-0.9,0.4-0.9,1c0,0.5,0.3,0.7,0.8,1c0.4-0.3,0.9-0.6,0.9-1.1C54.2,109.5,54,109.2,53.5,109.2z"/>
		<path d="M56.7,111.4c0-0.1-0.1-0.1,0-0.1c0.2-0.1,0.5-0.2,0.7-0.2c0.6,0,1.1,0.4,1.1,1.3c0,0.8-0.8,1.7-1.9,1.7
			c-1,0-1.4-0.6-1.4-1.5c0-1.1,0.8-2.3,1.6-2.9c1.1-0.8,2.2-1,2.7-1c0.1,0,0.1,0.1,0,0.2c-0.6,0.1-1.3,0.3-2,0.9
			c-1.1,0.8-1.7,2.1-1.7,3.1c0,0.7,0.2,1.1,0.8,1.1c0.7,0,1.1-0.9,1.1-1.6c0-0.5-0.3-0.9-0.7-0.9C57,111.3,56.8,111.3,56.7,111.4z"
			/>
		<path d="M58.9,112.8c0-0.9,0.8-1.2,1.5-1.6c-0.3-0.2-0.6-0.6-0.6-1c0-0.8,0.7-1.4,1.5-1.4c0.8,0,1.2,0.5,1.2,1.1
			c0,0.6-0.6,0.9-1.2,1.2c0.4,0.3,0.8,0.7,0.8,1.2c0,0.9-0.8,1.5-1.7,1.5C59.6,114,58.9,113.6,58.9,112.8z M61.5,112.7
			c0-0.6-0.4-1-0.9-1.2c-0.6,0.4-1.1,0.8-1.1,1.4c0,0.7,0.4,1,0.9,1C61,113.8,61.5,113.4,61.5,112.7z M61.3,109.2
			c-0.5,0-0.9,0.4-0.9,1c0,0.5,0.3,0.7,0.8,1c0.4-0.3,0.9-0.6,0.9-1.1C62,109.5,61.7,109.2,61.3,109.2z"/>
	</g>
	<g>
		<g>
			<path fill="none" d="M40.2,42.9v8.2l2.8,3v-5c0-1.9,0-4.9-0.3-5.8c-0.3-0.1-1.1-0.3-2.3-0.4C40.4,42.9,40.3,42.9,40.2,42.9z"/>
			<path fill="none" d="M56.1,69.7V42.2c-0.5,0.4-1,0.6-1.6,0.7l-0.1,0l-0.1,0c-1.4,0.1-2,0.3-2.2,0.4c-0.3,0.8-0.3,3.4-0.3,5.9v8.4
				l0,0v4.2C51.8,65.8,54,68.2,56.1,69.7z"/>
			<path fill="none" d="M40.2,35.6c0.2,0,0.3,0,0.5,0c0.2,0,0.4,0,0.5,0c2.2,0.3,3.4,0.3,6.8,0.3c2.6,0,4-0.1,5.5-0.3l0.1,0l0.1,0
				c0.1,0,0.2,0,0.3,0c0.8,0,1.5,0.3,2.1,0.7V32H40.2V35.6z"/>
			<path fill="none" d="M72.3,62.6V48.6c0-1.2,0-4.5-0.4-5.2c-0.2-0.1-0.8-0.3-2.6-0.5l-0.1,0l-0.1,0c-0.6-0.1-1.1-0.4-1.5-0.7v29.1
				C70.8,70,72.3,67.3,72.3,62.6z"/>
			<path fill="#C4232A" d="M83.2,38.8C83.2,38.8,83.2,38.8,83.2,38.8c-1.9,0.2-3.6,0.4-6,0.4c-3.5,0-4.9-0.1-7.4-0.4c0,0,0,0,0,0
				c-0.5,0-0.3,0.9,0,1c5.2,0.6,5.7,1.4,5.7,8.8v14.1c0,7.7-3.8,11.9-11,12.3V17.8c0-8.5-0.2-8.8,5.9-9.4c0.3,0,0.4-1,0-1
				c0,0,0,0-0.1,0c-1.9,0.2-5.3,0.4-7.8,0.4c-3.5,0-5.6-0.1-8.1-0.4c0,0,0,0-0.1,0c-0.4,0-0.2,0.9,0.1,1c4.5,0.5,4.9,0.6,4.9,9.4
				v9.4H37.1v-9.4c0-8.4,0.1-9,4.9-9.4c0.2,0,0.5-1-0.1-1c0,0,0,0,0,0c-1.8,0.2-4.2,0.4-6.7,0.4c-3.3,0-6.6-0.1-9.1-0.4
				c0,0,0,0-0.1,0c-0.4,0-0.2,0.9,0.1,1c5.9,0.7,6,0.5,6,9.4V47L18.4,32.7c-3.5,0-5.7-0.1-8.2-0.4c0,0,0,0,0,0c-0.5,0-0.2,1,0,1
				c2.8,0.4,6.6,3.7,6.6,6.4v20.6c0,8.1-0.3,8.7-5.5,9.2c-0.2,0-0.5,1.1,0,1.1c0,0,0,0,0,0c2.5-0.3,3.9-0.4,7.3-0.4
				c2.5,0,4,0.1,5.9,0.4c0,0,0,0,0,0c0.5,0,0.2-1.1,0.1-1.1c-5.4-0.4-5.4-1.5-5.4-9.2V40.8l28.5,29.8c1.1,1.4,8.1,7.3,14.2,7.3
				c10.4,0,15.8-6.7,15.8-14.6V48.6c0-7.1,0.2-8.4,5.7-8.8C83.6,39.8,83.7,38.8,83.2,38.8z M59.3,74.5c-5.2-1.4-10.6-5.4-10.6-12.7
				l0,0c0-0.5,0-1.1,0-1.5V49.1c0-7.8,0-8.9,5.4-9.4c0.4-0.1,0.6-1,0-1c0,0,0,0-0.1,0c-1.8,0.2-3.4,0.4-5.9,0.4
				c-3.4,0-4.8-0.1-7.3-0.4c0,0,0,0-0.1,0c-0.4,0-0.2,1,0,1c5.3,0.6,5.5,1.2,5.5,9.4V62l-9.2-9.6V28.9h22.2V74.5z"/>
			<path fill="#B6B8BA" d="M86.1,36.9c-0.6-1-1.7-1.6-2.9-1.6H83l-0.2,0l0,0l0,0c-1.8,0.2-3.4,0.3-5.6,0.3c-3.4,0-4.8-0.1-7.1-0.3
				l0,0l0,0l-0.2,0l-0.2,0c-0.8,0-1.5,0.3-2.1,0.7V17.5v-0.7c0-2.1,0-4.3,0.2-5.2c0.6-0.2,2.1-0.3,2.8-0.4c1.8-0.1,3.2-1.7,3.2-3.7
				c0-2-1.5-3.6-3.4-3.6c-0.2,0-0.4,0-0.5,0c-1.7,0.2-5,0.3-7.3,0.3c-3.2,0-5.3,0-7.7-0.3c-0.2,0-0.4,0-0.5,0c0,0,0,0,0,0
				c-1.8,0-3.2,1.3-3.4,3.1c-0.2,1.7,0.8,3.7,2.8,4.1l0.1,0l0.1,0c0.6,0.1,1.4,0.2,1.8,0.3c0.3,1.1,0.3,4.3,0.3,6v6.2H40.2v-6.2
				c0-2.2,0-5,0.2-6c0.3-0.1,0.9-0.2,1.8-0.2c1.8-0.1,3.2-1.7,3.2-3.8c0-2-1.5-3.6-3.5-3.6h-0.2l-0.2,0l0,0l0,0
				c-1.6,0.2-3.8,0.3-6.3,0.3c-2.7,0-6.2,0-8.7-0.3c-0.2,0-0.3,0-0.5,0h0c-1.8,0-3.2,1.3-3.4,3.1c-0.2,1.7,0.8,3.7,2.8,4.1l0.1,0
				l0.1,0l0.5,0.1c0.9,0.1,2,0.2,2.5,0.4c0.2,1,0.2,3.4,0.2,5.8v21.3l-8.2-8.6l-0.9-1h-1.4c-3.3,0-5.5-0.1-7.8-0.4l0,0l0,0l-0.2,0
				l-0.2,0c-1.2,0-2.3,0.6-3,1.7c-0.8,1.4-0.5,3,0.1,3.9c0.5,1,1.5,1.6,2.5,1.7c1.4,0.2,3.7,2.3,3.8,3.3l0,20.5c0,1.7,0,4.8-0.3,5.7
				c-0.4,0.1-1.1,0.2-2.3,0.4c-1.8,0.1-3.2,1.8-3.2,3.9c0,0.7,0.2,1.4,0.5,1.9c0.6,1,1.7,1.6,2.9,1.6h0.2l0.2,0l0,0l0,0
				c2.3-0.3,3.5-0.3,6.9-0.3c2.5,0,3.9,0.1,5.4,0.3l0,0l0,0l0.2,0l0.2,0c1.2,0,2.3-0.6,3-1.7c0.3-0.6,0.5-1.2,0.5-1.9
				c0-2.1-1.4-3.7-3.2-3.8c-1.4-0.1-2-0.2-2.2-0.3c-0.3-0.8-0.3-3.3-0.3-5.8V48.4L45,72.2c4.4,5,9.6,8.5,16.7,8.5
				c13.1,0,19-8.9,19-17.8V48.3c0-1.7,0-4.6,0.3-5.3c0.2-0.1,0.7-0.3,2.4-0.4c1.8-0.1,3.2-1.7,3.2-3.7
				C86.7,38.2,86.5,37.5,86.1,36.9z M77.6,48.6v14.6c0,8-5.4,14.6-15.8,14.6c-5.9,0-11.8-4.5-14.2-7.3L19.1,40.8v19.4
				c0,7.8,0,8.8,5.4,9.2c0.2,0,0.5,1.1-0.1,1.1c0,0,0,0,0,0c-1.8-0.2-3.4-0.4-5.9-0.4c-3.5,0-4.9,0.1-7.3,0.4c0,0,0,0,0,0
				c-0.5,0-0.2-1.1,0-1.1c5.2-0.5,5.5-1.1,5.5-9.2V39.7c0-2.6-3.8-6-6.6-6.4c-0.2,0-0.5-1,0-1c0,0,0,0,0,0c2.5,0.3,4.7,0.4,8.2,0.4
				L32,47V17.8c0-8.9-0.1-8.7-6-9.4c-0.3-0.1-0.5-1-0.1-1c0,0,0,0,0.1,0c2.5,0.3,5.8,0.4,9.1,0.4c2.6,0,4.9-0.1,6.7-0.4c0,0,0,0,0,0
				c0.5,0,0.2,1,0.1,1c-4.8,0.4-4.9,1-4.9,9.4v9.4h22.2v-9.4c0-8.7-0.4-8.8-4.9-9.4c-0.3-0.1-0.4-1-0.1-1c0,0,0,0,0.1,0
				c2.5,0.3,4.7,0.4,8.1,0.4c2.5,0,5.9-0.1,7.8-0.4c0,0,0,0,0.1,0c0.4,0,0.3,1,0,1c-6.1,0.5-5.9,0.9-5.9,9.4V75
				c7.2-0.4,11-4.6,11-12.3V48.6c0-7.4-0.5-8.3-5.7-8.8c-0.3-0.1-0.5-1,0-1c0,0,0,0,0,0c2.5,0.3,4,0.4,7.4,0.4c2.5,0,4.2-0.1,6-0.4
				c0,0,0,0,0,0c0.5,0,0.4,1,0.1,1C77.8,40.2,77.6,41.5,77.6,48.6z M67.6,42.1c0.4,0.3,0.9,0.6,1.5,0.7l0.1,0l0.1,0
				c1.7,0.2,2.4,0.4,2.6,0.5c0.4,0.8,0.4,4,0.4,5.2v14.1c0,4.7-1.5,7.4-4.7,8.5V42.1z"/>
			<path fill="#ABABAB" d="M37.1,52.4l9.2,9.6V49.1c0-8.1-0.2-8.8-5.5-9.4c-0.2,0-0.4-1,0-1c0,0,0,0,0.1,0c2.5,0.3,3.9,0.4,7.3,0.4
				c2.5,0,4.2-0.1,5.9-0.4c0,0,0,0,0.1,0c0.6,0,0.4,0.9,0,1c-5.4,0.5-5.4,1.6-5.4,9.4v11.1c0,0.4,0,1,0,1.5l0,0
				c0,7.4,5.4,11.4,10.6,12.7V28.9H37.1V52.4z M51.8,57.5v-8.4c0-2.5,0-5.1,0.3-5.9c0.2-0.1,0.8-0.2,2.2-0.4l0.1,0l0.1,0
				c0.6-0.1,1.2-0.3,1.6-0.7v27.5c-2.2-1.4-4.3-3.9-4.3-7.9L51.8,57.5L51.8,57.5z M56.1,36c-0.6-0.4-1.3-0.7-2.1-0.7
				c-0.1,0-0.2,0-0.3,0l-0.1,0l-0.1,0c-1.4,0.2-2.9,0.3-5.5,0.3c-3.4,0-4.6-0.1-6.8-0.3c-0.2,0-0.3,0-0.5,0c-0.2,0-0.3,0-0.5,0v-3.6
				h15.9V36z M43.1,49.1v5l-2.8-3v-8.2c0.1,0,0.1,0,0.2,0c1.2,0.1,2,0.3,2.3,0.4C43.1,44.2,43.1,47.3,43.1,49.1z"/>
		</g>
		<g>
			<path fill="none" d="M44,48.3c0-2.6,0-5.6-0.5-6.4c-0.2-0.4-1.4-0.6-3-0.8c-0.5,0-0.9-0.2-1.2-0.5v10.1l4.8,5V48.3z"/>
			<path fill="none" d="M39.3,36.2c0.4-0.3,0.9-0.5,1.4-0.5l0,0c0.1,0,0.3,0,0.4,0c2.3,0.3,3.6,0.3,6.9,0.3c2.3,0,3.8-0.1,5.6-0.3
				l0,0l0,0c0.1,0,0.2,0,0.3,0c1.4,0,2.5,1,2.6,2.4c0.1,1.5-0.9,2.8-2.2,3l-0.1,0l-0.1,0c-2.4,0.2-2.8,0.5-2.9,0.8
				c-0.4,0.8-0.4,3.2-0.4,6.4v9.4l0,0v3.2c0,5.4,3.5,8.2,6.2,9.6V30.2H39.3V36.2z"/>
			<path fill="#C22033" d="M83.3,38.9c0.3,0,0.5-1-0.1-1c0,0,0,0,0,0c-1.8,0.2-3.5,0.4-6,0.4c-3.5,0-4.9-0.1-7.4-0.4c0,0,0,0,0,0
				c-0.5,0-0.3,0.9,0,1c5.2,0.6,5.7,1.4,5.7,8.8v14.1c0,7.7-3.8,11.6-11,12V17c0-8.5-0.2-8.8,5.9-9.4c0.3,0,0.4-1,0-1c0,0,0,0-0.1,0
				C68.4,6.8,65,7,62.5,7c-3.5,0-5.6-0.1-8.1-0.3c0,0,0,0-0.1,0c-0.4,0-0.2,0.9,0.1,1c4.5,0.5,4.9,0.6,4.9,9.4v9.4H37.1V17
				c0-8.4,0.1-9,4.9-9.4c0.2,0,0.5-1-0.1-1c0,0,0,0,0,0C40.1,6.8,37.7,7,35.2,7c-3.3,0-6.6-0.1-9.1-0.3c0,0,0,0-0.1,0
				c-0.4,0-0.2,0.9,0.1,1c5.9,0.7,6,0.5,6,9.4v29.2L18.4,31.9c-3.5,0-5.7-0.1-8.2-0.4c0,0,0,0,0,0c-0.5,0-0.2,1,0,1
				c2.8,0.4,6.6,3.7,6.6,6.4v20.6c0,8.1-0.3,8.7-5.5,9.3c-0.2,0-0.5,1.1,0,1.1c0,0,0,0,0,0c2.5-0.3,3.9-0.4,7.3-0.4
				c2.5,0,4,0.1,5.9,0.4c0,0,0,0,0,0c0.5,0,0.2-1.1,0.1-1.1c-5.4-0.4-5.4-1.5-5.4-9.3V39.9l28.5,29.8c4.7,4.5,9,7.3,14.2,7.3
				c10.4,0,15.8-6.7,15.8-14.6V47.7C77.6,40.6,77.8,39.4,83.3,38.9z M59.3,73.6c-5.2-1.4-10.6-5.4-10.6-12.7l0,0c0-0.5,0-1.1,0-1.5
				V48.3c0-7.8,0-8.9,5.4-9.4c0.4-0.1,0.6-1,0-1c0,0,0,0-0.1,0c-1.8,0.2-3.4,0.4-5.9,0.4c-3.4,0-4.8-0.1-7.3-0.4c0,0,0,0-0.1,0
				c-0.4,0-0.2,1,0,1c5.3,0.6,5.5,1.2,5.5,9.4v12.9l-9.2-9.6V28h22.2V73.6z"/>
			<path fill="#DBDCD6" d="M85.3,36.8c-0.5-0.7-1.3-1.1-2.1-1.1h-0.1l-0.2,0l0,0l0,0C81,35.9,79.4,36,77.2,36
				c-3.5,0-4.8-0.1-7.2-0.3l-0.1,0l-0.2,0l0,0c-1.3,0-2.4,1-2.5,2.3c-0.1,1.3,0.6,2.8,2.1,3.1l0.1,0l0.1,0c2.1,0.2,3,0.5,3.2,0.9
				c0.5,0.8,0.6,3.4,0.6,5.8v14.1c0,5.7-2.1,8.8-6.6,9.8V17v-0.7c0-2.8,0-5.3,0.4-5.9c0.2-0.3,2.5-0.5,3.5-0.6
				c1.3-0.1,2.3-1.2,2.3-2.8c0-1.5-1.1-2.6-2.4-2.6c-0.1,0-0.3,0-0.4,0c-1.8,0.2-5.1,0.3-7.4,0.3c-3.3,0-5.4-0.1-7.8-0.3
				c-0.1,0-0.3,0-0.4,0c-1.3,0-2.3,1-2.4,2.3c-0.1,1.3,0.5,2.8,2,3.1l0.1,0l0.1,0c0.9,0.1,2.2,0.3,2.5,0.5c0.5,0.6,0.5,4.7,0.5,6.7
				v7.2H39.3V17c0-3,0-5.8,0.4-6.7c0.2-0.3,1.7-0.4,2.4-0.5c1.3-0.1,2.3-1.3,2.3-2.8c0-1.5-1.1-2.6-2.5-2.6h-0.1l-0.2,0l0,0l0,0
				c-1.7,0.2-3.9,0.3-6.5,0.3c-2.8,0-6.3,0-8.8-0.3c-0.1,0-0.3,0-0.4,0c-1.3,0-2.3,1-2.4,2.3c-0.1,1.3,0.5,2.8,2,3.1l0.1,0l0.1,0
				l0.5,0.1c1.4,0.2,2.9,0.3,3.2,0.6c0.4,0.5,0.4,3.6,0.4,6.5v23.7L20,30.3l-0.6-0.7h-0.9c-3.3,0-5.5-0.1-7.9-0.4l-0.1,0l-0.2,0
				c-0.9,0-1.7,0.5-2.1,1.2c-0.6,1-0.3,2.2,0.1,3c0.4,0.7,1,1.1,1.8,1.2c1.9,0.3,4.6,2.9,4.6,4.2v20.6c0,2.5,0,5.5-0.5,6.4
				c-0.2,0.3-1.3,0.5-3,0.7c-1.5,0.1-2.3,1.5-2.3,2.9c0,1.5,1.1,2.6,2.5,2.6h0.1l0.2,0c2.3-0.3,3.7-0.3,7.1-0.3c2.5,0,4,0.1,5.6,0.3
				l0,0l0,0l0.1,0l0.2,0c0.9,0,1.7-0.5,2.1-1.2c0.2-0.4,0.4-0.9,0.4-1.4c0-1.6-1-2.8-2.3-2.9c-1.9-0.1-2.8-0.4-2.9-0.7
				c-0.4-0.8-0.4-3.3-0.4-6.4v-14L45.8,71c4.7,4.8,9.1,8.2,16,8.2c12.4,0,18-8.5,18-16.8V47.7c0-2.3,0-4.9,0.5-5.8
				c0.2-0.3,0.7-0.6,3.1-0.9c1.3-0.1,2.3-1.3,2.3-2.7C85.7,37.8,85.6,37.3,85.3,36.8z M77.6,62.4c0,8-5.4,14.9-15.8,14.6
				c-6.1-0.1-11-4.1-14.2-7.3L19.1,39.9v19.4c0,7.8,0,8.8,5.4,9.3c0.2,0,0.5,1.1-0.1,1.1c0,0,0,0,0,0c-1.8-0.2-3.4-0.4-5.9-0.4
				c-3.5,0-4.9,0.1-7.3,0.4c0,0,0,0,0,0c-0.5,0-0.2-1.1,0-1.1c5.2-0.5,5.5-1.1,5.5-9.3V38.8c0-2.6-3.8-6-6.6-6.4c-0.2,0-0.5-1,0-1
				c0,0,0,0,0,0c2.5,0.3,4.7,0.4,8.2,0.4L32,46.2V17c0-8.9-0.1-8.7-6-9.4c-0.3-0.1-0.4-1-0.1-1c0,0,0,0,0.1,0
				C28.5,6.9,31.8,7,35.2,7c2.6,0,4.9-0.1,6.7-0.3c0,0,0,0,0,0c0.5,0,0.2,1,0.1,1c-4.8,0.4-4.9,1-4.9,9.4v9.4h22.2V17
				c0-8.7-0.4-8.8-4.9-9.4c-0.3-0.1-0.4-1-0.1-1c0,0,0,0,0.1,0C56.9,6.9,59,7,62.5,7c2.5,0,5.9-0.1,7.8-0.3c0,0,0,0,0.1,0
				c0.4,0,0.3,1,0,1c-6.1,0.5-5.9,0.9-5.9,9.4v56.8c7.2-0.4,11-4.3,11-12V47.7c0-7.4-0.5-8.3-5.7-8.8c-0.3-0.1-0.5-1,0-1
				c0,0,0,0,0,0c2.5,0.3,4,0.4,7.4,0.4c2.5,0,4.2-0.1,6-0.4c0,0,0,0,0,0c0.5,0,0.4,1,0.1,1c-5.4,0.5-5.7,1.8-5.7,8.8V62.4z"/>
			<path fill="#DBDCD6" d="M37.1,51.5l9.2,9.6V48.3c0-8.1-0.2-8.8-5.5-9.4c-0.2,0-0.4-1,0-1c0,0,0,0,0.1,0c2.5,0.3,3.9,0.4,7.3,0.4
				c2.5,0,4.2-0.1,5.9-0.4c0,0,0,0,0.1,0c0.6,0,0.4,0.9,0,1c-5.4,0.5-5.4,1.6-5.4,9.4v11.1c0,0.4,0,1,0,1.5l0,0
				c0,7.4,5.4,11.4,10.6,12.7V28H37.1V51.5z M57.1,70.4c-2.8-1.4-6.2-4.1-6.2-9.6v-3.2l0,0v-9.4c0-3.2,0-5.6,0.4-6.4
				c0.1-0.3,0.6-0.5,2.9-0.8l0.1,0l0.1,0c1.4-0.2,2.4-1.5,2.2-3c-0.1-1.4-1.2-2.4-2.6-2.4c-0.1,0-0.2,0-0.3,0l0,0l0,0
				C51.9,36,50.3,36,48.1,36c-3.4,0-4.7-0.1-6.9-0.3c-0.1,0-0.3,0-0.4,0l0,0c-0.5,0-1,0.2-1.4,0.5v-6h17.8V70.4z M39.3,40.6
				c0.4,0.3,0.8,0.5,1.2,0.5c1.7,0.2,2.8,0.4,3,0.8c0.5,0.8,0.5,3.8,0.5,6.4v7.4l-4.8-5V40.6z"/>
		</g>
	</g>
</g>
</svg>
