<?xml version="1.0" encoding="utf-8"?>
<!-- Generator: Adobe Illustrator 18.0.0, SVG Export Plug-In . SVG Version: 6.00 Build 0)  -->
<!DOCTYPE svg PUBLIC "-//W3C//DTD SVG 1.1//EN" "http://www.w3.org/Graphics/SVG/1.1/DTD/svg11.dtd">
<svg version="1.1" id="Layer_1" xmlns="http://www.w3.org/2000/svg" xmlns:xlink="http://www.w3.org/1999/xlink" x="0px" y="0px"
	 viewBox="0 0 50 50" enable-background="new 0 0 50 50" xml:space="preserve">
<g>
	<path fill="#8C8C84" d="M27.5,37.2h-4.9v-4.9h4.9V37.2z"/>
	<g>
		<path fill="#8C8C84" d="M25,5.4c10.8,0,19.6,8.8,19.6,19.6S35.8,44.6,25,44.6S5.4,35.8,5.4,25S14.2,5.4,25,5.4 M25,0.5
			C11.5,0.5,0.5,11.5,0.5,25s11,24.5,24.5,24.5s24.5-11,24.5-24.5S38.5,0.5,25,0.5L25,0.5z"/>
	</g>
	<g>
		<path fill="#8C8C84" d="M22.5,29.9c0-3.4,1.5-4.7,2.7-5.9c0.7-0.5,1.2-1.2,1.5-2c0.5-0.7,0.5-1.5,0.5-2.5s-0.2-1.7-0.7-2.5
			c-0.5-0.5-1-1-2-1c-0.7,0-2.4,0.2-2.4,3.7h-4.4v-1c0-2.2,0.7-3.7,2-4.9c1.5-0.7,3.2-1.2,5.1-1.2c2.5,0,4.2,0.5,5.4,2
			c1.2,1.5,2,2.9,2,4.9c0,5.9-4.9,6.1-4.9,10.3H22.5z"/>
	</g>
</g>
</svg>
