<?xml version="1.0" encoding="utf-8"?>
<!-- Generator: Adobe Illustrator 18.0.0, SVG Export Plug-In . SVG Version: 6.00 Build 0)  -->
<!DOCTYPE svg PUBLIC "-//W3C//DTD SVG 1.1//EN" "http://www.w3.org/Graphics/SVG/1.1/DTD/svg11.dtd">
<svg version="1.1" id="Layer_1" xmlns="http://www.w3.org/2000/svg" xmlns:xlink="http://www.w3.org/1999/xlink" x="0px" y="0px"
	 viewBox="0 0 792 1224" enable-background="new 0 0 792 1224" xml:space="preserve">
<g id="_x34_jLXyY_1_">
	<g>
		<g>
			<path fill="#B51F33" d="M217,977.9c11.1-14.3,20.6-30.1,31.7-42.8c14.3-19,31.7-38,50.7-52.3c4.8-3.2,6.3-11.1,3.2-15.8
				c0-1.6-1.6-1.6-3.2-1.6c-19-4.8-36.4-7.9-55.4-14.3c-14.3-4.8-28.5-11.1-39.6-20.6s-15.8-20.6-17.4-34.8c0-4.8,0-9.5-1.6-14.3
				c0-1.6-1.6-4.8-3.2-6.3c-3.2-3.2-6.3-4.8-9.5-7.9c-4.8-3.2-9.5-7.9-6.3-15.8c-3.2-1.6-6.3-1.6-9.5-3.2
				c-9.5-3.2-12.7-7.9-12.7-17.4c0-7.9,0-17.4,1.6-25.3c0-3.2-1.6-4.8-4.8-6.3c-6.3-3.2-12.7-6.3-19-9.5c-7.9-6.3-9.5-12.7-4.8-22.2
				c4.8-7.9,9.5-14.3,14.3-20.6c7.9-11.1,15.8-20.6,17.4-34.8c1.6-12.7,1.6-26.9-6.3-38c-9.5-12.7-14.3-28.5-15.8-44.4
				s-3.2-31.7-3.2-49.1c0-38,7.9-76,26.9-109.3c1.6-1.6,1.6-3.2,3.2-6.3c-6.3-1.6-12.7-3.2-19-6.3c-9.5-4.8-17.4-12.7-17.4-25.3
				c6.3,12.7,17.4,19,30.1,22.2c3.2,0,6.3,1.6,9.5,1.6c3.2,0,6.3-3.2,9.5-9.5c-14.3-3.2-23.8-11.1-28.5-25.3
				c-3.2-7.9-3.2-17.4,1.6-25.3c3.2,4.8,4.8,9.5,7.9,14.3c9.5,12.7,20.6,15.8,36.4,14.3c1.6,0,3.2-1.6,3.2-1.6
				c20.6-20.6,47.5-33.3,72.9-47.5c39.6-20.6,80.8-33.3,125.1-39.6c15.8-1.6,31.7-3.2,47.5-4.8c15.8,0,30.1-1.6,45.9,0
				c28.5,1.6,58.6,6.3,79.2,26.9c17.4,17.4,39.6,30.1,58.6,47.5c30.1,28.5,49.1,61.8,55.4,103c1.6,11.1,3.2,22.2,3.2,34.8
				c0,15.8,1.6,31.7,0,45.9c-3.2,38-7.9,74.4-19,109.3c-9.5,31.7-20.6,61.8-39.6,87.1c-7.9,11.1-15.8,20.6-26.9,28.5
				c-4.8,3.2-11.1,6.3-17.4,9.5c-31.7,11.1-49.1,33.3-53.9,66.5c-1.6,9.5,0,19,0,28.5c0,3.2,1.6,4.8,4.8,4.8
				c4.8,1.6,9.5,4.8,11.1,9.5c19,31.7,30.1,64.9,38,101.4c1.6,6.3,1.6,14.3,3.2,20.6c0,3.2,0,4.8-4.8,6.3
				c-19,4.8-36.4,9.5-55.4,12.7c-25.3,4.8-50.7,7.9-76,11.1c-17.4,1.6-36.4,3.2-53.9,3.2c-19,0-39.6,0-58.6,0
				c-36.4-1.6-71.3-6.3-107.7-12.7C218.6,979.5,218.6,977.9,217,977.9z"/>
		</g>
	</g>
</g>
</svg>
