<?xml version="1.0" encoding="utf-8"?>
<!-- Generator: Adobe Illustrator 17.1.0, SVG Export Plug-In . SVG Version: 6.00 Build 0)  -->
<!DOCTYPE svg PUBLIC "-//W3C//DTD SVG 1.1//EN" "http://www.w3.org/Graphics/SVG/1.1/DTD/svg11.dtd">
<svg version="1.1" id="Layer_1" xmlns="http://www.w3.org/2000/svg" xmlns:xlink="http://www.w3.org/1999/xlink" x="0px" y="0px"
	 viewBox="0 0 50 50" enable-background="new 0 0 50 50" xml:space="preserve">
<g>
	<path fill="#575347" stroke="#575347" stroke-width="0.5" stroke-miterlimit="10" d="M25.3,14.7L18,20.6h-5.7v4.5l0,0l0,0v4.5H18
		l7.3,5.7v-5.7h0v-9h0V14.7z M24.3,28.6L24.3,28.6l0,1v3.7l-5.7-4.5l-0.3-0.2H18h-4.7v-3.5v0v-3.5H18h0.3l0.3-0.2l5.7-4.5v3.8l0,1
		V28.6z"/>
	<path fill="#575347" stroke="#575347" stroke-width="0.5" stroke-miterlimit="10" d="M27.6,20c1.1,1.4,1.7,3.2,1.7,5
		c0,1.9-0.6,3.6-1.7,5.1l0.8,0.6c1.3-1.6,1.9-3.6,1.9-5.7c0-2-0.6-4-1.9-5.6L27.6,20z"/>
	<path fill="#575347" stroke="#575347" stroke-width="0.5" stroke-miterlimit="10" d="M31.7,16.3L30.9,17c1.9,2.3,2.9,5.2,2.9,8.1
		c0,2.9-1,5.7-2.8,7.9l0.8,0.6c2-2.5,3-5.4,3-8.6C34.8,21.9,33.7,18.8,31.7,16.3z"/>
	<path fill="#575347" stroke="#575347" stroke-width="0.5" stroke-miterlimit="10" d="M34.8,13.1L34,13.8c2.8,3.1,4.3,7.2,4.3,11.3
		c0,4.1-1.5,8.1-4.1,11.2l0.8,0.7c2.8-3.3,4.4-7.5,4.4-11.8C39.3,20.7,37.7,16.4,34.8,13.1z"/>
</g>
</svg>
