<?xml version="1.0" encoding="utf-8"?>
<!-- Generator: Adobe Illustrator 18.0.0, SVG Export Plug-In . SVG Version: 6.00 Build 0)  -->
<!DOCTYPE svg PUBLIC "-//W3C//DTD SVG 1.1//EN" "http://www.w3.org/Graphics/SVG/1.1/DTD/svg11.dtd">
<svg version="1.1" id="Layer_1" xmlns="http://www.w3.org/2000/svg" xmlns:xlink="http://www.w3.org/1999/xlink" x="0px" y="0px"
	 viewBox="0 0 50 50" enable-background="new 0 0 50 50" xml:space="preserve">
<g>
	<path fill="#575347" d="M31.8,14.4c0,0-0.1,0-0.1,0h-1.8v-1c0-0.2-0.2-0.4-0.4-0.4c-0.2,0-0.4,0.2-0.4,0.4v1h-1.9v-1
		c0-0.2-0.2-0.4-0.4-0.4c-0.2,0-0.4,0.2-0.4,0.4v1h-1.9v-1c0-0.2-0.2-0.4-0.4-0.4c-0.2,0-0.4,0.2-0.4,0.4v1h-1.9v-1
		c0-0.2-0.2-0.4-0.4-0.4c-0.2,0-0.4,0.2-0.4,0.4v1H19c0,0-0.1,0-0.1,0c-1,0-1.7,0.8-1.7,1.8v4.1v16.5c0,0.2,0.2,0.4,0.4,0.4h15.6
		c0.2,0,0.4-0.2,0.4-0.4V20.3v-4.1C33.6,15.2,32.8,14.4,31.8,14.4z M18,16.2c0-0.5,0.4-1,1-1h0h1.9v1c0,0.2,0.2,0.4,0.4,0.4
		c0.2,0,0.4-0.2,0.4-0.4v-1h1.9v1c0,0.2,0.2,0.4,0.4,0.4c0.2,0,0.4-0.2,0.4-0.4v-1h1.9v1c0,0.2,0.2,0.4,0.4,0.4
		c0.2,0,0.4-0.2,0.4-0.4v-1h1.9v1c0,0.2,0.2,0.4,0.4,0.4c0.2,0,0.4-0.2,0.4-0.4v-1h1.9c0,0,0,0,0,0c0.5,0,1,0.4,1,1v3.7H18V16.2z
		 M32.7,22.7H18v-1.9h14.7V22.7z M18,31.8h14.7v1.9H18V31.8z M18,30.9V29h14.7v1.9H18z M18,28.2v-1.9h14.7v1.9H18z M18,25.4v-1.9
		h14.7v1.9H18z M18,36.4v-1.9h14.7v1.9H18z"/>
</g>
</svg>
