<?xml version="1.0" encoding="utf-8"?>
<!-- Generator: Adobe Illustrator 17.1.0, SVG Export Plug-In . SVG Version: 6.00 Build 0)  -->
<!DOCTYPE svg PUBLIC "-//W3C//DTD SVG 1.0//EN" "http://www.w3.org/TR/2001/REC-SVG-20010904/DTD/svg10.dtd">
<svg version="1.0" id="Layer_1" xmlns="http://www.w3.org/2000/svg" xmlns:xlink="http://www.w3.org/1999/xlink" x="0px" y="0px"
	 viewBox="0 0 50 50" enable-background="new 0 0 50 50" xml:space="preserve">
<g>
	<rect fill="#8C8C84" width="50" height="50"/>
	<g id="Search_8_">
		<path fill="#FFFFFF" d="M37.4,33.3l-5.7-5.7c-0.1-0.1-0.2-0.1-0.3-0.2c1-1.6,1.6-3.4,1.6-5.4c0-5.5-4.5-10-10-10
			c-5.5,0-10,4.5-10,10c0,5.5,4.5,10,10,10c2,0,3.9-0.6,5.4-1.6c0.1,0.1,0.1,0.2,0.2,0.3l5.7,5.7c0.4,0.4,1,0.6,1.5,0.6
			c0.5,0,1.1-0.2,1.5-0.6C38.2,35.5,38.2,34.2,37.4,33.3z M15.9,22c0-3.9,3.2-7.1,7.1-7.1c3.9,0,7.1,3.2,7.1,7.1
			c0,3.9-3.2,7.1-7.1,7.1C19.1,29.1,15.9,25.9,15.9,22z"/>
	</g>
</g>
</svg>
