<?xml version="1.0" encoding="utf-8"?>
<!-- Generator: Adobe Illustrator 18.0.0, SVG Export Plug-In . SVG Version: 6.00 Build 0)  -->
<!DOCTYPE svg PUBLIC "-//W3C//DTD SVG 1.1//EN" "http://www.w3.org/Graphics/SVG/1.1/DTD/svg11.dtd">
<svg version="1.1" id="Layer_1" xmlns="http://www.w3.org/2000/svg" xmlns:xlink="http://www.w3.org/1999/xlink" x="0px" y="0px"
	 viewBox="455 255 50 50" enable-background="new 455 255 50 50" xml:space="preserve">
<g>
	<g id="Search_8_">
		<path fill="#FFFFFF" d="M500.9,295.4l-10-10c-0.2-0.2-0.4-0.2-0.5-0.4c1.8-2.8,2.8-6,2.8-9.5c0-9.7-7.9-17.6-17.6-17.6
			s-17.6,7.9-17.6,17.6c0,9.7,7.9,17.6,17.6,17.6c3.5,0,6.8-1.1,9.5-2.8c0.2,0.2,0.2,0.4,0.4,0.5l10,10c0.7,0.7,1.8,1.1,2.6,1.1
			c0.9,0,1.9-0.4,2.6-1.1C502.3,299.3,502.3,297,500.9,295.4z M463.2,275.6c0-6.8,5.6-12.5,12.5-12.5c6.8,0,12.5,5.6,12.5,12.5
			c0,6.8-5.6,12.5-12.5,12.5C468.8,288.1,463.2,282.5,463.2,275.6z"/>
	</g>
</g>
</svg>
