<?xml version="1.0" encoding="utf-8"?>
<!-- Generator: Adobe Illustrator 18.0.0, SVG Export Plug-In . SVG Version: 6.00 Build 0)  -->
<!DOCTYPE svg PUBLIC "-//W3C//DTD SVG 1.1//EN" "http://www.w3.org/Graphics/SVG/1.1/DTD/svg11.dtd">
<svg version="1.1" id="Layer_1" xmlns="http://www.w3.org/2000/svg" xmlns:xlink="http://www.w3.org/1999/xlink" x="0px" y="0px"
	 viewBox="370 130 40 40" enable-background="new 370 130 40 40" xml:space="preserve">
<g id="Layer_1_1_" display="none">
	<g display="inline">
		<g>
			<path fill="#B50430" d="M484.8,104.4c-0.6-5.4-0.6-10.8-1.8-16.2c-6.6-36-35.4-63.6-72-68.4C375.6,15,340.2,33.6,324.6,66
				c-4.2,8.4-6.6,17.4-7.8,26.4c-0.6,5.4,2.4,9.6,7.8,10.8c4.8,0.6,9.6-2.4,10.8-7.8c0-1.2,0.6-2.4,0.6-4.2c4.8-27,26.4-48,54-52.8
				c26.4-4.8,54,8.4,67.2,31.8c12,21,11.4,43.2,3,65.4c-4.8,13.2-14.4,23.4-24.6,32.4c-8.4,7.2-16.8,13.8-24.6,21.6
				c-13.2,12.6-20.4,27.6-20.4,46.2c0,13.8-12.6,26.4-26.4,26.4c-13.2,0.6-24.6-7.8-28.8-20.4c-0.6-2.4-2.4-4.8-4.2-6
				c-3-2.4-7.2-2.4-10.2,0c-3,2.4-4.8,6-3.6,10.2c4.8,21,25.8,36,48,34.8c22.2-1.2,40.8-18.6,43.8-40.2c0.6-4.8,0.6-10.2,1.2-15
				c1.8-10.2,7.8-18,15.6-24.6c7.2-6.6,14.4-13.2,22.2-19.2C471.6,162,484.8,136.8,484.8,104.4z M372,108c0-2.4,0-4.2,0-5.4
				c0.6-16.8,16.2-29.4,32.4-26.4c13.8,2.4,23.4,13.2,24,27.6c0,5.4,4.2,9.6,9.6,9.6s9.6-4.2,9-10.2c0-3.6-0.6-6.6-1.2-10.2
				c-4.8-21.6-25.2-37.2-48-36c-22.2,1.2-41.4,18.6-43.8,40.8c-0.6,7.8-0.6,15.6-0.6,23.4c0,7.2,3,10.2,10.2,10.8
				c12,0.6,19.8,12,17.4,23.4c-1.8,8.4-9,13.8-18,14.4c-7.2,0-11.4,6.6-9,13.2c1.8,4.2,5.4,6,11.4,5.4c16.8-1.2,31.2-13.8,34.2-30.6
				c3-16.8-5.4-33.6-21.6-40.8C373.2,114.6,370.2,112.8,372,108z"/>
			<path fill="#B50430" d="M484.8,104.4c0,31.8-12.6,57.6-37.2,78c-7.2,6-15,12.6-22.2,19.2c-7.2,6.6-13.2,14.4-15.6,24.6
				c-1.2,4.8-0.6,9.6-1.2,15c-2.4,21.6-21.6,39-43.8,40.2c-22.2,1.2-42.6-13.8-48-34.8c-1.2-4.2,0.6-7.8,3.6-10.2
				c3-2.4,7.8-2.4,10.2,0c1.8,1.8,3.6,3.6,4.2,6c4.2,12.6,15,21,28.8,20.4c13.8-0.6,26.4-12.6,26.4-26.4c0-18.6,7.2-33.6,20.4-46.2
				c7.8-7.2,16.2-14.4,24.6-21.6c10.2-9,19.8-19.2,24.6-32.4c7.8-22.2,9-44.4-3-65.4c-13.2-23.4-40.8-36.6-67.2-31.8
				c-27.6,4.8-49.2,25.8-54,52.8c0,1.2-0.6,3-0.6,4.2c-1.2,5.4-6,8.4-10.8,7.8c-4.8-1.2-8.4-5.4-7.8-10.8c1.2-9,4.2-18,7.8-26.4
				c16.2-32.4,51-51,86.4-46.2c36.6,4.8,65.4,32.4,72,68.4C483.6,94.2,484.2,99,484.8,104.4z"/>
			<path fill="#B50430" d="M372,108c-1.8,4.8,1.2,6.6,6,9c15.6,6.6,24.6,24,21.6,40.8s-17.4,29.4-34.2,30.6
				c-5.4,0.6-9.6-1.2-11.4-5.4c-3-6,1.8-12.6,9-13.2c9-0.6,15.6-6,18-14.4c3-11.4-5.4-22.8-17.4-23.4c-7.2-0.6-10.2-3.6-10.2-10.8
				c0-7.8-0.6-15.6,0.6-23.4c2.4-22.2,21.6-39.6,43.8-40.8c22.8-1.2,43.2,14.4,48,36c0.6,3.6,1.2,6.6,1.2,10.2
				c0,5.4-4.2,10.2-9,10.2c-5.4,0-9-4.2-9.6-9.6c-0.6-14.4-9.6-25.2-24-27.6c-16.2-3-31.8,10.2-32.4,26.4
				C372,103.8,372,105.6,372,108z"/>
		</g>
	</g>
</g>
<g id="Layer_2" display="none">
	<g display="inline">
		<path fill="#B50430" d="M358.2,232.2c0,10.8-6.6,19.8-15.6,27s-20.4,11.4-31.2,11.4c-6.6,0-12.6-2.4-16.8-5.4
			c-4.2-3.6-6.6-9-6.6-15c0-9.6,6.6-19.2,15.6-26.4c9-7.2,20.4-12,29.4-12c8.4,0,15,1.2,19.2,5.4V36.6h6.6v195.6H358.2z"/>
		<rect x="352.2" y="23.4" fill="#B50430" width="142.2" height="13.8"/>
		<path fill="#B50430" d="M494.4,232.2c0,10.8-6.6,19.8-15.6,27s-20.4,11.4-31.2,11.4c-6.6,0-12.6-2.4-16.8-5.4
			c-4.2-3.6-7.2-8.4-7.2-15c0-9.6,6.6-19.2,15.6-26.4c9-7.2,20.4-12,29.4-12c8.4,0,15,1.2,19.2,5.4V36.6h6.6V232.2z"/>
	</g>
	<rect x="337.2" y="23.4" display="inline" fill="#B50430" width="19.2" height="203.4"/>
	<rect x="475.2" y="23.4" display="inline" fill="#B50430" width="19.2" height="203.4"/>
</g>
<g id="Layer_3">
	<g>
		<g>
			<path fill="#B50430" d="M377.4,168c-2.8,0-5.1-2.6-4.7-5.4c0.4-2.8,3.3-4.6,6-3.8c0.2,0.1,0.4,0,0.6-0.2c1.2-1.2,2.5-2.5,3.7-3.7
				c0.1,0,0.1-0.1,0.2-0.2c-0.8-0.8-1.7-1.6-2.4-2.4c-1.2-1.2-1.2-2.9,0-4.1c4-4,8-8,12.1-12.1c1-1,1.9-1.9,2.9-2.9h0.1
				c0.7,0.7,1.4,1.5,2.2,2.2c0.2,0.2,0.4,0.3,0.7,0.7c-0.3,0.3-0.7,0.7-1,1c-4,4-8,8-12,12c-0.6,0.6-0.8,1.2-0.6,2
				c0.1,0.2,0.2,0.5,0.5,0.7c1.1,1.2,2.2,2.2,3.4,3.4c0.8,0.8,1.8,0.8,2.7,0c3.3-3.3,6.6-6.6,9.9-9.9c1-1,1.9-1.9,2.9-2.9
				c0.1-0.1,0.2-0.2,0.2-0.2c0.4,0.4,0.8,0.8,1.2,1.2c0.5,0.5,1.1,1,1.6,1.5v0.1c-0.1,0.1-0.1,0.1-0.2,0.2c-2.7,2.7-5.5,5.5-8.2,8.2
				c-2.2,2.2-4.4,4.4-6.6,6.6c-1.2,1.2-2.8,1.2-4.1,0c-0.5-0.4-0.9-0.9-1.3-1.3s-0.7-0.7-1.2-1.2c-0.1,0.2-0.2,0.2-0.2,0.2
				c-1.2,1.2-2.5,2.4-3.7,3.6c-0.2,0.2-0.2,0.3-0.2,0.6c0.8,2.8-1.2,5.7-4,6C377.9,168,377.6,168,377.4,168z"/>
		</g>
	</g>
</g>
</svg>
