<?xml version="1.0" encoding="utf-8"?>
<!-- Generator: Adobe Illustrator 18.0.0, SVG Export Plug-In . SVG Version: 6.00 Build 0)  -->
<!DOCTYPE svg PUBLIC "-//W3C//DTD SVG 1.1//EN" "http://www.w3.org/Graphics/SVG/1.1/DTD/svg11.dtd">
<svg version="1.1" id="Layer_1" xmlns="http://www.w3.org/2000/svg" xmlns:xlink="http://www.w3.org/1999/xlink" x="0px" y="0px"
	 viewBox="0 0 960 560" enable-background="new 0 0 960 560" xml:space="preserve">
<g>
	<path fill="#575347" stroke="#575347" stroke-width="0.5" stroke-miterlimit="10" d="M679.8,272.9H289.7c-4.2,0-7.6,3.4-7.6,7.7
		c0,4.2,3.4,7.6,7.6,7.6h390.1c4.2,0,7.7-3.4,7.7-7.6C687.4,276.4,684,272.9,679.8,272.9z"/>
	<path fill="#575347" stroke="#575347" stroke-width="0.5" stroke-miterlimit="10" d="M394.8,264.5c4.2,0,7.6-3.4,7.6-7.7V236h36.1
		v20.8c0,4.2,3.4,7.7,7.6,7.7c4.2,0,7.7-3.4,7.7-7.7v-24.1L567,164.8v92.1c0,4.2,3.4,7.7,7.7,7.7c4.2,0,7.6-3.4,7.6-7.7V151.2
		c0-2.7-1.5-5.3-3.9-6.7c-2.4-1.3-5.3-1.3-7.7,0.1l-126.6,76h-49.3c-4.2,0-7.7,3.4-7.7,7.6v28.5C387.1,261,390.6,264.5,394.8,264.5z
		"/>
	<path fill="#575347" stroke="#575347" stroke-width="0.5" stroke-miterlimit="10" d="M574.7,295.1c-4.2,0-7.7,3.4-7.7,7.7v92
		l-113.2-67.9v-24.1c0-4.2-3.4-7.7-7.7-7.7c-4.2,0-7.6,3.4-7.6,7.7v20.8h-36.1v-20.8c0-4.2-3.4-7.7-7.6-7.7c-4.2,0-7.7,3.4-7.7,7.7
		v28.4c0,4.2,3.4,7.7,7.7,7.7h49.3l126.7,76c1.2,0.7,2.6,1.1,3.9,1.1c1.3,0,2.6-0.3,3.7-1c2.4-1.4,3.9-3.9,3.9-6.7V302.7
		C582.3,298.5,578.9,295.1,574.7,295.1z"/>
</g>
</svg>
