<?xml version="1.0" encoding="utf-8"?>
<!-- Generator: Adobe Illustrator 18.0.0, SVG Export Plug-In . SVG Version: 6.00 Build 0)  -->
<!DOCTYPE svg PUBLIC "-//W3C//DTD SVG 1.1//EN" "http://www.w3.org/Graphics/SVG/1.1/DTD/svg11.dtd">
<svg version="1.1" id="Layer_1" xmlns="http://www.w3.org/2000/svg" xmlns:xlink="http://www.w3.org/1999/xlink" x="0px" y="0px"
	 viewBox="0 0 792 1224" enable-background="new 0 0 792 1224" xml:space="preserve">
<g>
	<path fill="none" d="M535.9,549.4l15.9,3.2c4.1,1,8.3,2.1,12.6,3.1c-9.6-3.1-20.2-5.4-31.3-7C534,548.9,535,549.1,535.9,549.4z"/>
	<path fill="none" d="M534.9,460.8c4.2,0.9,8.3,1.9,12.3,3.1c8.4,2.2,18,4.7,28.2,7.3c-0.9-0.3-1.9-0.6-2.8-0.9
		C559.1,466,546.6,462.9,534.9,460.8z"/>
	<path fill="none" d="M574.2,731.6c-26.3-8.8-51.6-13.5-75.2-14.1c7.8,0.6,15.9,1.8,22.6,2.9l0.1,0c11.1,2.4,22.4,5.2,33.3,7.9
		c10.9,2.7,22.1,5.5,33.2,7.9l0.3,0.1l9.4,3.1c12.2,3,26.2,4.7,40.5,4.7c15.1,0,30.7-1.5,47.7-4.7c-14.5,2.3-28.1,3.4-41.4,3.4
		C618,742.8,595.6,739.2,574.2,731.6z"/>
	<path fill="none" d="M740.9,365.6h0.2c0.7-0.3,2.1-1.7,2.4-2.4v-45.7c-4.8,1.3-8.7,2.6-12.5,3.9c-32,11.8-61.8,17.6-91.1,17.6
		c-23.7,0-46.9-3.9-75.2-12.8l-0.1,0c-20.6-7.4-41.1-10.9-62.5-10.9c-34.8,0-67.8,11.5-98.2,34.2c-2.3,2.2-4.6,2.2-6.4,2.2
		c-1.7,0-3-0.8-4.6-1.8c-0.8-0.5-1.7-1.1-2.8-1.6c-7.4-3.4-14.7-7.3-21.7-11c-12.9-6.9-25.1-13.3-38.1-17.3l-0.1,0
		c-10.8-4-24.2-6.2-38.7-6.2c-18.9,0-39.2,3.4-65.7,11c-21.6,8.6-45.2,12.8-72.1,12.8c-25.9,0-52.8-4.3-79.9-12.8
		c-4.8-1.6-9.3-3.2-13.6-4.8c-3.3-1.2-6.6-2.4-10.1-3.6v4.4c0,49.9,0,101.4-1.6,149l0,395.9c0,4.7,1.9,7.3,6.2,8.7
		c3.7,1.1,7.3,2.2,10.9,3.3c11.5,3.5,22.4,6.9,33.2,9.3l0.1,0c15.2,4.1,32,6.2,50,6.2c18.6,0,37.6-3.2,56.2-9.4
		c14.4-5.2,29.8-9.4,44.7-13.4c3.1-0.8,6.2-1.7,9.2-2.5l0.3-0.1c2.3-0.3,4.5-0.7,6.5-1c7.8-1.2,14.6-2.2,22.3-2.2
		c29.7,0,55.3,13.1,76.3,38.8c2.7,2.7,8.3,5.5,12.4,5.5h45.9c7.7,0,11.5-1.7,15.4-6.9c18.9-25.2,42.9-37.4,73.3-37.4
		c8.2,0,16.3,1.6,24.2,3.2c15.9,3.2,32.1,8,48,14.4c19.6,8.4,41.1,12.5,65.6,12.5c34.1,0,65.8-9.5,92.5-18.8
		c2.7-1.4,4.8-3.8,4.8-5.6v-38.7h-0.5c-5.1,0.9-9.8,2.2-14.3,3.5c-3.7,1.1-7.2,2.1-10.7,2.8c-24.5,5.8-51.2,11.1-79.7,11.1
		c-21,0-38.3-2-56-6.4c-22.2-6.3-44.6-11.1-66.4-15.8c-9.2-1.5-18.8-3.1-28-3.1c-32.3,0-60.3,12.2-85.4,37.3c-1.6,1.6-3.5,3.5-7,5.2
		l-3.6,1.8V829c0-2.6,2.1-4.7,3.9-6.5c25.9-24.2,55.2-37.2,87.2-38.7l0.1,0h4.8c30.4,0,59.5,6.5,87.7,12.7l0.1,0
		c17.2,4.7,34.6,7.8,51.7,9.4h14.1c28.8,0,58.3-5.8,95.3-18.7c0.6-0.5,1.2-1,1.8-1.4c0.6-0.4,1.5-1.1,1.8-1.5v-40.6
		c-8.3,2.8-16.7,5.5-23.8,6.9c-29.2,8.6-55.8,12.7-81.4,12.7c-15,0-30.9-1.7-44.9-4.8c-31.4-7.8-56-13.4-77.5-17.4
		c-9.2-1.5-18.8-3.1-26.5-3.1c-32.3,0-60.3,12.2-85.4,37.3c-1.6,1.6-3.5,3.5-7,5.2l-3.6,1.8v-38.9c0-2.6,2.1-4.7,3.9-6.5
		c25.7-25.7,55.6-38.7,88.9-38.7h4.8c30.2,0,59.3,4.8,86.3,14.4c20,6.1,41.6,9.4,62.6,9.4c35.9,0,69.3-9.5,97.2-18.8
		c2.5-1.3,4.5-3.4,4.8-4.2v-39.4c-4.5,1.1-8.8,2-13,2.8c-6.5,1.3-12.5,2.6-18.6,4.3c-28.2,7.5-52.3,11.2-73.6,11.2
		c-9.7,0-19.5-1.6-28.9-3.2c-21.2-4-41-9-62-14.3c-4.2-1.1-8.4-2.1-12.7-3.2l-0.2-0.1c-12.5-4.2-26.3-6.2-42-6.2
		c-34.4,0-64.7,13.6-90.1,40.4l-0.7,0.8h-1.1c-1.5,0-2.2,0-3,0.9l-4.3,4.3v-38.3l0.3-0.5c1.7-3.4,3.3-6.7,5.2-8.6
		c25.3-25.3,56.6-38.7,90.5-38.7h1.6c29.1,0,58.8,5.2,91.1,16c20.8,6.4,39.7,9.4,59.4,9.4c35.9,0,69.3-9.5,97.2-18.8
		c2.5-1.3,4.5-3.4,4.8-4.2v-39.5c-13.1,2.9-26.4,5.9-38.1,8.8c-22.2,6.3-44.8,9.6-67.1,9.6c-12.8,0-25.8-1.6-38.6-4.8
		c-21.1-4-40.9-9-61.9-14.3c-4.2-1.1-8.4-2.1-12.6-3.2c-12.8-3.2-23.6-4.7-34.2-4.7c-31.9,0-61.1,13.1-86.9,38.9
		c-1.6,1.6-3.5,3.5-7,5.2l-3.6,1.8V574c0-2.2,1.9-4.5,5.5-8.1c25.7-25.7,55.6-38.7,88.9-38.7h4.8c24.8,0,52.1,4.5,76.8,12.8
		c23.2,8.7,45.9,12.5,73.7,12.5c30.1,0,60.9-5.6,94.1-17.2c4-2,6.4-4.5,6.4-5.6v-37.9c-1.4,0.4-2.8,0.8-4.1,1.2
		c-8,2.4-15.5,4.6-22.9,5.8c-30.8,7.7-54.4,11.1-76.5,11.1c-10,0-21.6-1.7-30.5-3.2c-21.2-4-41-9-62-14.3c-4.2-1.1-8.4-2.1-12.6-3.2
		l-0.2-0.1c-12.5-4.2-26.3-6.2-42-6.2c-33.2,0-61.9,12.5-87.9,38.3c-0.5,1.9-2.3,2.6-3.8,3.2c-0.6,0.3-1.4,0.6-2.2,1l-3.6,1.8V490
		c0-2.8,2.4-6.7,9.1-8.6c22.9-22.7,47-35.2,73.8-38.2c8.1-1.6,14.5-1.6,22.6-1.6c27.1,0,54,7.3,76.8,14.4c22.2,7.4,45.2,11,70.5,11
		c31.1,0,62.3-5.6,95.3-17.1c0.5-0.5,1.1-1,1.8-1.5c1-0.8,2.8-2.3,3.3-3V406c-6.2,1.4-12.7,3.2-19,4.8c-7.4,2-15.1,4-22.3,5.6
		c-23.3,5.4-43.7,8-62.3,8c-14.4,0-28.9-1.6-43.3-4.8c-11.1-2.4-22-5.2-32.6-7.9c-10.5-2.7-21.3-5.5-32.4-7.9
		c-13.8-3.1-27.9-4.7-40.7-4.7c-31.9,0-59.3,11.2-83.8,34.2c-1.5,1.5-3,2.7-4.6,3.9c-1.9,1.5-3.9,3-6.4,5.6l-4.3,4.3v-42.5
		c0-2.6,2.1-4.7,3.9-6.5c28.3-26.5,56.1-38.7,87.3-38.7h4.8c30.2,0,59.3,4.8,86.4,14.4c20.6,7.4,42.1,10.9,65.7,10.9
		c35.9,0,69.4-9.5,97.4-18.9L740.9,365.6z"/>
	<path fill="none" d="M539.5,374.2l4.3,0.9c4.8,0.8,9.3,2,13.6,3.2c4.2,1.2,8.6,2.3,13.2,3.1l0.2,0l6.5,1.6
		c-13.2-3.9-25.9-6.9-38.2-8.9C539.3,374.2,539.4,374.2,539.5,374.2z"/>
	<path fill="none" d="M621.8,481.4L621.8,481.4c7.5,3,16.9,3,26,3c12.9,0,25.6-1.7,38-4c-12.4,1.8-24.5,2.6-36.4,2.6
		C640.3,483,631.1,482.5,621.8,481.4z"/>
	<path fill="#B51F33" d="M577.4,373.6c-27.1-9.6-56.1-14.4-86.4-14.4h-4.8c-31.2,0-59,12.3-87.3,38.7c-1.8,1.8-3.9,3.9-3.9,6.5V447
		l4.3-4.3c2.5-2.5,4.5-4.1,6.4-5.6c1.6-1.2,3.1-2.4,4.6-3.9c24.5-23,51.9-34.2,83.8-34.2c12.8,0,26.8,1.6,40.7,4.7
		c11,2.4,21.9,5.2,32.4,7.9c10.5,2.7,21.4,5.6,32.6,7.9c14.4,3.2,28.9,4.8,43.3,4.8c18.7,0,39.1-2.6,62.3-8
		c7.2-1.6,14.8-3.6,22.3-5.6c6.3-1.7,12.8-3.4,19-4.8v39.2c-0.5,0.7-2.3,2.2-3.3,3c-0.7,0.6-1.3,1.1-1.8,1.5
		c-33,11.5-64.2,17.1-95.3,17.1c-25.3,0-48.4-3.6-70.5-11c-22.7-7.1-49.6-14.4-76.8-14.4c-8.1,0-14.4,0-22.6,1.6
		c-26.7,3-50.9,15.5-73.8,38.2c-6.7,1.9-9.1,5.8-9.1,8.6v37.3l3.6-1.8c0.8-0.4,1.6-0.7,2.2-1c1.5-0.6,3.2-1.3,3.8-3.2
		c26-25.8,54.8-38.3,87.9-38.3c15.7,0,29.4,2,42,6.2l0.2,0.1c4.2,1.1,8.5,2.1,12.6,3.2c21,5.3,40.8,10.3,62,14.3
		c8.9,1.5,20.5,3.2,30.5,3.2c22.1,0,45.7-3.4,76.5-11.1c7.5-1.3,15-3.5,22.9-5.8c1.4-0.4,2.7-0.8,4.1-1.2v37.9
		c0,1.1-2.4,3.6-6.4,5.6c-33.2,11.6-63.9,17.2-94.1,17.2c-27.8,0-50.5-3.9-73.7-12.5c-24.8-8.3-52-12.8-76.8-12.8h-4.8
		c-33.3,0-63.2,13-88.9,38.7c-3.6,3.6-5.5,5.9-5.5,8.1v37.3l3.6-1.8c3.5-1.8,5.4-3.6,7-5.2c25.8-25.8,55-38.9,86.9-38.9
		c10.6,0,21.5,1.5,34.2,4.7c4.3,1.1,8.5,2.1,12.6,3.2c21,5.3,40.7,10.3,61.9,14.3c12.8,3.2,25.8,4.8,38.6,4.8
		c22.3,0,44.9-3.2,67.1-9.6c11.7-2.9,25-5.9,38.1-8.8v39.5c-0.3,0.8-2.3,2.9-4.8,4.2c-28,9.3-61.4,18.8-97.2,18.8
		c-19.7,0-38.6-3-59.4-9.4c-32.2-10.7-62-16-91.1-16h-1.6c-33.8,0-65.1,13.4-90.5,38.7c-1.9,1.9-3.5,5.1-5.2,8.6l-0.3,0.5v38.3
		l4.3-4.3c0.8-0.8,1.5-0.9,3-0.9h1.1l0.7-0.8c25.3-26.8,55.6-40.4,90.1-40.4c15.7,0,29.4,2,42,6.2l0.2,0.1c4.3,1.1,8.5,2.1,12.7,3.2
		c21,5.3,40.8,10.3,62,14.3c9.4,1.6,19.2,3.2,28.9,3.2c21.3,0,45.3-3.7,73.6-11.2c6.1-1.7,12.2-3,18.6-4.3c4.2-0.9,8.5-1.8,13-2.8
		v39.4c-0.3,0.8-2.3,2.9-4.8,4.2c-28,9.3-61.4,18.8-97.2,18.8c-21,0-42.6-3.2-62.6-9.4c-27.1-9.5-56.1-14.4-86.3-14.4h-4.8
		c-33.3,0-63.2,13-88.9,38.7c-1.8,1.8-3.9,3.9-3.9,6.5v38.9l3.6-1.8c3.5-1.8,5.4-3.6,7-5.2c25.1-25.1,53-37.3,85.4-37.3
		c7.7,0,17.3,1.6,26.5,3.1c21.6,4,46.2,9.6,77.5,17.4c14,3.1,29.9,4.8,44.9,4.8c25.6,0,52.2-4.2,81.4-12.7
		c7.1-1.4,15.5-4.1,23.8-6.9v40.6c-0.3,0.4-1.2,1.1-1.8,1.5c-0.6,0.4-1.2,0.9-1.8,1.4c-37,12.9-66.5,18.7-95.3,18.7h-14.1
		c-17.2-1.6-34.6-4.7-51.7-9.4l-0.1,0c-28.2-6.3-57.3-12.7-87.7-12.7h-4.8l-0.1,0c-31.9,1.5-61.2,14.5-87.2,38.7
		c-1.8,1.8-3.9,3.9-3.9,6.5v38.9l3.6-1.8c3.5-1.8,5.4-3.6,7-5.2c25.1-25.1,53-37.3,85.4-37.3c9.3,0,18.8,1.6,28,3.1
		c21.7,4.7,44.2,9.5,66.4,15.8c17.7,4.4,35,6.4,56,6.4c28.4,0,55.2-5.4,79.7-11.1c3.6-0.7,7-1.7,10.7-2.8c4.5-1.3,9.2-2.6,14.3-3.5
		h0.5v38.7c0,1.8-2.1,4.2-4.8,5.6c-26.6,9.3-58.4,18.8-92.5,18.8c-24.5,0-46-4.1-65.6-12.5c-15.9-6.4-32-11.2-48-14.4
		c-7.9-1.6-16.1-3.2-24.2-3.2c-30.4,0-54.4,12.2-73.3,37.4c-3.9,5.2-7.7,6.9-15.4,6.9H377c-4.1,0-9.7-2.8-12.4-5.5
		c-21-25.8-46.6-38.8-76.3-38.8c-7.7,0-14.5,1-22.3,2.2c-2.1,0.3-4.2,0.6-6.5,1l-0.3,0.1c-3,0.8-6.1,1.7-9.2,2.5
		c-14.9,4-30.3,8.1-44.7,13.4c-18.7,6.2-37.6,9.4-56.2,9.4c-18,0-34.8-2.1-50-6.2l-0.1,0c-10.8-2.4-21.7-5.7-33.2-9.3
		c-3.6-1.1-7.2-2.2-10.9-3.3c-4.4-1.5-6.2-4.1-6.2-8.7l0-395.9C50,422,50,370.4,50,320.5v-4.4c3.5,1.2,6.8,2.4,10.1,3.6
		c4.3,1.6,8.7,3.2,13.6,4.8c27.1,8.5,54,12.8,79.9,12.8c26.9,0,50.5-4.2,72.1-12.8c26.5-7.6,46.8-11,65.7-11
		c14.6,0,27.9,2.1,38.7,6.2l0.1,0c13,4,25.2,10.5,38.1,17.3c7.1,3.8,14.4,7.6,21.7,11c1.1,0.6,2,1.1,2.8,1.6c1.6,1,2.9,1.8,4.6,1.8
		c1.7,0,4.1,0,6.4-2.2c30.4-22.7,63.4-34.2,98.2-34.2c21.5,0,41.9,3.6,62.5,10.9l0.1,0c28.3,8.8,51.5,12.8,75.2,12.8
		c29.2,0,59-5.8,91.1-17.6c3.8-1.3,7.8-2.6,12.5-3.9v45.7c-0.3,0.7-1.7,2.1-2.4,2.4h-0.2l-0.4,0.1c-28,9.3-61.5,18.9-97.4,18.9
		C619.5,384.6,598,381,577.4,373.6z"/>
</g>
</svg>
