<?xml version="1.0" encoding="utf-8"?>
<!-- Generator: Adobe Illustrator 17.1.0, SVG Export Plug-In . SVG Version: 6.00 Build 0)  -->
<!DOCTYPE svg PUBLIC "-//W3C//DTD SVG 1.0//EN" "http://www.w3.org/TR/2001/REC-SVG-20010904/DTD/svg10.dtd">
<svg version="1.0" id="Layer_1" xmlns="http://www.w3.org/2000/svg" xmlns:xlink="http://www.w3.org/1999/xlink" x="0px" y="0px"
	 viewBox="0 0 50 50" enable-background="new 0 0 50 50" xml:space="preserve">
<g>
	<path fill="#FFFFFF" stroke="#FFFFFF" stroke-width="0.5" stroke-miterlimit="10" d="M31.6,13.9c0,0-0.1,0-0.1,0h-1.8v-1
		c0-0.2-0.2-0.4-0.4-0.4c-0.2,0-0.4,0.2-0.4,0.4v1h-1.9v-1c0-0.2-0.2-0.4-0.4-0.4c-0.2,0-0.4,0.2-0.4,0.4v1h-1.9v-1
		c0-0.2-0.2-0.4-0.4-0.4c-0.2,0-0.4,0.2-0.4,0.4v1h-1.9v-1c0-0.2-0.2-0.4-0.4-0.4c-0.2,0-0.4,0.2-0.4,0.4v1h-1.8c0,0-0.1,0-0.1,0
		c-1,0-1.7,0.8-1.7,1.8v4.1v16.5c0,0.2,0.2,0.4,0.4,0.4h15.6c0.2,0,0.4-0.2,0.4-0.4V19.8v-4.1C33.3,14.7,32.5,13.9,31.6,13.9z
		 M17.7,15.7c0-0.5,0.4-1,1-1h0h1.9v1c0,0.2,0.2,0.4,0.4,0.4c0.2,0,0.4-0.2,0.4-0.4v-1h1.9v1c0,0.2,0.2,0.4,0.4,0.4
		c0.2,0,0.4-0.2,0.4-0.4v-1h1.9v1c0,0.2,0.2,0.4,0.4,0.4c0.2,0,0.4-0.2,0.4-0.4v-1h1.9v1c0,0.2,0.2,0.4,0.4,0.4
		c0.2,0,0.4-0.2,0.4-0.4v-1h1.9c0,0,0,0,0,0c0.5,0,1,0.4,1,1v3.7H17.7V15.7z M32.5,22.2H17.7v-1.9h14.7V22.2z M17.7,31.2h14.7v1.9
		H17.7V31.2z M17.7,30.4v-1.9h14.7v1.9H17.7z M17.7,27.7v-1.9h14.7v1.9H17.7z M17.7,24.9V23h14.7v1.9H17.7z M17.7,35.9V34h14.7v1.9
		H17.7z"/>
</g>
</svg>
