<?xml version="1.0" encoding="utf-8"?>
<!-- Generator: Adobe Illustrator 18.0.0, SVG Export Plug-In . SVG Version: 6.00 Build 0)  -->
<!DOCTYPE svg PUBLIC "-//W3C//DTD SVG 1.1//EN" "http://www.w3.org/Graphics/SVG/1.1/DTD/svg11.dtd">
<svg version="1.1" xmlns="http://www.w3.org/2000/svg" xmlns:xlink="http://www.w3.org/1999/xlink" x="0px" y="0px"
	 viewBox="0 0 50 50" enable-background="new 0 0 50 50" xml:space="preserve">
<g id="Layer_1" display="none">
	<g display="inline">
		<g>
			<path fill="#B50430" d="M40.8,17.4c-0.1-0.9-0.1-1.8-0.3-2.7c-1.1-6-5.9-10.6-12-11.4c-5.9-0.8-11.8,2.3-14.4,7.7
				c-0.7,1.4-1.1,2.9-1.3,4.4c-0.1,0.9,0.4,1.6,1.3,1.8c0.8,0.1,1.6-0.4,1.8-1.3c0-0.2,0.1-0.4,0.1-0.7c0.8-4.5,4.4-8,9-8.8
				c4.4-0.8,9,1.4,11.2,5.3c2,3.5,1.9,7.2,0.5,10.9c-0.8,2.2-2.4,3.9-4.1,5.4c-1.4,1.2-2.8,2.3-4.1,3.6c-2.2,2.1-3.4,4.6-3.4,7.7
				c0,2.3-2.1,4.4-4.4,4.4c-2.2,0.1-4.1-1.3-4.8-3.4c-0.1-0.4-0.4-0.8-0.7-1c-0.5-0.4-1.2-0.4-1.7,0c-0.5,0.4-0.8,1-0.6,1.7
				c0.8,3.5,4.3,6,8,5.8c3.7-0.2,6.8-3.1,7.3-6.7c0.1-0.8,0.1-1.7,0.2-2.5c0.3-1.7,1.3-3,2.6-4.1c1.2-1.1,2.4-2.2,3.7-3.2
				C38.6,27,40.8,22.8,40.8,17.4z M22,18c0-0.4,0-0.7,0-0.9c0.1-2.8,2.7-4.9,5.4-4.4c2.3,0.4,3.9,2.2,4,4.6c0,0.9,0.7,1.6,1.6,1.6
				c0.9,0,1.6-0.7,1.5-1.7c0-0.6-0.1-1.1-0.2-1.7c-0.8-3.6-4.2-6.2-8-6c-3.7,0.2-6.9,3.1-7.3,6.8c-0.1,1.3-0.1,2.6-0.1,3.9
				c0,1.2,0.5,1.7,1.7,1.8c2,0.1,3.3,2,2.9,3.9c-0.3,1.4-1.5,2.3-3,2.4c-1.2,0-1.9,1.1-1.5,2.2c0.3,0.7,0.9,1,1.9,0.9
				c2.8-0.2,5.2-2.3,5.7-5.1c0.5-2.8-0.9-5.6-3.6-6.8C22.2,19.1,21.7,18.8,22,18z"/>
			<path fill="#B50430" d="M40.8,17.4c0,5.3-2.1,9.6-6.2,13c-1.2,1-2.5,2.1-3.7,3.2c-1.2,1.1-2.2,2.4-2.6,4.1
				c-0.2,0.8-0.1,1.6-0.2,2.5c-0.4,3.6-3.6,6.5-7.3,6.7c-3.7,0.2-7.1-2.3-8-5.8c-0.2-0.7,0.1-1.3,0.6-1.7c0.5-0.4,1.3-0.4,1.7,0
				c0.3,0.3,0.6,0.6,0.7,1c0.7,2.1,2.5,3.5,4.8,3.4c2.3-0.1,4.4-2.1,4.4-4.4c0-3.1,1.2-5.6,3.4-7.7c1.3-1.2,2.7-2.4,4.1-3.6
				c1.7-1.5,3.3-3.2,4.1-5.4c1.3-3.7,1.5-7.4-0.5-10.9c-2.2-3.9-6.8-6.1-11.2-5.3c-4.6,0.8-8.2,4.3-9,8.8c0,0.2-0.1,0.5-0.1,0.7
				c-0.2,0.9-1,1.4-1.8,1.3c-0.8-0.2-1.4-0.9-1.3-1.8c0.2-1.5,0.7-3,1.3-4.4c2.7-5.4,8.5-8.5,14.4-7.7c6.1,0.8,10.9,5.4,12,11.4
				C40.6,15.7,40.7,16.5,40.8,17.4z"/>
			<path fill="#B50430" d="M22,18c-0.3,0.8,0.2,1.1,1,1.5c2.6,1.1,4.1,4,3.6,6.8c-0.5,2.8-2.9,4.9-5.7,5.1c-0.9,0.1-1.6-0.2-1.9-0.9
				c-0.5-1,0.3-2.1,1.5-2.2c1.5-0.1,2.6-1,3-2.4c0.5-1.9-0.9-3.8-2.9-3.9c-1.2-0.1-1.7-0.6-1.7-1.8c0-1.3-0.1-2.6,0.1-3.9
				c0.4-3.7,3.6-6.6,7.3-6.8c3.8-0.2,7.2,2.4,8,6c0.1,0.6,0.2,1.1,0.2,1.7c0,0.9-0.7,1.7-1.5,1.7c-0.9,0-1.5-0.7-1.6-1.6
				c-0.1-2.4-1.6-4.2-4-4.6c-2.7-0.5-5.3,1.7-5.4,4.4C22,17.3,22,17.6,22,18z"/>
		</g>
	</g>
</g>
<g id="Layer_2" display="none">
	<g display="inline">
		<path fill="#B50430" d="M19.7,38.7c0,1.8-1.1,3.3-2.6,4.5c-1.5,1.2-3.4,1.9-5.2,1.9c-1.1,0-2.1-0.4-2.8-0.9
			C8.4,43.6,8,42.7,8,41.7c0-1.6,1.1-3.2,2.6-4.4c1.5-1.2,3.4-2,4.9-2c1.4,0,2.5,0.2,3.2,0.9V6.1h1.1V38.7z"/>
		<rect x="18.7" y="3.9" fill="#B50430" width="23.7" height="2.3"/>
		<path fill="#B50430" d="M42.4,38.7c0,1.8-1.1,3.3-2.6,4.5c-1.5,1.2-3.4,1.9-5.2,1.9c-1.1,0-2.1-0.4-2.8-0.9
			c-0.7-0.6-1.2-1.4-1.2-2.5c0-1.6,1.1-3.2,2.6-4.4c1.5-1.2,3.4-2,4.9-2c1.4,0,2.5,0.2,3.2,0.9V6.1h1.1V38.7z"/>
	</g>
	<rect x="16.2" y="3.9" display="inline" fill="#B50430" width="3.2" height="33.9"/>
	<rect x="39.2" y="3.9" display="inline" fill="#B50430" width="3.2" height="33.9"/>
</g>
<g id="Layer_3">
	<g>
		<g>
			<path fill="#B50430" d="M39.7,46.1c-3.4-0.4-5.8-3.9-4.8-7.3c0.1-0.3,0.1-0.5-0.2-0.7c-1.5-1.5-3-3-4.5-4.4
				c-0.1-0.1-0.2-0.1-0.3-0.3c-0.5,0.5-0.9,0.9-1.4,1.4c-0.5,0.5-1,1.1-1.6,1.6c-1.5,1.4-3.5,1.4-4.9,0c-2.7-2.7-5.4-5.4-8-8
				c-3.3-3.3-6.6-6.6-9.9-9.9c-0.1-0.1-0.1-0.1-0.2-0.2c0,0,0-0.1,0-0.1c0.6-0.6,1.3-1.2,1.9-1.8c0.5-0.5,1-1,1.5-1.5
				c0.1,0.1,0.2,0.2,0.3,0.3c1.2,1.2,2.3,2.3,3.5,3.5c4,4,8,8,12,12c1,1,2.2,1,3.2,0c1.4-1.4,2.8-2.7,4.1-4.1
				c0.3-0.3,0.5-0.6,0.6-0.9c0.3-0.9,0-1.7-0.7-2.4c-4.8-4.8-9.7-9.7-14.5-14.5c-0.4-0.4-0.8-0.8-1.2-1.2C15,7.2,15.3,7,15.5,6.8
				c0.9-0.9,1.8-1.8,2.6-2.7c0,0,0.1,0,0.1,0c1.2,1.2,2.3,2.3,3.5,3.5c4.9,4.9,9.8,9.8,14.6,14.6c1.5,1.5,1.5,3.5,0,5
				c-0.9,1-1.9,1.9-2.9,2.9c0.1,0.1,0.1,0.2,0.2,0.2c1.5,1.5,3,3,4.5,4.5c0.2,0.2,0.4,0.3,0.7,0.2c3.3-1,6.8,1.2,7.3,4.6
				c0.5,3.4-2.3,6.5-5.7,6.5C40.2,46.1,39.9,46.1,39.7,46.1z"/>
		</g>
	</g>
</g>
</svg>
