<?xml version="1.0" encoding="utf-8"?>
<!-- Generator: Adobe Illustrator 17.1.0, SVG Export Plug-In . SVG Version: 6.00 Build 0)  -->
<!DOCTYPE svg PUBLIC "-//W3C//DTD SVG 1.1//EN" "http://www.w3.org/Graphics/SVG/1.1/DTD/svg11.dtd">
<svg version="1.1" id="Layer_1" xmlns="http://www.w3.org/2000/svg" xmlns:xlink="http://www.w3.org/1999/xlink" x="0px" y="0px"
	 viewBox="0 0 270 65" enable-background="new 0 0 270 65" xml:space="preserve">
<g>
	<text transform="matrix(0.9747 0 0 1 70.1807 45.6934)" fill="#B50430" font-family="'MorePro-MediumItalic'" font-size="13.0338">The American Folk Song Collection</text>
</g>
<text transform="matrix(1 0 0 1 70.1817 28.5894)" font-family="'MorePro-Book'" font-size="11.0839">Kodály Center for Music Education </text>
<line fill="none" stroke="#B1B0AC" stroke-miterlimit="10" x1="57.8" y1="17" x2="57.8" y2="49"/>
<g>
	<g>
		<g>
			<path fill="none" d="M20.3,32.8v4.4l1.5,1.6v-2.7c0-1,0-2.7-0.2-3.1c-0.2-0.1-0.6-0.1-1.3-0.2C20.4,32.8,20.4,32.8,20.3,32.8z"/>
			<path fill="none" d="M28.9,47.2V32.4c-0.3,0.2-0.6,0.3-0.9,0.4l0,0l0,0c-0.8,0.1-1.1,0.1-1.2,0.2c-0.1,0.4-0.1,1.8-0.1,3.2v4.5
				l0,0v2.3C26.6,45.1,27.7,46.4,28.9,47.2z"/>
			<path fill="none" d="M20.3,28.9c0.1,0,0.2,0,0.3,0c0.1,0,0.2,0,0.3,0c1.2,0.1,1.9,0.2,3.7,0.2c1.4,0,2.2-0.1,3-0.2l0,0l0,0
				c0.1,0,0.1,0,0.2,0c0.4,0,0.8,0.1,1.1,0.4v-2.3h-8.5V28.9z"/>
			<path fill="none" d="M37.6,43.4v-7.6c0-0.7,0-2.4-0.2-2.8c-0.1-0.1-0.4-0.2-1.4-0.3l-0.1,0l-0.1,0c-0.3-0.1-0.6-0.2-0.8-0.4V48
				C36.8,47.4,37.6,45.9,37.6,43.4z"/>
			<path fill="#C4232A" d="M43.5,30.6C43.5,30.6,43.4,30.6,43.5,30.6c-1,0.1-1.9,0.2-3.2,0.2c-1.9,0-2.6,0-4-0.2c0,0,0,0,0,0
				c-0.3,0-0.2,0.5,0,0.5c2.8,0.3,3.1,0.8,3.1,4.8v7.6c0,4.1-2,6.4-5.9,6.6V19.3c0-4.6-0.1-4.8,3.2-5c0.2,0,0.2-0.5,0-0.5
				c0,0,0,0,0,0c-1,0.1-2.9,0.2-4.2,0.2c-1.9,0-3,0-4.4-0.2c0,0,0,0,0,0c-0.2,0-0.1,0.5,0,0.5c2.4,0.3,2.6,0.3,2.6,5v5.1H18.6v-5.1
				c0-4.5,0.1-4.8,2.6-5c0.1,0,0.2-0.5,0-0.5c0,0,0,0,0,0c-1,0.1-2.2,0.2-3.6,0.2c-1.8,0-3.6,0-4.9-0.2c0,0,0,0,0,0
				c-0.2,0-0.1,0.5,0,0.5c3.2,0.4,3.2,0.3,3.2,5V35l-7.3-7.7c-1.9,0-3.1-0.1-4.4-0.2c0,0,0,0,0,0c-0.3,0-0.1,0.5,0,0.5
				c1.5,0.2,3.5,2,3.5,3.4v11.1c0,4.4-0.2,4.7-3,5c-0.1,0-0.3,0.6,0,0.6c0,0,0,0,0,0c1.3-0.2,2.1-0.2,3.9-0.2c1.3,0,2.2,0.1,3.2,0.2
				c0,0,0,0,0,0c0.3,0,0.1-0.6,0-0.6c-2.9-0.2-2.9-0.8-2.9-5V31.7l15.3,16c0.6,0.7,4.4,3.9,7.7,3.9c5.6,0,8.5-3.6,8.5-7.9v-7.9
				c0-3.8,0.1-4.5,3.1-4.8C43.7,31.1,43.7,30.6,43.5,30.6z M30.6,49.8c-2.8-0.7-5.7-2.9-5.7-6.9l0,0c0-0.3,0-0.6,0-0.8v-6
				c0-4.2,0-4.8,2.9-5c0.2,0,0.3-0.5,0-0.5c0,0,0,0,0,0c-0.9,0.1-1.8,0.2-3.2,0.2c-1.8,0-2.6,0-3.9-0.2c0,0,0,0,0,0
				c-0.2,0-0.1,0.5,0,0.5c2.8,0.3,3,0.7,3,5v6.9l-4.9-5.2V25.2h11.9V49.8z"/>
			<path fill="#B6B8BA" d="M45,29.5c-0.3-0.5-0.9-0.9-1.6-0.9h-0.1l-0.1,0l0,0l0,0c-1,0.1-1.8,0.2-3,0.2c-1.9,0-2.6,0-3.8-0.2l0,0
				l0,0l-0.1,0l-0.1,0c-0.4,0-0.8,0.1-1.1,0.4v-9.9v-0.4c0-1.1,0-2.3,0.1-2.8c0.3-0.1,1.1-0.2,1.5-0.2c1-0.1,1.7-0.9,1.7-2
				c0-1.1-0.8-1.9-1.8-1.9c-0.1,0-0.2,0-0.3,0C35.3,12,33.6,12,32.3,12c-1.7,0-2.9,0-4.1-0.2c-0.1,0-0.2,0-0.3,0c0,0,0,0,0,0
				c-1,0-1.7,0.7-1.8,1.7c-0.1,0.9,0.4,2,1.5,2.2l0.1,0l0.1,0c0.3,0,0.8,0.1,1,0.1c0.2,0.6,0.2,2.3,0.2,3.2v3.4h-8.5v-3.4
				c0-1.2,0-2.7,0.1-3.2c0.2,0,0.5-0.1,0.9-0.1c1-0.1,1.7-0.9,1.7-2c0-1.1-0.8-1.9-1.9-1.9h-0.1l-0.1,0l0,0l0,0
				C20.1,12,18.9,12,17.6,12c-1.5,0-3.3,0-4.7-0.2c-0.1,0-0.2,0-0.3,0h0c-1,0-1.7,0.7-1.8,1.7c-0.1,0.9,0.4,2,1.5,2.2l0.1,0l0.1,0
				l0.2,0c0.5,0.1,1.1,0.1,1.4,0.2c0.1,0.5,0.1,1.8,0.1,3.1v11.5L9.8,26l-0.5-0.5H8.6c-1.8,0-3-0.1-4.2-0.2l0,0l0,0l-0.1,0l-0.1,0
				c-0.7,0-1.3,0.3-1.6,0.9c-0.4,0.7-0.2,1.6,0.1,2.1c0.3,0.5,0.8,0.8,1.3,0.9c0.8,0.1,2,1.2,2,1.8l0,11c0,0.9,0,2.6-0.2,3.1
				c-0.2,0.1-0.6,0.1-1.2,0.2c-1,0.1-1.7,0.9-1.7,2.1c0,0.4,0.1,0.7,0.3,1c0.3,0.5,0.9,0.9,1.6,0.9h0.1l0.1,0l0,0l0,0
				C6.1,49.1,6.8,49,8.7,49c1.3,0,2.1,0.1,2.9,0.2l0,0l0,0l0.1,0l0.1,0c0.7,0,1.3-0.3,1.6-0.9c0.2-0.3,0.3-0.7,0.3-1
				c0-1.1-0.7-2-1.7-2.1c-0.7-0.1-1.1-0.1-1.2-0.2c-0.1-0.4-0.1-1.8-0.1-3.1v-6.2l12.3,12.8c2.4,2.7,5.1,4.6,9,4.6
				c7.1,0,10.2-4.8,10.2-9.6v-7.9c0-0.9,0-2.5,0.2-2.8c0.1,0,0.4-0.2,1.3-0.2c1-0.1,1.7-0.9,1.7-2C45.3,30.2,45.2,29.9,45,29.5z
				 M40.4,35.9v7.9c0,4.3-2.9,7.9-8.5,7.9c-3.2,0-6.3-2.4-7.7-3.9l-15.3-16v10.5c0,4.2,0,4.8,2.9,5c0.1,0,0.2,0.6,0,0.6c0,0,0,0,0,0
				c-1-0.1-1.8-0.2-3.2-0.2c-1.9,0-2.6,0-3.9,0.2c0,0,0,0,0,0c-0.3,0-0.1-0.6,0-0.6c2.8-0.3,3-0.6,3-5V31.1c0-1.4-2-3.2-3.5-3.4
				c-0.1,0-0.3-0.5,0-0.5c0,0,0,0,0,0c1.3,0.2,2.6,0.2,4.4,0.2l7.3,7.7V19.3c0-4.8,0-4.7-3.2-5c-0.1,0-0.2-0.5,0-0.5c0,0,0,0,0,0
				c1.4,0.2,3.1,0.2,4.9,0.2c1.4,0,2.6-0.1,3.6-0.2c0,0,0,0,0,0c0.3,0,0.1,0.5,0,0.5c-2.6,0.2-2.6,0.5-2.6,5v5.1h11.9v-5.1
				c0-4.7-0.2-4.8-2.6-5c-0.1,0-0.2-0.5,0-0.5c0,0,0,0,0,0c1.4,0.2,2.5,0.2,4.4,0.2c1.3,0,3.2-0.1,4.2-0.2c0,0,0,0,0,0
				c0.2,0,0.1,0.5,0,0.5c-3.3,0.3-3.2,0.5-3.2,5V50c3.9-0.2,5.9-2.5,5.9-6.6v-7.6c0-4-0.3-4.4-3.1-4.8c-0.2,0-0.3-0.5,0-0.5
				c0,0,0,0,0,0c1.4,0.2,2.1,0.2,4,0.2c1.3,0,2.2-0.1,3.2-0.2c0,0,0,0,0,0c0.3,0,0.2,0.5,0,0.5C40.6,31.4,40.4,32,40.4,35.9z
				 M35.1,32.4c0.2,0.2,0.5,0.3,0.8,0.4l0.1,0l0.1,0c0.9,0.1,1.3,0.2,1.4,0.3c0.2,0.4,0.2,2.1,0.2,2.8v7.6c0,2.5-0.8,4-2.5,4.6V32.4
				z"/>
			<path fill="#ABABAB" d="M18.6,37.9l4.9,5.2v-6.9c0-4.4-0.1-4.7-3-5c-0.1,0-0.2-0.5,0-0.5c0,0,0,0,0,0c1.3,0.2,2.1,0.2,3.9,0.2
				c1.4,0,2.2-0.1,3.2-0.2c0,0,0,0,0,0c0.3,0,0.2,0.5,0,0.5c-2.9,0.3-2.9,0.9-2.9,5v6c0,0.2,0,0.5,0,0.8l0,0c0,4,2.9,6.1,5.7,6.9
				V25.2H18.6V37.9z M26.6,40.6v-4.5c0-1.3,0-2.7,0.1-3.2c0.1,0,0.4-0.1,1.2-0.2l0,0l0,0c0.3,0,0.6-0.2,0.9-0.4v14.8
				c-1.2-0.8-2.3-2.1-2.3-4.3L26.6,40.6L26.6,40.6z M28.9,29.1c-0.3-0.2-0.7-0.4-1.1-0.4c-0.1,0-0.1,0-0.2,0l0,0l0,0
				c-0.8,0.1-1.6,0.2-3,0.2c-1.8,0-2.5,0-3.7-0.2c-0.1,0-0.2,0-0.3,0c-0.1,0-0.2,0-0.3,0v-1.9h8.5V29.1z M21.9,36.1v2.7l-1.5-1.6
				v-4.4c0,0,0.1,0,0.1,0c0.6,0.1,1.1,0.1,1.3,0.2C21.9,33.5,21.9,35.1,21.9,36.1z"/>
		</g>
		<g>
			<path fill="none" d="M22.4,35.7c0-1.4,0-3-0.3-3.5c-0.1-0.2-0.7-0.3-1.6-0.4c-0.2,0-0.5-0.1-0.7-0.3V37l2.6,2.7V35.7z"/>
			<path fill="none" d="M19.8,29.2c0.2-0.2,0.5-0.3,0.8-0.3l0,0c0.1,0,0.1,0,0.2,0c1.2,0.1,1.9,0.2,3.7,0.2c1.2,0,2.1-0.1,3-0.2l0,0
				l0,0c0,0,0.1,0,0.1,0c0.7,0,1.3,0.6,1.4,1.3c0.1,0.8-0.5,1.5-1.2,1.6l0,0l0,0c-1.3,0.1-1.5,0.3-1.6,0.4C26,32.7,26,33.9,26,35.7
				v5l0,0v1.7c0,2.9,1.9,4.4,3.3,5.2V26h-9.6V29.2z"/>
			<path fill="#C22033" d="M43.5,30.6c0.2,0,0.2-0.5,0-0.5c0,0,0,0,0,0c-1,0.1-1.9,0.2-3.2,0.2c-1.9,0-2.6,0-4-0.2c0,0,0,0,0,0
				c-0.3,0-0.2,0.5,0,0.5c2.8,0.3,3.1,0.8,3.1,4.8V43c0,4.1-2,6.2-5.9,6.5V18.8c0-4.6-0.1-4.8,3.2-5c0.1,0,0.2-0.5,0-0.5
				c0,0,0,0,0,0c-1,0.1-2.9,0.2-4.2,0.2c-1.9,0-3,0-4.4-0.2c0,0,0,0,0,0c-0.2,0-0.1,0.5,0,0.5c2.4,0.3,2.6,0.3,2.6,5v5.1H18.6v-5.1
				c0-4.5,0.1-4.8,2.6-5c0.1,0,0.2-0.5,0-0.5c0,0,0,0,0,0c-1,0.1-2.2,0.2-3.6,0.2c-1.8,0-3.6,0-4.9-0.2c0,0,0,0,0,0
				c-0.2,0-0.1,0.5,0,0.5c3.2,0.4,3.2,0.3,3.2,5v15.7l-7.3-7.7c-1.9,0-3.1-0.1-4.4-0.2c0,0,0,0,0,0c-0.3,0-0.1,0.5,0,0.5
				c1.5,0.2,3.5,2,3.5,3.4v11.1c0,4.4-0.2,4.7-3,5c-0.1,0-0.3,0.6,0,0.6c0,0,0,0,0,0C6,47.1,6.8,47,8.7,47c1.3,0,2.2,0.1,3.2,0.2
				c0,0,0,0,0,0c0.3,0,0.1-0.6,0-0.6c-2.9-0.2-2.9-0.8-2.9-5V31.2l15.3,16c2.5,2.4,4.9,3.9,7.7,3.9c5.6,0,8.5-3.6,8.5-7.9v-7.9
				C40.4,31.6,40.6,30.9,43.5,30.6z M30.6,49.3c-2.8-0.7-5.7-2.9-5.7-6.9l0,0c0-0.3,0-0.6,0-0.8v-6c0-4.2,0-4.8,2.9-5
				c0.2,0,0.3-0.5,0-0.5c0,0,0,0,0,0c-0.9,0.1-1.8,0.2-3.2,0.2c-1.8,0-2.6,0-3.9-0.2c0,0,0,0,0,0c-0.2,0-0.1,0.5,0,0.5
				c2.8,0.3,3,0.7,3,5v6.9l-4.9-5.2V24.8h11.9V49.3z"/>
			<path fill="#DBDCD6" d="M44.6,29.5c-0.2-0.4-0.7-0.6-1.1-0.6h-0.1l-0.1,0l0,0l0,0c-1,0.1-1.9,0.2-3.1,0.2c-1.9,0-2.6,0-3.9-0.2
				l-0.1,0l-0.1,0l0,0c-0.7,0-1.3,0.5-1.3,1.2c-0.1,0.7,0.3,1.5,1.1,1.6l0,0l0,0c1.1,0.1,1.6,0.3,1.7,0.5c0.3,0.4,0.3,1.8,0.3,3.1
				V43c0,3.1-1.1,4.8-3.5,5.3V18.8v-0.4c0-1.5,0-2.8,0.2-3.2c0.1-0.2,1.4-0.3,1.9-0.3c0.7,0,1.2-0.7,1.2-1.5c0-0.8-0.6-1.4-1.3-1.4
				c-0.1,0-0.1,0-0.2,0c-1,0.1-2.7,0.2-4,0.2c-1.8,0-2.9,0-4.2-0.2c-0.1,0-0.1,0-0.2,0c-0.7,0-1.2,0.5-1.3,1.2
				c-0.1,0.7,0.3,1.5,1.1,1.7l0,0l0,0c0.5,0.1,1.2,0.1,1.3,0.2c0.3,0.3,0.3,2.5,0.3,3.6v3.9h-9.6v-3.9c0-1.6,0-3.1,0.2-3.6
				c0.1-0.2,0.9-0.2,1.3-0.3c0.7,0,1.2-0.7,1.2-1.5c0-0.8-0.6-1.4-1.3-1.4h-0.1l-0.1,0l0,0l0,0c-0.9,0.1-2.1,0.2-3.5,0.2
				c-1.5,0-3.4,0-4.7-0.2c-0.1,0-0.1,0-0.2,0c-0.7,0-1.2,0.5-1.3,1.2c-0.1,0.7,0.3,1.5,1.1,1.7l0,0l0,0l0.2,0
				c0.7,0.1,1.6,0.2,1.7,0.3c0.2,0.3,0.2,1.9,0.2,3.5v12.8L9.4,26l-0.3-0.4H8.6c-1.8,0-3-0.1-4.3-0.2l-0.1,0l-0.1,0
				c-0.5,0-0.9,0.2-1.2,0.7c-0.3,0.6-0.2,1.2,0,1.6c0.2,0.4,0.6,0.6,1,0.6c1,0.1,2.5,1.6,2.5,2.3v11.1c0,1.3,0,3-0.3,3.4
				c-0.1,0.2-0.7,0.3-1.6,0.4c-0.8,0.1-1.2,0.8-1.2,1.6c0,0.8,0.6,1.4,1.3,1.4h0.1l0.1,0c1.3-0.1,2-0.2,3.8-0.2c1.3,0,2.1,0.1,3,0.2
				l0,0l0,0l0.1,0l0.1,0c0.5,0,0.9-0.2,1.2-0.7c0.1-0.2,0.2-0.5,0.2-0.8c0-0.9-0.5-1.5-1.2-1.5c-1-0.1-1.5-0.2-1.6-0.4
				c-0.2-0.4-0.2-1.8-0.2-3.4v-7.5l13.2,13.8c2.5,2.6,4.9,4.4,8.6,4.4c6.7,0,9.7-4.6,9.7-9.1v-7.9c0-1.2,0-2.7,0.3-3.1
				c0.1-0.2,0.4-0.3,1.7-0.5c0.7,0,1.2-0.7,1.2-1.5C44.8,30,44.8,29.8,44.6,29.5z M40.4,43.3c0,4.3-2.9,8-8.5,7.9
				c-3.3-0.1-5.9-2.2-7.7-3.9l-15.3-16v10.5c0,4.2,0,4.8,2.9,5c0.1,0,0.2,0.6,0,0.6c0,0,0,0,0,0c-1-0.1-1.8-0.2-3.2-0.2
				c-1.9,0-2.6,0-3.9,0.2c0,0,0,0,0,0c-0.3,0-0.1-0.6,0-0.6c2.8-0.3,3-0.6,3-5V30.6c0-1.4-2-3.2-3.5-3.4c-0.1,0-0.3-0.5,0-0.5
				c0,0,0,0,0,0c1.3,0.2,2.6,0.2,4.4,0.2l7.3,7.7V18.8c0-4.8,0-4.7-3.2-5c-0.1,0-0.2-0.5,0-0.5c0,0,0,0,0,0c1.4,0.2,3.1,0.2,4.9,0.2
				c1.4,0,2.6-0.1,3.6-0.2c0,0,0,0,0,0c0.3,0,0.1,0.5,0,0.5c-2.6,0.2-2.6,0.5-2.6,5v5.1h11.9v-5.1c0-4.7-0.2-4.8-2.6-5
				c-0.1,0-0.2-0.5,0-0.5c0,0,0,0,0,0c1.4,0.2,2.5,0.2,4.4,0.2c1.3,0,3.2-0.1,4.2-0.2c0,0,0,0,0,0c0.2,0,0.1,0.5,0,0.5
				c-3.3,0.3-3.2,0.5-3.2,5v30.6c3.9-0.2,5.9-2.3,5.9-6.5v-7.6c0-4-0.3-4.4-3.1-4.8c-0.2,0-0.3-0.5,0-0.5c0,0,0,0,0,0
				c1.4,0.2,2.1,0.2,4,0.2c1.3,0,2.2-0.1,3.2-0.2c0,0,0,0,0,0c0.3,0,0.2,0.5,0,0.5c-2.9,0.3-3.1,0.9-3.1,4.8V43.3z"/>
			<path fill="#DBDCD6" d="M18.6,37.4l4.9,5.2v-6.9c0-4.4-0.1-4.7-3-5c-0.1,0-0.2-0.5,0-0.5c0,0,0,0,0,0c1.3,0.2,2.1,0.2,3.9,0.2
				c1.4,0,2.2-0.1,3.2-0.2c0,0,0,0,0,0c0.3,0,0.2,0.5,0,0.5c-2.9,0.3-2.9,0.9-2.9,5v6c0,0.2,0,0.5,0,0.8l0,0c0,4,2.9,6.1,5.7,6.9
				V24.8H18.6V37.4z M29.4,47.6c-1.5-0.7-3.3-2.2-3.3-5.2v-1.7l0,0v-5c0-1.7,0-3,0.2-3.5c0.1-0.1,0.3-0.3,1.6-0.4l0,0l0,0
				c0.7-0.1,1.3-0.8,1.2-1.6c-0.1-0.7-0.6-1.3-1.4-1.3c0,0-0.1,0-0.1,0l0,0l0,0c-1,0.1-1.8,0.2-3,0.2c-1.8,0-2.5,0-3.7-0.2
				c-0.1,0-0.1,0-0.2,0l0,0c-0.3,0-0.6,0.1-0.8,0.3V26h9.6V47.6z M19.8,31.5c0.2,0.2,0.4,0.3,0.7,0.3c0.9,0.1,1.5,0.2,1.6,0.4
				c0.3,0.5,0.3,2,0.3,3.5v4L19.8,37V31.5z"/>
		</g>
	</g>
</g>
</svg>
